  0
SECTION
  2
HEADER
  9
$ACADVER
  1
AC1014
  9
$ACADMAINTVER
 70
     9
  9
$DWGCODEPAGE
  3
ANSI_932
  9
$INSBASE
 10
0.0
 20
0.0
 30
0.0
  9
$EXTMIN
 10
1.000000000000000E+20
 20
1.000000000000000E+20
 30
1.000000000000000E+20
  9
$EXTMAX
 10
-1.000000000000000E+20
 20
-1.000000000000000E+20
 30
-1.000000000000000E+20
  9
$LIMMIN
 10
0.0
 20
0.0
  9
$LIMMAX
 10
12.0
 20
9.0
  9
$ORTHOMODE
 70
     0
  9
$REGENMODE
 70
     1
  9
$FILLMODE
 70
     1
  9
$QTEXTMODE
 70
     0
  9
$MIRRTEXT
 70
     1
  9
$DRAGMODE
 70
     2
  9
$LTSCALE
 40
1.0
  9
$OSMODE
 70
    37
  9
$ATTMODE
 70
     1
  9
$TEXTSIZE
 40
0.2
  9
$TRACEWID
 40
0.05
  9
$TEXTSTYLE
  7
STANDARD
  9
$CLAYER
  8
0
  9
$CELTYPE
  6
BYLAYER
  9
$CECOLOR
 62
   256
  9
$CELTSCALE
 40
1.0
  9
$DELOBJ
 70
     1
  9
$DISPSILH
 70
     0
  9
$DIMSCALE
 40
1.0
  9
$DIMASZ
 40
0.18
  9
$DIMEXO
 40
0.0625
  9
$DIMDLI
 40
0.38
  9
$DIMRND
 40
0.0
  9
$DIMDLE
 40
0.0
  9
$DIMEXE
 40
0.18
  9
$DIMTP
 40
0.0
  9
$DIMTM
 40
0.0
  9
$DIMTXT
 40
0.18
  9
$DIMCEN
 40
0.09
  9
$DIMTSZ
 40
0.0
  9
$DIMTOL
 70
     0
  9
$DIMLIM
 70
     0
  9
$DIMTIH
 70
     1
  9
$DIMTOH
 70
     1
  9
$DIMSE1
 70
     0
  9
$DIMSE2
 70
     0
  9
$DIMTAD
 70
     0
  9
$DIMZIN
 70
     0
  9
$DIMBLK
  1

  9
$DIMASO
 70
     1
  9
$DIMSHO
 70
     1
  9
$DIMPOST
  1

  9
$DIMAPOST
  1

  9
$DIMALT
 70
     0
  9
$DIMALTD
 70
     2
  9
$DIMALTF
 40
25.4
  9
$DIMLFAC
 40
1.0
  9
$DIMTOFL
 70
     0
  9
$DIMTVP
 40
0.0
  9
$DIMTIX
 70
     0
  9
$DIMSOXD
 70
     0
  9
$DIMSAH
 70
     0
  9
$DIMBLK1
  1

  9
$DIMBLK2
  1

  9
$DIMSTYLE
  2
STANDARD
  9
$DIMCLRD
 70
     0
  9
$DIMCLRE
 70
     0
  9
$DIMCLRT
 70
     0
  9
$DIMTFAC
 40
1.0
  9
$DIMGAP
 40
0.09
  9
$DIMJUST
 70
     0
  9
$DIMSD1
 70
     0
  9
$DIMSD2
 70
     0
  9
$DIMTOLJ
 70
     1
  9
$DIMTZIN
 70
     0
  9
$DIMALTZ
 70
     0
  9
$DIMALTTZ
 70
     0
  9
$DIMFIT
 70
     3
  9
$DIMUPT
 70
     0
  9
$DIMUNIT
 70
     2
  9
$DIMDEC
 70
     4
  9
$DIMTDEC
 70
     4
  9
$DIMALTU
 70
     2
  9
$DIMALTTD
 70
     2
  9
$DIMTXSTY
  7
STANDARD
  9
$DIMAUNIT
 70
     0
  9
$LUNITS
 70
     2
  9
$LUPREC
 70
     4
  9
$SKETCHINC
 40
0.1
  9
$FILLETRAD
 40
0.5
  9
$AUNITS
 70
     0
  9
$AUPREC
 70
     0
  9
$MENU
  1
.
  9
$ELEVATION
 40
0.0
  9
$PELEVATION
 40
0.0
  9
$THICKNESS
 40
0.0
  9
$LIMCHECK
 70
     0
  9
$CHAMFERA
 40
0.5
  9
$CHAMFERB
 40
0.5
  9
$CHAMFERC
 40
1.0
  9
$CHAMFERD
 40
0.0
  9
$SKPOLY
 70
     0
  9
$TDCREATE
 40
2458660.868287037
  9
$TDUPDATE
 40
2458660.868287049
  9
$TDINDWG
 40
0.0000000116
  9
$TDUSRTIMER
 40
0.0000000116
  9
$USRTIMER
 70
     1
  9
$ANGBASE
 50
0.0
  9
$ANGDIR
 70
     0
  9
$PDMODE
 70
     0
  9
$PDSIZE
 40
0.0
  9
$PLINEWID
 40
0.0
  9
$COORDS
 70
     1
  9
$SPLFRAME
 70
     0
  9
$SPLINETYPE
 70
     6
  9
$SPLINESEGS
 70
     8
  9
$ATTDIA
 70
     0
  9
$ATTREQ
 70
     1
  9
$HANDLING
 70
     1
  9
$HANDSEED
  5
A0
  9
$SURFTAB1
 70
     6
  9
$SURFTAB2
 70
     6
  9
$SURFTYPE
 70
     6
  9
$SURFU
 70
     6
  9
$SURFV
 70
     6
  9
$UCSNAME
  2

  9
$UCSORG
 10
0.0
 20
0.0
 30
0.0
  9
$UCSXDIR
 10
1.0
 20
0.0
 30
0.0
  9
$UCSYDIR
 10
0.0
 20
1.0
 30
0.0
  9
$PUCSNAME
  2

  9
$PUCSORG
 10
0.0
 20
0.0
 30
0.0
  9
$PUCSXDIR
 10
1.0
 20
0.0
 30
0.0
  9
$PUCSYDIR
 10
0.0
 20
1.0
 30
0.0
  9
$USERI1
 70
     0
  9
$USERI2
 70
     0
  9
$USERI3
 70
     0
  9
$USERI4
 70
     0
  9
$USERI5
 70
     0
  9
$USERR1
 40
0.0
  9
$USERR2
 40
0.0
  9
$USERR3
 40
0.0
  9
$USERR4
 40
0.0
  9
$USERR5
 40
0.0
  9
$WORLDVIEW
 70
     1
  9
$SHADEDGE
 70
     3
  9
$SHADEDIF
 70
    70
  9
$TILEMODE
 70
     1
  9
$MAXACTVP
 70
    64
  9
$PINSBASE
 10
0.0
 20
0.0
 30
0.0
  9
$PLIMCHECK
 70
     0
  9
$PEXTMIN
 10
1.000000000000000E+20
 20
1.000000000000000E+20
 30
1.000000000000000E+20
  9
$PEXTMAX
 10
-1.000000000000000E+20
 20
-1.000000000000000E+20
 30
-1.000000000000000E+20
  9
$PLIMMIN
 10
0.0
 20
0.0
  9
$PLIMMAX
 10
12.0
 20
9.0
  9
$UNITMODE
 70
     0
  9
$VISRETAIN
 70
     1
  9
$PLINEGEN
 70
     0
  9
$PSLTSCALE
 70
     1
  9
$TREEDEPTH
 70
  3020
  9
$PICKSTYLE
 70
     1
  9
$CMLSTYLE
  2
STANDARD
  9
$CMLJUST
 70
     0
  9
$CMLSCALE
 40
1.0
  9
$PROXYGRAPHICS
 70
     1
  9
$MEASUREMENT
 70
     0
  0
ENDSEC
  0
SECTION
  2
CLASSES
  0
CLASS
  1
ACDBDICTIONARYWDFLT
  2
AcDbDictionaryWithDefault
  3
ObjectDBX Classes
 90
        0
280
     0
281
     0
  0
CLASS
  1
VISUALSTYLE
  2
AcDbVisualStyle
  3
ObjectDBX Classes
 90
     4095
280
     0
281
     0
  0
CLASS
  1
XRECORD
  2
AcDbXrecord
  3
AutoCAD 2000
 90
        0
280
     0
281
     0
  0
CLASS
  1
LWPOLYLINE
  2
AcDbPolyline
  3
AutoCAD 2000
 90
        0
280
     0
281
     1
  0
CLASS
  1
HATCH
  2
AcDbHatch
  3
AutoCAD 2000
 90
        0
280
     0
281
     1
  0
CLASS
  1
ACDBPLACEHOLDER
  2
AcDbPlaceHolder
  3
ObjectDBX Classes
 90
        0
280
     0
281
     0
  0
CLASS
  1
LAYOUT
  2
AcDbLayout
  3
ObjectDBX Classes
 90
        0
280
     0
281
     0
  0
ENDSEC
  0
SECTION
  2
TABLES
  0
TABLE
  2
VPORT
  5
8
330
0
100
AcDbSymbolTable
 70
     1
  0
VPORT
  5
29
330
8
100
AcDbSymbolTableRecord
100
AcDbViewportTableRecord
  2
*ACTIVE
 70
     0
 10
0.0
 20
0.0
 11
1.0
 21
1.0
 12
0.0
 22
0.0
 13
0.0
 23
0.0
 14
0.5
 24
0.5
 15
0.5
 25
0.5
 16
0.0
 26
0.0
 36
1.0
 17
150.0544067007677
 27
-299.857235303725
 37
0.0
 40
599.7144706074499
 41
0.5004194964606332
 42
50.0
 43
0.0
 44
0.0
 50
0.0
 51
0.0
 71
     0
 72
   100
 73
     1
 74
     3
 75
     0
 76
     0
 77
     0
 78
     0
  0
ENDTAB
  0
TABLE
  2
LTYPE
  5
5
330
0
100
AcDbSymbolTable
 70
     1
  0
LTYPE
  5
14
330
5
100
AcDbSymbolTableRecord
100
AcDbLinetypeTableRecord
  2
BYBLOCK
 70
     0
  3

 72
    65
 73
     0
 40
0.0
  0
LTYPE
  5
15
330
5
100
AcDbSymbolTableRecord
100
AcDbLinetypeTableRecord
  2
BYLAYER
 70
     0
  3

 72
    65
 73
     0
 40
0.0
  0
LTYPE
  5
16
330
5
100
AcDbSymbolTableRecord
100
AcDbLinetypeTableRecord
  2
CONTINUOUS
 70
     0
  3
Solid line
 72
    65
 73
     0
 40
0.0
  0
ENDTAB
  0
TABLE
  2
LAYER
  5
2
330
0
100
AcDbSymbolTable
 70
     2
  0
LAYER
  5
10
330
2
100
AcDbSymbolTableRecord
100
AcDbLayerTableRecord
  2
0
 70
     0
 62
     7
  6
CONTINUOUS
  0
LAYER
  5
3B
330
2
100
AcDbSymbolTableRecord
100
AcDbLayerTableRecord
  2
LAYER_1
 70
     0
 62
     7
  6
CONTINUOUS
  0
ENDTAB
  0
TABLE
  2
STYLE
  5
3
330
0
100
AcDbSymbolTable
 70
     1
  0
STYLE
  5
11
330
3
100
AcDbSymbolTableRecord
100
AcDbTextStyleTableRecord
  2
STANDARD
 70
     0
 40
0.0
 41
1.0
 50
0.0
 71
     0
 42
0.2
  3
txt
  4

  0
ENDTAB
  0
TABLE
  2
VIEW
  5
6
330
0
100
AcDbSymbolTable
 70
     0
  0
ENDTAB
  0
TABLE
  2
UCS
  5
7
330
0
100
AcDbSymbolTable
 70
     0
  0
ENDTAB
  0
TABLE
  2
APPID
  5
9
330
0
100
AcDbSymbolTable
 70
     1
  0
APPID
  5
12
330
9
100
AcDbSymbolTableRecord
100
AcDbRegAppTableRecord
  2
ACAD
 70
     0
  0
ENDTAB
  0
TABLE
  2
DIMSTYLE
  5
A
330
0
100
AcDbSymbolTable
 70
     1
  0
DIMSTYLE
105
27
330
A
100
AcDbSymbolTableRecord
100
AcDbDimStyleTableRecord
  2
STANDARD
 70
     0
  3

  4

  5

  6

  7

 40
1.0
 41
0.18
 42
0.0625
 43
0.38
 44
0.18
 45
0.0
 46
0.0
 47
0.0
 48
0.0
140
0.18
141
0.09
142
0.0
143
25.4
144
1.0
145
0.0
146
1.0
147
0.09
 71
     0
 72
     0
 73
     1
 74
     1
 75
     0
 76
     0
 77
     0
 78
     0
170
     0
171
     2
172
     0
173
     0
174
     0
175
     0
176
     0
177
     0
178
     0
270
     2
271
     4
272
     4
273
     2
274
     2
340
11
275
     0
280
     0
281
     0
282
     0
283
     1
284
     0
285
     0
286
     0
287
     3
288
     0
  0
ENDTAB
  0
TABLE
  2
BLOCK_RECORD
  5
1
330
0
100
AcDbSymbolTable
 70
     2
  0
BLOCK_RECORD
  5
1F
330
1
100
AcDbSymbolTableRecord
100
AcDbBlockTableRecord
  2
*MODEL_SPACE
  0
BLOCK_RECORD
  5
1B
330
1
100
AcDbSymbolTableRecord
100
AcDbBlockTableRecord
  2
*PAPER_SPACE
  0
BLOCK_RECORD
  5
6C
330
1
100
AcDbSymbolTableRecord
100
AcDbBlockTableRecord
  2
BLOCK_2
  0
ENDTAB
  0
ENDSEC
  0
SECTION
  2
BLOCKS
  0
BLOCK
  5
20
330
1F
100
AcDbEntity
  8
0
100
AcDbBlockBegin
  2
*MODEL_SPACE
 70
     0
 71
     0
 10
0.0
 20
0.0
 30
0.0
  3
*MODEL_SPACE
  1

  0
ENDBLK
  5
21
330
1F
100
AcDbEntity
  8
0
100
AcDbBlockEnd
  0
BLOCK
  5
1C
330
1B
100
AcDbEntity
 67
     1
  8
0
100
AcDbBlockBegin
  2
*PAPER_SPACE
 70
     0
 71
     0
 10
0.0
 20
0.0
 30
0.0
  3
*PAPER_SPACE
  1

  0
ENDBLK
  5
1D
330
1B
100
AcDbEntity
 67
     1
  8
0
100
AcDbBlockEnd
  0
BLOCK
  5
6E
330
6C
100
AcDbEntity
  8
0
100
AcDbBlockBegin
  2
BLOCK_2
 70
     0
 71
     0
 10
0.0
 20
0.0
 30
0.0
  3
BLOCK_2
  1

  0
SPLINE
  5
70
330
6C
100
AcDbEntity
  8
LAYER_1
 62
   250
100
AcDbSpline
210
0.0
220
0.0
230
1.0
 70
    11
 71
     3
 72
    29
 73
    25
 74
     0
 42
0.0000000001
 43
0.0000000001
 40
0.0
 40
0.0
 40
0.0
 40
0.0
 40
1.0
 40
1.0
 40
1.0
 40
2.0
 40
2.0
 40
2.0
 40
3.0
 40
3.0
 40
3.0
 40
4.0
 40
4.0
 40
4.0
 40
5.0
 40
5.0
 40
5.0
 40
6.0
 40
6.0
 40
6.0
 40
7.0
 40
7.0
 40
7.0
 40
8.0
 40
8.0
 40
8.0
 40
8.0
 10
246.2519801901731
 20
-109.4648084578769
 30
0.0
 10
246.2519801901731
 20
-111.1215548767335
 30
0.0
 10
245.3562553640082
 20
-112.4651421159809
 30
0.0
 10
244.2517577514371
 20
-112.4651421159809
 30
0.0
 10
244.2517577514371
 20
-112.4651421159809
 30
0.0
 10
218.2516221242566
 20
-112.4651421159809
 30
0.0
 10
218.2516221242566
 20
-112.4651421159809
 30
0.0
 10
217.1471245116855
 20
-112.4651421159809
 30
0.0
 10
216.2520887046175
 20
-111.1215548767335
 30
0.0
 10
216.2520887046175
 20
-109.4648084578769
 30
0.0
 10
216.2520887046175
 20
-109.4648084578769
 30
0.0
 10
216.2520887046175
 20
-100.4648410122102
 30
0.0
 10
216.2520887046175
 20
-100.4648410122102
 30
0.0
 10
216.2520887046175
 20
-98.80809459335353
 30
0.0
 10
217.1471245116855
 20
-97.4645073541061
 30
0.0
 10
218.2516221242566
 20
-97.4645073541061
 30
0.0
 10
218.2516221242566
 20
-97.4645073541061
 30
0.0
 10
244.2517577514371
 20
-97.4645073541061
 30
0.0
 10
244.2517577514371
 20
-97.4645073541061
 30
0.0
 10
245.3562553640082
 20
-97.4645073541061
 30
0.0
 10
246.2519801901731
 20
-98.80809459335353
 30
0.0
 10
246.2519801901731
 20
-100.4648410122102
 30
0.0
 10
246.2519801901731
 20
-100.4648410122102
 30
0.0
 10
246.2519801901731
 20
-109.4648084578769
 30
0.0
 10
246.2519801901731
 20
-109.4648084578769
 30
0.0
  0
POLYLINE
  5
71
330
6C
100
AcDbEntity
  8
LAYER_1
 62
   250
100
AcDb2dPolyline
 66
     1
 10
0.0
 20
0.0
 30
0.0
  0
VERTEX
  5
72
330
71
100
AcDbEntity
  8
LAYER_1
 62
   250
100
AcDbVertex
100
AcDb2dVertex
 10
240.0018879608329
 20
-141.181735533281
 30
0.0
  0
VERTEX
  5
73
330
71
100
AcDbEntity
  8
LAYER_1
 62
   250
100
AcDbVertex
100
AcDb2dVertex
 10
240.0018879608329
 20
-141.181735533281
 30
0.0
  0
VERTEX
  5
74
330
71
100
AcDbEntity
  8
LAYER_1
 62
   250
100
AcDbVertex
100
AcDb2dVertex
 10
222.5021809339578
 20
-141.181735533281
 30
0.0
  0
VERTEX
  5
75
330
71
100
AcDbEntity
  8
LAYER_1
 62
   250
100
AcDbVertex
100
AcDb2dVertex
 10
222.5021809339578
 20
-141.181735533281
 30
0.0
  0
VERTEX
  5
76
330
71
100
AcDbEntity
  8
LAYER_1
 62
   250
100
AcDbVertex
100
AcDb2dVertex
 10
222.5021809339578
 20
-140.1819688234615
 30
0.0
  0
VERTEX
  5
77
330
71
100
AcDbEntity
  8
LAYER_1
 62
   250
100
AcDbVertex
100
AcDb2dVertex
 10
222.5021809339578
 20
-140.1819688234615
 30
0.0
  0
VERTEX
  5
78
330
71
100
AcDbEntity
  8
LAYER_1
 62
   250
100
AcDbVertex
100
AcDb2dVertex
 10
240.0018879608329
 20
-140.1819688234615
 30
0.0
  0
VERTEX
  5
79
330
71
100
AcDbEntity
  8
LAYER_1
 62
   250
100
AcDbVertex
100
AcDb2dVertex
 10
240.0018879608329
 20
-140.1819688234615
 30
0.0
  0
VERTEX
  5
7A
330
71
100
AcDbEntity
  8
LAYER_1
 62
   250
100
AcDbVertex
100
AcDb2dVertex
 10
240.0018879608329
 20
-141.181735533281
 30
0.0
  0
SEQEND
  5
7B
330
71
100
AcDbEntity
  8
LAYER_1
  0
SPLINE
  5
7C
330
6C
100
AcDbEntity
  8
LAYER_1
 62
   250
100
AcDbSpline
210
0.0
220
0.0
230
1.0
 70
    11
 71
     3
 72
    47
 73
    43
 74
     0
 42
0.0000000001
 43
0.0000000001
 40
0.0
 40
0.0
 40
0.0
 40
0.0
 40
1.0
 40
1.0
 40
1.0
 40
2.0
 40
2.0
 40
2.0
 40
3.0
 40
3.0
 40
3.0
 40
4.0
 40
4.0
 40
4.0
 40
5.0
 40
5.0
 40
5.0
 40
6.0
 40
6.0
 40
6.0
 40
7.0
 40
7.0
 40
7.0
 40
8.0
 40
8.0
 40
8.0
 40
9.0
 40
9.0
 40
9.0
 40
10.0
 40
10.0
 40
10.0
 40
11.0
 40
11.0
 40
11.0
 40
12.0
 40
12.0
 40
12.0
 40
13.0
 40
13.0
 40
13.0
 40
14.0
 40
14.0
 40
14.0
 40
14.0
 10
270.7886392552195
 20
-129.613104893812
 30
0.0
 10
270.7886392552195
 20
-123.7309488622964
 30
0.0
 10
266.7248046208188
 20
-118.8003282038069
 30
0.0
 10
261.2519259329509
 20
-117.4698323274034
 30
0.0
 10
261.2519259329509
 20
-117.4698323274034
 30
0.0
 10
261.2519259329509
 20
-116.4528401401576
 30
0.0
 10
261.2519259329509
 20
-116.4528401401576
 30
0.0
 10
261.2519259329509
 20
-116.4528401401576
 30
0.0
 10
261.2519259329509
 20
-104.6905951344176
 30
0.0
 10
261.2519259329509
 20
-104.6905951344176
 30
0.0
 10
261.2519259329509
 20
-99.1674180524651
 30
0.0
 10
256.7746798403202
 20
-94.6901719598344
 30
0.0
 10
251.2515027583677
 20
-94.6901719598344
 30
0.0
 10
251.2515027583677
 20
-94.6901719598344
 30
0.0
 10
211.2518771173259
 20
-94.6901719598344
 30
0.0
 10
211.2518771173259
 20
-94.6901719598344
 30
0.0
 10
205.7287000353734
 20
-94.6901719598344
 30
0.0
 10
201.2521429618398
 20
-99.1674180524651
 30
0.0
 10
201.2521429618398
 20
-104.6905951344176
 30
0.0
 10
201.2521429618398
 20
-104.6905951344176
 30
0.0
 10
201.2521429618398
 20
-136.977341003082
 30
0.0
 10
201.2521429618398
 20
-136.977341003082
 30
0.0
 10
201.2521429618398
 20
-136.977341003082
 30
0.0
 10
201.2521429618398
 20
-139.6903536977163
 30
0.0
 10
201.2521429618398
 20
-139.6903536977163
 30
0.0
 10
201.2521429618398
 20
-145.2131862701203
 30
0.0
 10
205.7287000353734
 20
-149.6906046175253
 30
0.0
 10
211.2518771173259
 20
-149.6906046175253
 30
0.0
 10
211.2518771173259
 20
-149.6906046175253
 30
0.0
 10
251.2515027583677
 20
-149.6906046175253
 30
0.0
 10
251.2515027583677
 20
-149.6906046175253
 30
0.0
 10
256.7746798403202
 20
-149.6906046175253
 30
0.0
 10
261.2519259329509
 20
-149.09391407948
 30
0.0
 10
261.2519259329509
 20
-143.5709092523017
 30
0.0
 10
261.2519259329509
 20
-143.5709092523017
 30
0.0
 10
261.2519259329509
 20
-142.2690076684258
 30
0.0
 10
261.2519259329509
 20
-142.2690076684258
 30
0.0
 10
261.2519259329509
 20
-142.2690076684258
 30
0.0
 10
261.2519259329509
 20
-141.7567219697692
 30
0.0
 10
261.2519259329509
 20
-141.7567219697692
 30
0.0
 10
266.7248046208188
 20
-140.4258815838172
 30
0.0
 10
270.7886392552195
 20
-135.4956054348761
 30
0.0
 10
270.7886392552195
 20
-129.613104893812
 30
0.0
  0
SPLINE
  5
7D
330
6C
100
AcDbEntity
  8
LAYER_1
 62
   250
100
AcDbSpline
210
0.0
220
0.0
230
1.0
 70
    11
 71
     3
 72
   122
 73
   118
 74
     0
 42
0.0000000001
 43
0.0000000001
 40
0.0
 40
0.0
 40
0.0
 40
0.0
 40
1.0
 40
1.0
 40
1.0
 40
2.0
 40
2.0
 40
2.0
 40
3.0
 40
3.0
 40
3.0
 40
4.0
 40
4.0
 40
4.0
 40
5.0
 40
5.0
 40
5.0
 40
6.0
 40
6.0
 40
6.0
 40
7.0
 40
7.0
 40
7.0
 40
8.0
 40
8.0
 40
8.0
 40
9.0
 40
9.0
 40
9.0
 40
10.0
 40
10.0
 40
10.0
 40
11.0
 40
11.0
 40
11.0
 40
12.0
 40
12.0
 40
12.0
 40
13.0
 40
13.0
 40
13.0
 40
14.0
 40
14.0
 40
14.0
 40
15.0
 40
15.0
 40
15.0
 40
16.0
 40
16.0
 40
16.0
 40
17.0
 40
17.0
 40
17.0
 40
18.0
 40
18.0
 40
18.0
 40
19.0
 40
19.0
 40
19.0
 40
20.0
 40
20.0
 40
20.0
 40
21.0
 40
21.0
 40
21.0
 40
22.0
 40
22.0
 40
22.0
 40
23.0
 40
23.0
 40
23.0
 40
24.0
 40
24.0
 40
24.0
 40
25.0
 40
25.0
 40
25.0
 40
26.0
 40
26.0
 40
26.0
 40
27.0
 40
27.0
 40
27.0
 40
28.0
 40
28.0
 40
28.0
 40
29.0
 40
29.0
 40
29.0
 40
30.0
 40
30.0
 40
30.0
 40
31.0
 40
31.0
 40
31.0
 40
32.0
 40
32.0
 40
32.0
 40
33.0
 40
33.0
 40
33.0
 40
34.0
 40
34.0
 40
34.0
 40
35.0
 40
35.0
 40
35.0
 40
36.0
 40
36.0
 40
36.0
 40
37.0
 40
37.0
 40
37.0
 40
38.0
 40
38.0
 40
38.0
 40
39.0
 40
39.0
 40
39.0
 40
39.0
 10
244.7809244179714
 20
-127.9353433924953
 30
0.0
 10
244.7657659978364
 20
-127.9353433924953
 30
0.0
 10
244.7519856158953
 20
-127.9394775070776
 30
0.0
 10
244.7368271957602
 20
-127.9401665261747
 30
0.0
 10
244.7368271957602
 20
-127.9401665261747
 30
0.0
 10
244.7368271957602
 20
-127.9353433924953
 30
0.0
 10
244.7368271957602
 20
-127.9353433924953
 30
0.0
 10
244.7368271957602
 20
-127.9353433924953
 30
0.0
 10
239.3473198186354
 20
-127.9353433924953
 30
0.0
 10
239.3473198186354
 20
-127.9353433924953
 30
0.0
 10
239.3542100096059
 20
-127.8802218647313
 30
0.0
 10
239.3638562769646
 20
-127.8257893560644
 30
0.0
 10
239.3638562769646
 20
-127.7689452805578
 30
0.0
 10
239.3638562769646
 20
-127.0099907451572
 30
0.0
 10
238.748562223299
 20
-126.3940076723946
 30
0.0
 10
237.9892631783499
 20
-126.3940076723946
 30
0.0
 10
237.9300075360036
 20
-126.3940076723946
 30
0.0
 10
237.8741969891426
 20
-126.4043429588503
 30
0.0
 10
237.8170084040874
 20
-126.4115776593693
 30
0.0
 10
237.8170084040874
 20
-126.4115776593693
 30
0.0
 10
237.8170084040874
 20
-126.3940076723946
 30
0.0
 10
237.8170084040874
 20
-126.3940076723946
 30
0.0
 10
237.8170084040874
 20
-126.3940076723946
 30
0.0
 10
235.7409938646759
 20
-126.3940076723946
 30
0.0
 10
235.7409938646759
 20
-126.3940076723946
 30
0.0
 10
235.7409938646759
 20
-126.3940076723946
 30
0.0
 10
235.7409938646759
 20
-127.2759521166185
 30
0.0
 10
235.7409938646759
 20
-127.2759521166185
 30
0.0
 10
235.7409938646759
 20
-127.2759521166185
 30
0.0
 10
234.5062716427623
 20
-127.2759521166185
 30
0.0
 10
234.5062716427623
 20
-127.2759521166185
 30
0.0
 10
234.5062716427623
 20
-127.2759521166185
 30
0.0
 10
231.5076605324009
 20
-127.2759521166185
 30
0.0
 10
231.5076605324009
 20
-127.2759521166185
 30
0.0
 10
231.5076605324009
 20
-127.2759521166185
 30
0.0
 10
231.0666883102889
 20
-127.3641465610409
 30
0.0
 10
231.0666883102889
 20
-127.3641465610409
 30
0.0
 10
231.0666883102889
 20
-127.3641465610409
 30
0.0
 10
230.6257160881769
 20
-127.4523410054633
 30
0.0
 10
230.6257160881769
 20
-127.4523410054633
 30
0.0
 10
230.6257160881769
 20
-127.4523410054633
 30
0.0
 10
230.2729383104873
 20
-127.6287298943081
 30
0.0
 10
230.2729383104873
 20
-127.6287298943081
 30
0.0
 10
230.2729383104873
 20
-127.6287298943081
 30
0.0
 10
229.9201605327978
 20
-127.9815076719977
 30
0.0
 10
229.9201605327978
 20
-127.9815076719977
 30
0.0
 10
229.9201605327978
 20
-127.9815076719977
 30
0.0
 10
229.6555771995306
 20
-128.2460910052649
 30
0.0
 10
229.6555771995306
 20
-128.2460910052649
 30
0.0
 10
229.6555771995306
 20
-128.2460910052649
 30
0.0
 10
229.4791883106858
 20
-128.6870632273769
 30
0.0
 10
229.4791883106858
 20
-128.6870632273769
 30
0.0
 10
229.4791883106858
 20
-128.6870632273769
 30
0.0
 10
229.302799421841
 20
-129.0398410050664
 30
0.0
 10
229.302799421841
 20
-129.0398410050664
 30
0.0
 10
229.302799421841
 20
-129.0398410050664
 30
0.0
 10
229.302799421841
 20
-129.5690076716008
 30
0.0
 10
229.302799421841
 20
-129.5690076716008
 30
0.0
 10
229.302799421841
 20
-129.5690076716008
 30
0.0
 10
229.302799421841
 20
-130.0099798937128
 30
0.0
 10
229.302799421841
 20
-130.0099798937128
 30
0.0
 10
229.302799421841
 20
-130.0099798937128
 30
0.0
 10
229.4791883106858
 20
-130.4509521158248
 30
0.0
 10
229.4791883106858
 20
-130.4509521158248
 30
0.0
 10
229.4791883106858
 20
-130.4509521158248
 30
0.0
 10
229.6555771995306
 20
-130.8037298935143
 30
0.0
 10
229.6555771995306
 20
-130.8037298935143
 30
0.0
 10
229.6555771995306
 20
-130.8037298935143
 30
0.0
 10
229.9201605327978
 20
-131.1565076712039
 30
0.0
 10
229.9201605327978
 20
-131.1565076712039
 30
0.0
 10
229.9201605327978
 20
-131.1565076712039
 30
0.0
 10
230.2729383104873
 20
-131.4210910044711
 30
0.0
 10
230.2729383104873
 20
-131.4210910044711
 30
0.0
 10
230.2729383104873
 20
-131.4210910044711
 30
0.0
 10
230.6257160881769
 20
-131.5974798933159
 30
0.0
 10
230.6257160881769
 20
-131.5974798933159
 30
0.0
 10
230.6257160881769
 20
-131.5974798933159
 30
0.0
 10
231.0666883102889
 20
-131.7738687821607
 30
0.0
 10
231.0666883102889
 20
-131.7738687821607
 30
0.0
 10
231.0666883102889
 20
-131.7738687821607
 30
0.0
 10
231.5076605324009
 20
-131.7738687821607
 30
0.0
 10
231.5076605324009
 20
-131.7738687821607
 30
0.0
 10
231.5076605324009
 20
-131.7738687821607
 30
0.0
 10
234.5062716427623
 20
-131.7738687821607
 30
0.0
 10
234.5062716427623
 20
-131.7738687821607
 30
0.0
 10
234.5062716427623
 20
-131.7738687821607
 30
0.0
 10
235.7409938646759
 20
-131.7738687821607
 30
0.0
 10
235.7409938646759
 20
-131.7738687821607
 30
0.0
 10
235.7409938646759
 20
-131.7738687821607
 30
0.0
 10
235.7409938646759
 20
-132.8322021152294
 30
0.0
 10
235.7409938646759
 20
-132.8322021152294
 30
0.0
 10
235.7409938646759
 20
-132.8322021152294
 30
0.0
 10
237.8170084040874
 20
-132.8322021152294
 30
0.0
 10
237.8170084040874
 20
-132.8322021152294
 30
0.0
 10
237.8170084040874
 20
-132.8322021152294
 30
0.0
 10
237.8170084040874
 20
-132.8270344720016
 30
0.0
 10
237.8170084040874
 20
-132.8270344720016
 30
0.0
 10
238.5515027615427
 20
-132.7991291985711
 30
0.0
 10
239.1392360513263
 20
-132.1989935650405
 30
0.0
 10
239.1392360513263
 20
-131.4576090166148
 30
0.0
 10
239.1392360513263
 20
-131.4293592336357
 30
0.0
 10
239.1330348794529
 20
-131.4031765079478
 30
0.0
 10
239.1309678221617
 20
-131.3756157440658
 30
0.0
 10
239.1309678221617
 20
-131.3756157440658
 30
0.0
 10
244.7368271957602
 20
-131.3756157440658
 30
0.0
 10
244.7368271957602
 20
-131.3756157440658
 30
0.0
 10
244.7368271957602
 20
-131.3756157440658
 30
0.0
 10
244.7368271957602
 20
-131.3707926103865
 30
0.0
 10
244.7368271957602
 20
-131.3707926103865
 30
0.0
 10
244.7519856158953
 20
-131.3714816294835
 30
0.0
 10
244.7657659978364
 20
-131.3756157440658
 30
0.0
 10
244.7809244179714
 20
-131.3756157440658
 30
0.0
 10
245.7310817528034
 20
-131.3756157440658
 30
0.0
 10
246.5007160842082
 20
-130.605292393564
 30
0.0
 10
246.5007160842082
 20
-129.6554795682806
 30
0.0
 10
246.5007160842082
 20
-128.7056667429972
 30
0.0
 10
245.7310817528034
 20
-127.9353433924953
 30
0.0
 10
244.7809244179714
 20
-127.9353433924953
 30
0.0
  0
ENDBLK
  5
6F
330
6C
100
AcDbEntity
  8
0
100
AcDbBlockEnd
  0
ENDSEC
  0
SECTION
  2
ENTITIES
  0
SPLINE
  5
3C
330
1F
100
AcDbEntity
  8
LAYER_1
 62
   250
100
AcDbSpline
210
0.0
220
0.0
230
1.0
 70
    11
 71
     3
 72
    29
 73
    25
 74
     0
 42
0.0000000001
 43
0.0000000001
 40
0.0
 40
0.0
 40
0.0
 40
0.0
 40
1.0
 40
1.0
 40
1.0
 40
2.0
 40
2.0
 40
2.0
 40
3.0
 40
3.0
 40
3.0
 40
4.0
 40
4.0
 40
4.0
 40
5.0
 40
5.0
 40
5.0
 40
6.0
 40
6.0
 40
6.0
 40
7.0
 40
7.0
 40
7.0
 40
8.0
 40
8.0
 40
8.0
 40
8.0
 10
72.60263127525212
 20
-102.6051065824216
 30
0.0
 10
72.60263127525212
 20
-105.4204386129678
 30
0.0
 10
70.30681964388164
 20
-107.7031588814944
 30
0.0
 10
67.47426213590921
 20
-107.7031588814944
 30
0.0
 10
67.47426213590921
 20
-107.7031588814944
 30
0.0
 10
37.73068575445622
 20
-107.7031588814944
 30
0.0
 10
37.73068575445622
 20
-107.7031588814944
 30
0.0
 10
34.89847275603233
 20
-107.7031588814944
 30
0.0
 10
32.60231661511331
 20
-105.4204386129678
 30
0.0
 10
32.60231661511331
 20
-102.6051065824216
 30
0.0
 10
32.60231661511331
 20
-102.6051065824216
 30
0.0
 10
32.60231661511331
 20
-60.80093992620602
 30
0.0
 10
32.60231661511331
 20
-60.80093992620602
 30
0.0
 10
32.60231661511331
 20
-57.98560789565985
 30
0.0
 10
34.89847275603233
 20
-55.70288762713331
 30
0.0
 10
37.73068575445622
 20
-55.70288762713331
 30
0.0
 10
37.73068575445622
 20
-55.70288762713331
 30
0.0
 10
67.47426213590921
 20
-55.70288762713331
 30
0.0
 10
67.47426213590921
 20
-55.70288762713331
 30
0.0
 10
70.30681964388164
 20
-55.70288762713331
 30
0.0
 10
72.60263127525212
 20
-57.98560789565985
 30
0.0
 10
72.60263127525212
 20
-60.80093992620602
 30
0.0
 10
72.60263127525212
 20
-60.80093992620602
 30
0.0
 10
72.60263127525212
 20
-102.6051065824216
 30
0.0
 10
72.60263127525212
 20
-102.6051065824216
 30
0.0
  0
SPLINE
  5
3D
330
1F
100
AcDbEntity
  8
LAYER_1
 62
   250
100
AcDbSpline
210
0.0
220
0.0
230
1.0
 70
    11
 71
     3
 72
    29
 73
    25
 74
     0
 42
0.0000000001
 43
0.0000000001
 40
0.0
 40
0.0
 40
0.0
 40
0.0
 40
1.0
 40
1.0
 40
1.0
 40
2.0
 40
2.0
 40
2.0
 40
3.0
 40
3.0
 40
3.0
 40
4.0
 40
4.0
 40
4.0
 40
5.0
 40
5.0
 40
5.0
 40
6.0
 40
6.0
 40
6.0
 40
7.0
 40
7.0
 40
7.0
 40
8.0
 40
8.0
 40
8.0
 40
8.0
 10
154.682375720878
 20
-26.76219074851779
 30
0.0
 10
163.3457573376358
 20
-26.76219074851779
 30
0.0
 10
170.3689289938661
 20
-33.0689547985904
 30
0.0
 10
170.3689289938661
 20
-40.84987520680142
 30
0.0
 10
170.3689289938661
 20
-40.84987520680142
 30
0.0
 10
170.3689289938661
 20
-122.556688066149
 30
0.0
 10
170.3689289938661
 20
-122.556688066149
 30
0.0
 10
170.3689289938661
 20
-130.3362304361659
 30
0.0
 10
163.3457573376358
 20
-136.6438557601099
 30
0.0
 10
154.682375720878
 20
-136.6438557601099
 30
0.0
 10
154.682375720878
 20
-136.6438557601099
 30
0.0
 10
26.05525715494452
 20
-136.6438557601099
 30
0.0
 10
26.05525715494452
 20
-136.6438557601099
 30
0.0
 10
17.39187553818675
 20
-136.6438557601099
 30
0.0
 10
10.36870388195643
 20
-130.3362304361659
 30
0.0
 10
10.36870388195643
 20
-122.556688066149
 30
0.0
 10
10.36870388195643
 20
-122.556688066149
 30
0.0
 10
10.36870388195643
 20
-40.84987520680142
 30
0.0
 10
10.36870388195643
 20
-40.84987520680142
 30
0.0
 10
10.36870388195643
 20
-33.0689547985904
 30
0.0
 10
17.39187553818675
 20
-26.76219074851779
 30
0.0
 10
26.05525715494452
 20
-26.76219074851779
 30
0.0
 10
26.05525715494452
 20
-26.76219074851779
 30
0.0
 10
154.682375720878
 20
-26.76219074851779
 30
0.0
 10
154.682375720878
 20
-26.76219074851779
 30
0.0
  0
SPLINE
  5
3E
330
1F
100
AcDbEntity
  8
LAYER_1
 62
   250
100
AcDbSpline
210
0.0
220
0.0
230
1.0
 70
     8
 71
     3
 72
   257
 73
   253
 74
     0
 42
0.0000000001
 43
0.0000000001
 40
0.0
 40
0.0
 40
0.0
 40
0.0
 40
1.0
 40
1.0
 40
1.0
 40
2.0
 40
2.0
 40
2.0
 40
3.0
 40
3.0
 40
3.0
 40
4.0
 40
4.0
 40
4.0
 40
5.0
 40
5.0
 40
5.0
 40
6.0
 40
6.0
 40
6.0
 40
7.0
 40
7.0
 40
7.0
 40
8.0
 40
8.0
 40
8.0
 40
9.0
 40
9.0
 40
9.0
 40
10.0
 40
10.0
 40
10.0
 40
11.0
 40
11.0
 40
11.0
 40
12.0
 40
12.0
 40
12.0
 40
13.0
 40
13.0
 40
13.0
 40
14.0
 40
14.0
 40
14.0
 40
15.0
 40
15.0
 40
15.0
 40
16.0
 40
16.0
 40
16.0
 40
17.0
 40
17.0
 40
17.0
 40
18.0
 40
18.0
 40
18.0
 40
19.0
 40
19.0
 40
19.0
 40
20.0
 40
20.0
 40
20.0
 40
21.0
 40
21.0
 40
21.0
 40
22.0
 40
22.0
 40
22.0
 40
23.0
 40
23.0
 40
23.0
 40
24.0
 40
24.0
 40
24.0
 40
25.0
 40
25.0
 40
25.0
 40
26.0
 40
26.0
 40
26.0
 40
27.0
 40
27.0
 40
27.0
 40
28.0
 40
28.0
 40
28.0
 40
29.0
 40
29.0
 40
29.0
 40
30.0
 40
30.0
 40
30.0
 40
31.0
 40
31.0
 40
31.0
 40
32.0
 40
32.0
 40
32.0
 40
33.0
 40
33.0
 40
33.0
 40
34.0
 40
34.0
 40
34.0
 40
35.0
 40
35.0
 40
35.0
 40
36.0
 40
36.0
 40
36.0
 40
37.0
 40
37.0
 40
37.0
 40
38.0
 40
38.0
 40
38.0
 40
39.0
 40
39.0
 40
39.0
 40
40.0
 40
40.0
 40
40.0
 40
41.0
 40
41.0
 40
41.0
 40
42.0
 40
42.0
 40
42.0
 40
43.0
 40
43.0
 40
43.0
 40
44.0
 40
44.0
 40
44.0
 40
45.0
 40
45.0
 40
45.0
 40
46.0
 40
46.0
 40
46.0
 40
47.0
 40
47.0
 40
47.0
 40
48.0
 40
48.0
 40
48.0
 40
49.0
 40
49.0
 40
49.0
 40
50.0
 40
50.0
 40
50.0
 40
51.0
 40
51.0
 40
51.0
 40
52.0
 40
52.0
 40
52.0
 40
53.0
 40
53.0
 40
53.0
 40
54.0
 40
54.0
 40
54.0
 40
55.0
 40
55.0
 40
55.0
 40
56.0
 40
56.0
 40
56.0
 40
57.0
 40
57.0
 40
57.0
 40
58.0
 40
58.0
 40
58.0
 40
59.0
 40
59.0
 40
59.0
 40
60.0
 40
60.0
 40
60.0
 40
61.0
 40
61.0
 40
61.0
 40
62.0
 40
62.0
 40
62.0
 40
63.0
 40
63.0
 40
63.0
 40
64.0
 40
64.0
 40
64.0
 40
65.0
 40
65.0
 40
65.0
 40
66.0
 40
66.0
 40
66.0
 40
67.0
 40
67.0
 40
67.0
 40
68.0
 40
68.0
 40
68.0
 40
69.0
 40
69.0
 40
69.0
 40
70.0
 40
70.0
 40
70.0
 40
71.0
 40
71.0
 40
71.0
 40
72.0
 40
72.0
 40
72.0
 40
73.0
 40
73.0
 40
73.0
 40
74.0
 40
74.0
 40
74.0
 40
75.0
 40
75.0
 40
75.0
 40
76.0
 40
76.0
 40
76.0
 40
77.0
 40
77.0
 40
77.0
 40
78.0
 40
78.0
 40
78.0
 40
79.0
 40
79.0
 40
79.0
 40
80.0
 40
80.0
 40
80.0
 40
81.0
 40
81.0
 40
81.0
 40
82.0
 40
82.0
 40
82.0
 40
83.0
 40
83.0
 40
83.0
 40
84.0
 40
84.0
 40
84.0
 40
84.0
 10
238.4161105089724
 20
-66.62676864653776
 30
0.0
 10
238.4161105089724
 20
-66.62676864653776
 30
0.0
 10
238.4161105089724
 20
-66.62676864653776
 30
0.0
 10
238.4161105089724
 20
-66.62676864653776
 30
0.0
 10
238.4161105089724
 20
-66.62676864653776
 30
0.0
 10
238.4161105089724
 20
-66.62676864653776
 30
0.0
 10
238.4161105089724
 20
-66.62676864653776
 30
0.0
 10
238.4161105089724
 20
-66.62676864653776
 30
0.0
 10
245.2952771739193
 20
-66.62676864653776
 30
0.0
 10
245.2952771739193
 20
-66.62676864653776
 30
0.0
 10
245.2952771739193
 20
-66.62676864653776
 30
0.0
 10
245.2952771739193
 20
-66.62676864653776
 30
0.0
 10
245.2952771739193
 20
-66.62676864653776
 30
0.0
 10
245.2952771739193
 20
-66.62676864653776
 30
0.0
 10
245.3834716183416
 20
-67.42051864633932
 30
0.0
 10
245.3834716183416
 20
-67.42051864633932
 30
0.0
 10
245.3834716183416
 20
-67.42051864633932
 30
0.0
 10
245.5598605071864
 20
-68.30246309056328
 30
0.0
 10
245.5598605071864
 20
-68.30246309056328
 30
0.0
 10
245.5598605071864
 20
-68.30246309056328
 30
0.0
 10
245.8244438404536
 20
-69.00801864594244
 30
0.0
 10
245.8244438404536
 20
-69.00801864594244
 30
0.0
 10
245.8244438404536
 20
-69.00801864594244
 30
0.0
 10
246.0890271737208
 20
-69.801768645744
 30
0.0
 10
246.0890271737208
 20
-69.801768645744
 30
0.0
 10
246.0890271737208
 20
-69.801768645744
 30
0.0
 10
246.4418049514104
 20
-70.50732420112317
 30
0.0
 10
246.4418049514104
 20
-70.50732420112317
 30
0.0
 10
246.4418049514104
 20
-70.50732420112317
 30
0.0
 10
246.7945827291
 20
-71.21287975650233
 30
0.0
 10
246.7945827291
 20
-71.21287975650233
 30
0.0
 10
246.7945827291
 20
-71.21287975650233
 30
0.0
 10
247.235554951212
 20
-71.83024086745911
 30
0.0
 10
247.235554951212
 20
-71.83024086745911
 30
0.0
 10
247.235554951212
 20
-71.83024086745911
 30
0.0
 10
247.7647216177463
 20
-72.44760197841588
 30
0.0
 10
247.7647216177463
 20
-72.44760197841588
 30
0.0
 10
247.7647216177463
 20
-72.44760197841588
 30
0.0
 10
248.2938882842807
 20
-73.06496308937265
 30
0.0
 10
248.2938882842807
 20
-73.06496308937265
 30
0.0
 10
248.2938882842807
 20
-73.06496308937265
 30
0.0
 10
248.8230549508151
 20
-73.59412975590703
 30
0.0
 10
248.8230549508151
 20
-73.59412975590703
 30
0.0
 10
248.8230549508151
 20
-73.59412975590703
 30
0.0
 10
249.4404160617719
 20
-74.035101978019
 30
0.0
 10
249.4404160617719
 20
-74.035101978019
 30
0.0
 10
249.4404160617719
 20
-74.035101978019
 30
0.0
 10
250.145971617151
 20
-74.47607420013098
 30
0.0
 10
250.145971617151
 20
-74.47607420013098
 30
0.0
 10
250.145971617151
 20
-74.47607420013098
 30
0.0
 10
250.7633327281078
 20
-74.91704642224296
 30
0.0
 10
250.7633327281078
 20
-74.91704642224296
 30
0.0
 10
250.7633327281078
 20
-74.91704642224296
 30
0.0
 10
251.5570827279093
 20
-75.18162975551016
 30
0.0
 10
251.5570827279093
 20
-75.18162975551016
 30
0.0
 10
251.5570827279093
 20
-75.18162975551016
 30
0.0
 10
252.2626382832885
 20
-75.44621308877734
 30
0.0
 10
252.2626382832885
 20
-75.44621308877734
 30
0.0
 10
252.2626382832885
 20
-75.44621308877734
 30
0.0
 10
253.0563882830901
 20
-75.71079642204452
 30
0.0
 10
253.0563882830901
 20
-75.71079642204452
 30
0.0
 10
253.0563882830901
 20
-75.71079642204452
 30
0.0
 10
253.0563882830901
 20
-75.71079642204452
 30
0.0
 10
253.0563882830901
 20
-75.71079642204452
 30
0.0
 10
253.0563882830901
 20
-75.71079642204452
 30
0.0
 10
254.4674993938484
 20
-75.88718531088932
 30
0.0
 10
254.4674993938484
 20
-75.88718531088932
 30
0.0
 10
254.4674993938484
 20
-75.88718531088932
 30
0.0
 10
254.4674993938484
 20
-75.88718531088932
 30
0.0
 10
254.4674993938484
 20
-75.88718531088932
 30
0.0
 10
254.4674993938484
 20
-75.88718531088932
 30
0.0
 10
255.5258327269172
 20
-75.97537975531172
 30
0.0
 10
255.5258327269172
 20
-75.97537975531172
 30
0.0
 10
255.5258327269172
 20
-75.97537975531172
 30
0.0
 10
256.2313882822963
 20
-75.88718531088932
 30
0.0
 10
256.2313882822963
 20
-75.88718531088932
 30
0.0
 10
256.2313882822963
 20
-75.88718531088932
 30
0.0
 10
256.2313882822963
 20
-75.88718531088932
 30
0.0
 10
256.2313882822963
 20
-75.88718531088932
 30
0.0
 10
256.2313882822963
 20
-75.88718531088932
 30
0.0
 10
257.2015271709427
 20
-75.79899086646692
 30
0.0
 10
257.2015271709427
 20
-75.79899086646692
 30
0.0
 10
257.2015271709427
 20
-75.79899086646692
 30
0.0
 10
258.0834716151666
 20
-75.53440753319974
 30
0.0
 10
258.0834716151666
 20
-75.53440753319974
 30
0.0
 10
258.0834716151666
 20
-75.53440753319974
 30
0.0
 10
258.9654160593906
 20
-75.26982419993254
 30
0.0
 10
258.9654160593906
 20
-75.26982419993254
 30
0.0
 10
258.9654160593906
 20
-75.26982419993254
 30
0.0
 10
259.8473605036145
 20
-74.91704642224296
 30
0.0
 10
259.8473605036145
 20
-74.91704642224296
 30
0.0
 10
259.8473605036145
 20
-74.91704642224296
 30
0.0
 10
260.6411105034161
 20
-74.47607420013098
 30
0.0
 10
260.6411105034161
 20
-74.47607420013098
 30
0.0
 10
260.6411105034161
 20
-74.47607420013098
 30
0.0
 10
261.3466660587953
 20
-73.94690753359662
 30
0.0
 10
261.3466660587953
 20
-73.94690753359662
 30
0.0
 10
261.3466660587953
 20
-73.94690753359662
 30
0.0
 10
262.0522216141745
 20
-73.32954642263984
 30
0.0
 10
262.0522216141745
 20
-73.32954642263984
 30
0.0
 10
262.0522216141745
 20
-73.32954642263984
 30
0.0
 10
262.6695827251312
 20
-72.71218531168307
 30
0.0
 10
262.6695827251312
 20
-72.71218531168307
 30
0.0
 10
262.6695827251312
 20
-72.71218531168307
 30
0.0
 10
263.286943836088
 20
-72.0066297563039
 30
0.0
 10
263.286943836088
 20
-72.0066297563039
 30
0.0
 10
263.286943836088
 20
-72.0066297563039
 30
0.0
 10
263.8161105026224
 20
-71.30107420092473
 30
0.0
 10
263.8161105026224
 20
-71.30107420092473
 30
0.0
 10
263.8161105026224
 20
-71.30107420092473
 30
0.0
 10
264.2570827247343
 20
-70.50732420112317
 30
0.0
 10
264.2570827247343
 20
-70.50732420112317
 30
0.0
 10
264.2570827247343
 20
-70.50732420112317
 30
0.0
 10
264.6098605024239
 20
-69.6253797568992
 30
0.0
 10
264.6098605024239
 20
-69.6253797568992
 30
0.0
 10
264.6098605024239
 20
-69.6253797568992
 30
0.0
 10
264.9626382801135
 20
-68.74343531267526
 30
0.0
 10
264.9626382801135
 20
-68.74343531267526
 30
0.0
 10
264.9626382801135
 20
-68.74343531267526
 30
0.0
 10
265.1390271689583
 20
-67.8614908684513
 30
0.0
 10
265.1390271689583
 20
-67.8614908684513
 30
0.0
 10
265.1390271689583
 20
-67.8614908684513
 30
0.0
 10
265.3154160578031
 20
-66.89135197980494
 30
0.0
 10
265.3154160578031
 20
-66.89135197980494
 30
0.0
 10
265.3154160578031
 20
-66.89135197980494
 30
0.0
 10
265.3154160578031
 20
-65.92121309115859
 30
0.0
 10
265.3154160578031
 20
-65.92121309115859
 30
0.0
 10
265.3154160578031
 20
-65.92121309115859
 30
0.0
 10
265.3154160578031
 20
-65.92121309115859
 30
0.0
 10
265.3154160578031
 20
-65.92121309115859
 30
0.0
 10
265.3154160578031
 20
-65.92121309115859
 30
0.0
 10
265.3154160578031
 20
-64.95107420251223
 30
0.0
 10
265.3154160578031
 20
-64.95107420251223
 30
0.0
 10
265.3154160578031
 20
-64.95107420251223
 30
0.0
 10
265.1390271689583
 20
-64.06912975828827
 30
0.0
 10
265.1390271689583
 20
-64.06912975828827
 30
0.0
 10
265.1390271689583
 20
-64.06912975828827
 30
0.0
 10
264.9626382801135
 20
-63.18718531406432
 30
0.0
 10
264.9626382801135
 20
-63.18718531406432
 30
0.0
 10
264.9626382801135
 20
-63.18718531406432
 30
0.0
 10
264.6098605024239
 20
-62.30524086984036
 30
0.0
 10
264.6098605024239
 20
-62.30524086984036
 30
0.0
 10
264.6098605024239
 20
-62.30524086984036
 30
0.0
 10
264.2570827247343
 20
-61.4232964256164
 30
0.0
 10
264.2570827247343
 20
-61.4232964256164
 30
0.0
 10
264.2570827247343
 20
-61.4232964256164
 30
0.0
 10
263.8161105026224
 20
-60.62954642581484
 30
0.0
 10
263.8161105026224
 20
-60.62954642581484
 30
0.0
 10
263.8161105026224
 20
-60.62954642581484
 30
0.0
 10
263.286943836088
 20
-59.92399087043567
 30
0.0
 10
263.286943836088
 20
-59.92399087043567
 30
0.0
 10
263.286943836088
 20
-59.92399087043567
 30
0.0
 10
262.7577771695536
 20
-59.2184353150565
 30
0.0
 10
262.7577771695536
 20
-59.2184353150565
 30
0.0
 10
262.7577771695536
 20
-59.2184353150565
 30
0.0
 10
262.0522216141745
 20
-58.60107420409973
 30
0.0
 10
262.0522216141745
 20
-58.60107420409973
 30
0.0
 10
262.0522216141745
 20
-58.60107420409973
 30
0.0
 10
261.4348605032177
 20
-57.98371309314296
 30
0.0
 10
261.4348605032177
 20
-57.98371309314296
 30
0.0
 10
261.4348605032177
 20
-57.98371309314296
 30
0.0
 10
260.6411105034161
 20
-57.45454642660859
 30
0.0
 10
260.6411105034161
 20
-57.45454642660859
 30
0.0
 10
260.6411105034161
 20
-57.45454642660859
 30
0.0
 10
259.8473605036145
 20
-57.01357420449661
 30
0.0
 10
259.8473605036145
 20
-57.01357420449661
 30
0.0
 10
259.8473605036145
 20
-57.01357420449661
 30
0.0
 10
259.053610503813
 20
-56.66079642680702
 30
0.0
 10
259.053610503813
 20
-56.66079642680702
 30
0.0
 10
259.053610503813
 20
-56.66079642680702
 30
0.0
 10
258.171666059589
 20
-56.39621309353983
 30
0.0
 10
258.171666059589
 20
-56.39621309353983
 30
0.0
 10
258.171666059589
 20
-56.39621309353983
 30
0.0
 10
257.2897216153651
 20
-56.13162976027265
 30
0.0
 10
257.2897216153651
 20
-56.13162976027265
 30
0.0
 10
257.2897216153651
 20
-56.13162976027265
 30
0.0
 10
256.3195827267187
 20
-55.95524087142786
 30
0.0
 10
256.3195827267187
 20
-55.95524087142786
 30
0.0
 10
256.3195827267187
 20
-55.95524087142786
 30
0.0
 10
256.3195827267187
 20
-55.95524087142786
 30
0.0
 10
256.3195827267187
 20
-55.95524087142786
 30
0.0
 10
256.3195827267187
 20
-55.95524087142786
 30
0.0
 10
254.7320827271156
 20
-56.04343531585025
 30
0.0
 10
254.7320827271156
 20
-56.04343531585025
 30
0.0
 10
254.7320827271156
 20
-56.04343531585025
 30
0.0
 10
254.7320827271156
 20
-56.04343531585025
 30
0.0
 10
254.7320827271156
 20
-56.04343531585025
 30
0.0
 10
254.7320827271156
 20
-56.04343531585025
 30
0.0
 10
253.3209716163573
 20
-56.13162976027265
 30
0.0
 10
253.3209716163573
 20
-56.13162976027265
 30
0.0
 10
253.3209716163573
 20
-56.13162976027265
 30
0.0
 10
252.8799993942453
 20
-56.21982420469504
 30
0.0
 10
252.8799993942453
 20
-56.21982420469504
 30
0.0
 10
252.8799993942453
 20
-56.21982420469504
 30
0.0
 10
252.8799993942453
 20
-56.21982420469504
 30
0.0
 10
252.8799993942453
 20
-56.21982420469504
 30
0.0
 10
252.8799993942453
 20
-56.21982420469504
 30
0.0
 10
252.1744438388661
 20
-56.48440753796223
 30
0.0
 10
252.1744438388661
 20
-56.48440753796223
 30
0.0
 10
252.1744438388661
 20
-56.48440753796223
 30
0.0
 10
251.3806938390645
 20
-56.74899087122942
 30
0.0
 10
251.3806938390645
 20
-56.74899087122942
 30
0.0
 10
251.3806938390645
 20
-56.74899087122942
 30
0.0
 10
250.6751382836854
 20
-57.10176864891901
 30
0.0
 10
250.6751382836854
 20
-57.10176864891901
 30
0.0
 10
250.6751382836854
 20
-57.10176864891901
 30
0.0
 10
250.0577771727286
 20
-57.45454642660859
 30
0.0
 10
250.0577771727286
 20
-57.45454642660859
 30
0.0
 10
250.0577771727286
 20
-57.45454642660859
 30
0.0
 10
249.4404160617719
 20
-57.89551864872057
 30
0.0
 10
249.4404160617719
 20
-57.89551864872057
 30
0.0
 10
249.4404160617719
 20
-57.89551864872057
 30
0.0
 10
248.8230549508151
 20
-58.33649087083255
 30
0.0
 10
248.8230549508151
 20
-58.33649087083255
 30
0.0
 10
248.8230549508151
 20
-58.33649087083255
 30
0.0
 10
248.2056938398583
 20
-58.86565753736692
 30
0.0
 10
248.2056938398583
 20
-58.86565753736692
 30
0.0
 10
248.2056938398583
 20
-58.86565753736692
 30
0.0
 10
247.6765271733239
 20
-59.48301864832369
 30
0.0
 10
247.6765271733239
 20
-59.48301864832369
 30
0.0
 10
247.6765271733239
 20
-59.48301864832369
 30
0.0
 10
247.235554951212
 20
-60.01218531485807
 30
0.0
 10
247.235554951212
 20
-60.01218531485807
 30
0.0
 10
247.235554951212
 20
-60.01218531485807
 30
0.0
 10
246.7945827291
 20
-60.71774087023724
 30
0.0
 10
246.7945827291
 20
-60.71774087023724
 30
0.0
 10
246.7945827291
 20
-60.71774087023724
 30
0.0
 10
246.4418049514104
 20
-61.33510198119401
 30
0.0
 10
246.4418049514104
 20
-61.33510198119401
 30
0.0
 10
246.4418049514104
 20
-61.33510198119401
 30
0.0
 10
246.0890271737208
 20
-62.04065753657317
 30
0.0
 10
246.0890271737208
 20
-62.04065753657317
 30
0.0
 10
246.0890271737208
 20
-62.04065753657317
 30
0.0
 10
245.8244438404536
 20
-62.83440753637473
 30
0.0
 10
245.8244438404536
 20
-62.83440753637473
 30
0.0
 10
245.8244438404536
 20
-62.83440753637473
 30
0.0
 10
245.5598605071864
 20
-63.5399630917539
 30
0.0
 10
245.5598605071864
 20
-63.5399630917539
 30
0.0
 10
245.5598605071864
 20
-63.5399630917539
 30
0.0
 10
245.471666062764
 20
-64.33371309155547
 30
0.0
 10
245.471666062764
 20
-64.33371309155547
 30
0.0
 10
245.471666062764
 20
-64.33371309155547
 30
0.0
 10
245.3834716183416
 20
-65.12746309135703
 30
0.0
 10
245.3834716183416
 20
-65.12746309135703
 30
0.0
 10
245.3834716183416
 20
-65.12746309135703
 30
0.0
 10
238.4161105089724
 20
-65.21565753577943
 30
0.0
 10
238.4161105089724
 20
-65.21565753577943
 30
0.0
 10
238.4161105089724
 20
-65.21565753577943
 30
0.0
 10
238.4161105089724
 20
-65.21565753577943
 30
0.0
 10
238.4161105089724
 20
-65.21565753577943
 30
0.0
 10
238.4161105089724
 20
-65.21565753577943
 30
0.0
 10
238.4161105089724
 20
-65.21565753577943
 30
0.0
 10
238.4161105089724
 20
-65.21565753577943
 30
0.0
  0
POLYLINE
  5
3F
330
1F
100
AcDbEntity
  8
LAYER_1
 62
   250
100
AcDb2dPolyline
 66
     1
 10
0.0
 20
0.0
 30
0.0
  0
VERTEX
  5
40
330
3F
100
AcDbEntity
  8
LAYER_1
 62
   250
100
AcDbVertex
100
AcDb2dVertex
 10
238.4161105089724
 20
-65.21565753577943
 30
0.0
  0
VERTEX
  5
41
330
3F
100
AcDbEntity
  8
LAYER_1
 62
   250
100
AcDbVertex
100
AcDb2dVertex
 10
238.4161105089724
 20
-62.74621309195234
 30
0.0
  0
VERTEX
  5
42
330
3F
100
AcDbEntity
  8
LAYER_1
 62
   250
100
AcDbVertex
100
AcDb2dVertex
 10
236.2994438428349
 20
-62.74621309195234
 30
0.0
  0
VERTEX
  5
43
330
3F
100
AcDbEntity
  8
LAYER_1
 62
   250
100
AcDbVertex
100
AcDb2dVertex
 10
236.2994438428349
 20
-63.6281575361763
 30
0.0
  0
VERTEX
  5
44
330
3F
100
AcDbEntity
  8
LAYER_1
 62
   250
100
AcDbVertex
100
AcDb2dVertex
 10
236.2994438428349
 20
-63.6281575361763
 30
0.0
  0
VERTEX
  5
45
330
3F
100
AcDbEntity
  8
LAYER_1
 62
   250
100
AcDbVertex
100
AcDb2dVertex
 10
235.0647216209213
 20
-63.6281575361763
 30
0.0
  0
VERTEX
  5
46
330
3F
100
AcDbEntity
  8
LAYER_1
 62
   250
100
AcDbVertex
100
AcDb2dVertex
 10
232.0661105105599
 20
-63.6281575361763
 30
0.0
  0
VERTEX
  5
47
330
3F
100
AcDbEntity
  8
LAYER_1
 62
   250
100
AcDbVertex
100
AcDb2dVertex
 10
232.0661105105599
 20
-63.6281575361763
 30
0.0
  0
VERTEX
  5
48
330
3F
100
AcDbEntity
  8
LAYER_1
 62
   250
100
AcDbVertex
100
AcDb2dVertex
 10
231.6251382884479
 20
-63.7163519805987
 30
0.0
  0
VERTEX
  5
49
330
3F
100
AcDbEntity
  8
LAYER_1
 62
   250
100
AcDbVertex
100
AcDb2dVertex
 10
231.1841660663359
 20
-63.80454642502109
 30
0.0
  0
VERTEX
  5
4A
330
3F
100
AcDbEntity
  8
LAYER_1
 62
   250
100
AcDbVertex
100
AcDb2dVertex
 10
230.8313882886463
 20
-63.98093531386588
 30
0.0
  0
VERTEX
  5
4B
330
3F
100
AcDbEntity
  8
LAYER_1
 62
   250
100
AcDbVertex
100
AcDb2dVertex
 10
230.4786105109567
 20
-64.33371309155547
 30
0.0
  0
VERTEX
  5
4C
330
3F
100
AcDbEntity
  8
LAYER_1
 62
   250
100
AcDbVertex
100
AcDb2dVertex
 10
230.2140271776896
 20
-64.59829642482265
 30
0.0
  0
VERTEX
  5
4D
330
3F
100
AcDbEntity
  8
LAYER_1
 62
   250
100
AcDbVertex
100
AcDb2dVertex
 10
230.0376382888448
 20
-65.03926864693463
 30
0.0
  0
VERTEX
  5
4E
330
3F
100
AcDbEntity
  8
LAYER_1
 62
   250
100
AcDbVertex
100
AcDb2dVertex
 10
229.8612494
 20
-65.39204642462421
 30
0.0
  0
VERTEX
  5
4F
330
3F
100
AcDbEntity
  8
LAYER_1
 62
   250
100
AcDbVertex
100
AcDb2dVertex
 10
229.8612494
 20
-65.92121309115859
 30
0.0
  0
VERTEX
  5
50
330
3F
100
AcDbEntity
  8
LAYER_1
 62
   250
100
AcDbVertex
100
AcDb2dVertex
 10
229.8612494
 20
-65.92121309115859
 30
0.0
  0
VERTEX
  5
51
330
3F
100
AcDbEntity
  8
LAYER_1
 62
   250
100
AcDbVertex
100
AcDb2dVertex
 10
229.8612494
 20
-66.36218531327057
 30
0.0
  0
VERTEX
  5
52
330
3F
100
AcDbEntity
  8
LAYER_1
 62
   250
100
AcDbVertex
100
AcDb2dVertex
 10
230.0376382888448
 20
-66.80315753538255
 30
0.0
  0
VERTEX
  5
53
330
3F
100
AcDbEntity
  8
LAYER_1
 62
   250
100
AcDbVertex
100
AcDb2dVertex
 10
230.2140271776896
 20
-67.15593531307213
 30
0.0
  0
VERTEX
  5
54
330
3F
100
AcDbEntity
  8
LAYER_1
 62
   250
100
AcDbVertex
100
AcDb2dVertex
 10
230.4786105109567
 20
-67.50871309076172
 30
0.0
  0
VERTEX
  5
55
330
3F
100
AcDbEntity
  8
LAYER_1
 62
   250
100
AcDbVertex
100
AcDb2dVertex
 10
230.8313882886463
 20
-67.7732964240289
 30
0.0
  0
VERTEX
  5
56
330
3F
100
AcDbEntity
  8
LAYER_1
 62
   250
100
AcDbVertex
100
AcDb2dVertex
 10
231.1841660663359
 20
-67.9496853128737
 30
0.0
  0
VERTEX
  5
57
330
3F
100
AcDbEntity
  8
LAYER_1
 62
   250
100
AcDbVertex
100
AcDb2dVertex
 10
231.6251382884479
 20
-68.12607420171848
 30
0.0
  0
VERTEX
  5
58
330
3F
100
AcDbEntity
  8
LAYER_1
 62
   250
100
AcDbVertex
100
AcDb2dVertex
 10
232.0661105105599
 20
-68.12607420171848
 30
0.0
  0
VERTEX
  5
59
330
3F
100
AcDbEntity
  8
LAYER_1
 62
   250
100
AcDbVertex
100
AcDb2dVertex
 10
235.0647216209213
 20
-68.12607420171848
 30
0.0
  0
VERTEX
  5
5A
330
3F
100
AcDbEntity
  8
LAYER_1
 62
   250
100
AcDbVertex
100
AcDb2dVertex
 10
235.0647216209213
 20
-68.12607420171848
 30
0.0
  0
VERTEX
  5
5B
330
3F
100
AcDbEntity
  8
LAYER_1
 62
   250
100
AcDbVertex
100
AcDb2dVertex
 10
236.2994438428349
 20
-68.12607420171848
 30
0.0
  0
VERTEX
  5
5C
330
3F
100
AcDbEntity
  8
LAYER_1
 62
   250
100
AcDbVertex
100
AcDb2dVertex
 10
236.2994438428349
 20
-69.18440753478724
 30
0.0
  0
VERTEX
  5
5D
330
3F
100
AcDbEntity
  8
LAYER_1
 62
   250
100
AcDbVertex
100
AcDb2dVertex
 10
238.4161105089724
 20
-69.18440753478724
 30
0.0
  0
VERTEX
  5
5E
330
3F
100
AcDbEntity
  8
LAYER_1
 62
   250
100
AcDbVertex
100
AcDb2dVertex
 10
238.4161105089724
 20
-66.62676864653776
 30
0.0
  0
SEQEND
  5
5F
330
3F
100
AcDbEntity
  8
LAYER_1
  0
SPLINE
  5
60
330
1F
100
AcDbEntity
  8
LAYER_1
 62
   250
100
AcDbSpline
210
0.0
220
0.0
230
1.0
 70
    11
 71
     3
 72
    29
 73
    25
 74
     0
 42
0.0000000001
 43
0.0000000001
 40
0.0
 40
0.0
 40
0.0
 40
0.0
 40
1.0
 40
1.0
 40
1.0
 40
2.0
 40
2.0
 40
2.0
 40
3.0
 40
3.0
 40
3.0
 40
4.0
 40
4.0
 40
4.0
 40
5.0
 40
5.0
 40
5.0
 40
6.0
 40
6.0
 40
6.0
 40
7.0
 40
7.0
 40
7.0
 40
8.0
 40
8.0
 40
8.0
 40
8.0
 10
246.8104301683321
 20
-44.78262395798837
 30
0.0
 10
246.8104301683321
 20
-45.84147405537991
 30
0.0
 10
245.9147053421672
 20
-46.7003363598527
 30
0.0
 10
244.8102077295961
 20
-46.7003363598527
 30
0.0
 10
244.8102077295961
 20
-46.7003363598527
 30
0.0
 10
218.8100721024155
 20
-46.7003363598527
 30
0.0
 10
218.8100721024155
 20
-46.7003363598527
 30
0.0
 10
217.7055744898445
 20
-46.7003363598527
 30
0.0
 10
216.8105386827766
 20
-45.84147405537991
 30
0.0
 10
216.8105386827766
 20
-44.78262395798837
 30
0.0
 10
216.8105386827766
 20
-44.78262395798837
 30
0.0
 10
216.8105386827766
 20
-33.61810301893922
 30
0.0
 10
216.8105386827766
 20
-33.61810301893922
 30
0.0
 10
216.8105386827766
 20
-32.55925292154769
 30
0.0
 10
217.7055744898445
 20
-31.70039061707491
 30
0.0
 10
218.8100721024155
 20
-31.70039061707491
 30
0.0
 10
218.8100721024155
 20
-31.70039061707491
 30
0.0
 10
244.8102077295961
 20
-31.70039061707491
 30
0.0
 10
244.8102077295961
 20
-31.70039061707491
 30
0.0
 10
245.9147053421672
 20
-31.70039061707491
 30
0.0
 10
246.8104301683321
 20
-32.55925292154769
 30
0.0
 10
246.8104301683321
 20
-33.61810301893922
 30
0.0
 10
246.8104301683321
 20
-33.61810301893922
 30
0.0
 10
246.8104301683321
 20
-44.78262395798837
 30
0.0
 10
246.8104301683321
 20
-44.78262395798837
 30
0.0
  0
POLYLINE
  5
61
330
1F
100
AcDbEntity
  8
LAYER_1
 62
   250
100
AcDb2dPolyline
 66
     1
 10
0.0
 20
0.0
 30
0.0
  0
VERTEX
  5
62
330
61
100
AcDbEntity
  8
LAYER_1
 62
   250
100
AcDbVertex
100
AcDb2dVertex
 10
240.5603379389919
 20
-77.53394095283873
 30
0.0
  0
VERTEX
  5
63
330
61
100
AcDbEntity
  8
LAYER_1
 62
   250
100
AcDbVertex
100
AcDb2dVertex
 10
240.5603379389919
 20
-77.53394095283873
 30
0.0
  0
VERTEX
  5
64
330
61
100
AcDbEntity
  8
LAYER_1
 62
   250
100
AcDbVertex
100
AcDb2dVertex
 10
223.0606309121168
 20
-77.53394095283873
 30
0.0
  0
VERTEX
  5
65
330
61
100
AcDbEntity
  8
LAYER_1
 62
   250
100
AcDbVertex
100
AcDb2dVertex
 10
223.0606309121168
 20
-77.53394095283873
 30
0.0
  0
VERTEX
  5
66
330
61
100
AcDbEntity
  8
LAYER_1
 62
   250
100
AcDbVertex
100
AcDb2dVertex
 10
223.0606309121168
 20
-76.53417424301924
 30
0.0
  0
VERTEX
  5
67
330
61
100
AcDbEntity
  8
LAYER_1
 62
   250
100
AcDbVertex
100
AcDb2dVertex
 10
223.0606309121168
 20
-76.53417424301924
 30
0.0
  0
VERTEX
  5
68
330
61
100
AcDbEntity
  8
LAYER_1
 62
   250
100
AcDbVertex
100
AcDb2dVertex
 10
240.5603379389919
 20
-76.53417424301924
 30
0.0
  0
VERTEX
  5
69
330
61
100
AcDbEntity
  8
LAYER_1
 62
   250
100
AcDbVertex
100
AcDb2dVertex
 10
240.5603379389919
 20
-76.53417424301924
 30
0.0
  0
VERTEX
  5
6A
330
61
100
AcDbEntity
  8
LAYER_1
 62
   250
100
AcDbVertex
100
AcDb2dVertex
 10
240.5603379389919
 20
-77.53394095283873
 30
0.0
  0
SEQEND
  5
6B
330
61
100
AcDbEntity
  8
LAYER_1
  0
INSERT
  5
6D
330
1F
100
AcDbEntity
  8
LAYER_1
100
AcDbBlockReference
  2
BLOCK_2
 10
0.0
 20
0.0
 30
0.0
  0
SPLINE
  5
7E
330
1F
100
AcDbEntity
  8
LAYER_1
 62
   250
100
AcDbSpline
210
0.0
220
0.0
230
1.0
 70
    11
 71
     3
 72
    53
 73
    49
 74
     0
 42
0.0000000001
 43
0.0000000001
 40
0.0
 40
0.0
 40
0.0
 40
0.0
 40
1.0
 40
1.0
 40
1.0
 40
2.0
 40
2.0
 40
2.0
 40
3.0
 40
3.0
 40
3.0
 40
4.0
 40
4.0
 40
4.0
 40
5.0
 40
5.0
 40
5.0
 40
6.0
 40
6.0
 40
6.0
 40
7.0
 40
7.0
 40
7.0
 40
8.0
 40
8.0
 40
8.0
 40
9.0
 40
9.0
 40
9.0
 40
10.0
 40
10.0
 40
10.0
 40
11.0
 40
11.0
 40
11.0
 40
12.0
 40
12.0
 40
12.0
 40
13.0
 40
13.0
 40
13.0
 40
14.0
 40
14.0
 40
14.0
 40
15.0
 40
15.0
 40
15.0
 40
16.0
 40
16.0
 40
16.0
 40
16.0
 10
269.7661349151974
 20
-65.89709742276185
 30
0.0
 10
269.7661349151974
 20
-60.27642413857673
 30
0.0
 10
266.5246445731258
 20
-55.41522215411495
 30
0.0
 10
261.8103759111099
 20
-53.07393526233916
 30
0.0
 10
261.8103759111099
 20
-53.07393526233916
 30
0.0
 10
261.8103759111099
 20
-14.16278753986208
 30
0.0
 10
261.8103759111099
 20
-14.16278753986208
 30
0.0
 10
261.8103759111099
 20
-8.639610457909543
 30
0.0
 10
257.3331298184792
 20
-4.162364365278854
 30
0.0
 10
251.8099527365267
 20
-4.162364365278854
 30
0.0
 10
251.8099527365267
 20
-4.162364365278854
 30
0.0
 10
211.8103270954849
 20
-4.162364365278854
 30
0.0
 10
211.8103270954849
 20
-4.162364365278854
 30
0.0
 10
206.2871500135324
 20
-4.162364365278854
 30
0.0
 10
201.8105929399987
 20
-8.639610457909543
 30
0.0
 10
201.8105929399987
 20
-14.16278753986208
 30
0.0
 10
201.8105929399987
 20
-14.16278753986208
 30
0.0
 10
201.8105929399987
 20
-58.32960067986205
 30
0.0
 10
201.8105929399987
 20
-58.32960067986205
 30
0.0
 10
201.8105929399987
 20
-58.32960067986205
 30
0.0
 10
181.3108967645681
 20
-58.32960067986205
 30
0.0
 10
181.3108967645681
 20
-58.32960067986205
 30
0.0
 10
180.2057101329
 20
-58.32960067986205
 30
0.0
 10
179.3106743258321
 20
-59.225325506027
 30
0.0
 10
179.3106743258321
 20
-60.3298231185981
 30
0.0
 10
179.3106743258321
 20
-60.3298231185981
 30
0.0
 10
179.3106743258321
 20
-71.33001300300083
 30
0.0
 10
179.3106743258321
 20
-71.33001300300083
 30
0.0
 10
179.3106743258321
 20
-72.43451061557194
 30
0.0
 10
180.2057101329
 20
-73.32954642263984
 30
0.0
 10
181.3108967645681
 20
-73.32954642263984
 30
0.0
 10
181.3108967645681
 20
-73.32954642263984
 30
0.0
 10
201.8105929399987
 20
-73.32954642263984
 30
0.0
 10
201.8105929399987
 20
-73.32954642263984
 30
0.0
 10
201.8105929399987
 20
-73.32954642263984
 30
0.0
 10
201.8105929399987
 20
-76.04255911727408
 30
0.0
 10
201.8105929399987
 20
-76.04255911727408
 30
0.0
 10
201.8105929399987
 20
-81.5653916896781
 30
0.0
 10
206.2871500135324
 20
-86.04263778230879
 30
0.0
 10
211.8103270954849
 20
-86.04263778230879
 30
0.0
 10
211.8103270954849
 20
-86.04263778230879
 30
0.0
 10
261.8103759111099
 20
-86.04263778230879
 30
0.0
 10
261.8103759111099
 20
-86.04263778230879
 30
0.0
 10
261.8103759111099
 20
-86.04263778230879
 30
0.0
 10
261.8103759111099
 20
-78.72008732841026
 30
0.0
 10
261.8103759111099
 20
-78.72008732841026
 30
0.0
 10
266.5246445731258
 20
-76.37880043663446
 30
0.0
 10
269.7661349151974
 20
-71.51777070694695
 30
0.0
 10
269.7661349151974
 20
-65.89709742276185
 30
0.0
  0
ENDSEC
  0
SECTION
  2
OBJECTS
  0
DICTIONARY
  5
C
330
0
100
AcDbDictionary
  3
ACAD_GROUP
350
D
  3
ACAD_LAYOUT
350
1A
  3
ACAD_MLINESTYLE
350
17
  3
ACAD_PLOTSETTINGS
350
19
  3
ACAD_TABLESTYLE
350
9F
  3
ACAD_VISUALSTYLE
350
2A
  3
ACDBHEADERROUNDTRIPXREC
350
7F
  0
DICTIONARY
  5
D
102
{ACAD_REACTORS
330
C
102
}
330
C
100
AcDbDictionary
  0
DICTIONARY
  5
1A
102
{ACAD_REACTORS
330
C
102
}
330
C
100
AcDbDictionary
  0
DICTIONARY
  5
17
102
{ACAD_REACTORS
330
C
102
}
330
C
100
AcDbDictionary
  3
STANDARD
350
18
  0
DICTIONARY
  5
19
102
{ACAD_REACTORS
330
C
102
}
330
C
100
AcDbDictionary
  0
DICTIONARY
  5
9F
102
{ACAD_REACTORS
330
C
102
}
330
C
100
AcDbDictionary
  0
DICTIONARY
  5
2A
102
{ACAD_REACTORS
330
C
102
}
330
C
100
AcDbDictionary
  3
2DWIREFRAME
350
2F
  3
3DWIREFRAME
350
30
  3
3D_HIDDEN
350
31
  3
BASIC
350
32
  3
BRIGHTEN
350
36
  3
COLORCHANGE
350
3A
  3
CONCEPTUAL
350
34
  3
DIM
350
35
  3
FACEPATTERN
350
39
  3
FLAT
350
2B
  3
FLATWITHEDGES
350
2C
  3
GOURAUD
350
2D
  3
GOURAUDWITHEDGES
350
2E
  3
LINEPATTERN
350
38
  3
REALISTIC
350
33
  3
THICKEN
350
37
  0
DICTIONARY
  5
7F
102
{ACAD_REACTORS
330
C
102
}
330
C
100
AcDbDictionary
  3
CEPSNTYPE
350
88
  3
DIMSTYLEDATA
350
9E
  3
FINGERPRINTGUID
350
89
  3
HYPERLINKBASE
350
82
  3
INSUNITS
350
87
  3
LAYOUTDICT
350
84
  3
LWETCUNION
350
86
  3
PLOTSETDICT
350
85
  3
PSVPSCALE
350
8B
  3
PUCSBASE
350
8E
  3
PUCSORGBACK
350
94
  3
PUCSORGBOTTOM
350
90
  3
PUCSORGFRONT
350
93
  3
PUCSORGLEFT
350
91
  3
PUCSORGRIGHT
350
92
  3
PUCSORGTOP
350
8F
  3
PUCSORTHOREF
350
8C
  3
PUCSORTHOVIEW
350
8D
  3
STYLESHEET
350
83
  3
TSTACKALIGN
350
80
  3
TSTACKSIZE
350
81
  3
UCSBASE
350
97
  3
UCSORGBACK
350
9D
  3
UCSORGBOTTOM
350
99
  3
UCSORGFRONT
350
9C
  3
UCSORGLEFT
350
9A
  3
UCSORGRIGHT
350
9B
  3
UCSORGTOP
350
98
  3
UCSORTHOREF
350
95
  3
UCSORTHOVIEW
350
96
  3
VERSIONGUID
350
8A
  0
MLINESTYLE
  5
18
102
{ACAD_REACTORS
330
17
102
}
330
17
100
AcDbMlineStyle
  2
Standard
 70
     0
  3

 62
   256
 51
90.0
 52
90.0
 71
     2
 49
0.5
 62
   256
  6
BYLAYER
 49
-0.5
 62
   256
  6
BYLAYER
  0
VISUALSTYLE
  5
2F
102
{ACAD_REACTORS
330
2A
102
}
330
2A
100
AcDbVisualStyle
  2
2dWireframe
 70
     4
 71
     0
 72
     2
 73
     0
 90
        0
 40
-0.6
 41
-30.0
 62
     5
 63
     7
 74
     1
 91
        4
 64
     7
 65
   257
 75
     1
175
     1
 42
1.0
 92
        0
 66
   257
 43
1.0
 76
     1
 77
     6
 78
     2
 67
     7
 79
     5
170
     0
171
     0
290
     0
174
     0
 93
        1
 44
0.0
173
     0
291
     0
 45
0.0
1001
ACAD
1000
AcDbSavedByObjectVersion
1070
     0
  0
VISUALSTYLE
  5
30
102
{ACAD_REACTORS
330
2A
102
}
330
2A
100
AcDbVisualStyle
  2
3dWireframe
 70
     5
 71
     0
 72
     2
 73
     0
 90
        0
 40
-0.6
 41
-30.0
 62
     5
 63
     7
 74
     1
 91
        4
 64
     7
 65
   257
 75
     1
175
     1
 42
1.0
 92
        0
 66
   257
 43
1.0
 76
     1
 77
     6
 78
     2
 67
     7
 79
     5
170
     0
171
     0
290
     0
174
     0
 93
        1
 44
0.0
173
     0
291
     0
 45
0.0
1001
ACAD
1000
AcDbSavedByObjectVersion
1070
     0
  0
VISUALSTYLE
  5
31
102
{ACAD_REACTORS
330
2A
102
}
330
2A
100
AcDbVisualStyle
  2
3D Hidden
 70
     6
 71
     1
 72
     2
 73
     2
 90
        0
 40
-0.6
 41
-30.0
 62
     5
 63
     7
 74
     2
 91
        2
 64
     7
 65
   257
 75
     2
175
     1
 42
40.0
 92
        0
 66
   257
 43
1.0
 76
     1
 77
     6
 78
     2
 67
     7
 79
     3
170
     0
171
     0
290
     0
174
     0
 93
        1
 44
0.0
173
     0
291
     0
 45
0.0
1001
ACAD
1000
AcDbSavedByObjectVersion
1070
     0
  0
VISUALSTYLE
  5
32
102
{ACAD_REACTORS
330
2A
102
}
330
2A
100
AcDbVisualStyle
  2
Basic
 70
     7
 71
     1
 72
     0
 73
     1
 90
        0
 40
-0.6
 41
-30.0
 62
     5
 63
     7
 74
     0
 91
        4
 64
     7
 65
   257
 75
     1
175
     1
 42
1.0
 92
        8
 66
     7
 43
1.0
 76
     1
 77
     6
 78
     2
 67
     7
 79
     5
170
     0
171
     0
290
     0
174
     0
 93
        1
 44
0.0
173
     0
291
     1
 45
0.0
1001
ACAD
1000
AcDbSavedByObjectVersion
1070
     0
  0
VISUALSTYLE
  5
36
102
{ACAD_REACTORS
330
2A
102
}
330
2A
100
AcDbVisualStyle
  2
Brighten
 70
    12
 71
     2
 72
     2
 73
     0
 90
        0
 40
-0.6
 41
-30.0
 62
     5
 63
     7
 74
     1
 91
        4
 64
     7
 65
   257
 75
     1
175
     1
 42
1.0
 92
        8
 66
     7
 43
1.0
 76
     1
 77
     6
 78
     2
 67
     7
 79
     5
170
     0
171
     0
290
     0
174
     0
 93
        1
 44
50.0
173
     0
291
     1
 45
0.0
1001
ACAD
1000
AcDbSavedByObjectVersion
1070
     0
  0
VISUALSTYLE
  5
3A
102
{ACAD_REACTORS
330
2A
102
}
330
2A
100
AcDbVisualStyle
  2
ColorChange
 70
    16
 71
     2
 72
     2
 73
     3
 90
        0
 40
-0.6
 41
-30.0
 62
     5
 63
     8
 74
     1
 91
        4
 64
     7
 65
   257
 75
     1
175
     1
 42
1.0
 92
        8
 66
     8
 43
1.0
 76
     1
 77
     6
 78
     2
 67
     7
 79
     5
170
     0
171
     0
290
     0
174
     0
 93
        1
 44
0.0
173
     0
291
     1
 45
0.0
1001
ACAD
1000
AcDbSavedByObjectVersion
1070
     0
  0
VISUALSTYLE
  5
34
102
{ACAD_REACTORS
330
2A
102
}
330
2A
100
AcDbVisualStyle
  2
Conceptual
 70
     9
 71
     3
 72
     2
 73
     0
 90
        0
 40
-0.6
 41
-30.0
 62
     5
 63
     7
 74
     2
 91
        2
 64
     7
 65
   257
 75
     1
175
     1
 42
40.0
 92
        8
 66
     7
 43
1.0
 76
     1
 77
     6
 78
     2
 67
     7
 79
     3
170
     0
171
     0
290
     0
174
     0
 93
        1
 44
0.0
173
     0
291
     0
 45
0.0
1001
ACAD
1000
AcDbSavedByObjectVersion
1070
     0
  0
VISUALSTYLE
  5
35
102
{ACAD_REACTORS
330
2A
102
}
330
2A
100
AcDbVisualStyle
  2
Dim
 70
    11
 71
     2
 72
     2
 73
     0
 90
        0
 40
-0.6
 41
-30.0
 62
     5
 63
     7
 74
     1
 91
        4
 64
     7
 65
   257
 75
     1
175
     1
 42
1.0
 92
        8
 66
     7
 43
1.0
 76
     1
 77
     6
 78
     2
 67
     7
 79
     5
170
     0
171
     0
290
     0
174
     0
 93
        1
 44
-50.0
173
     0
291
     1
 45
0.0
1001
ACAD
1000
AcDbSavedByObjectVersion
1070
     0
  0
VISUALSTYLE
  5
39
102
{ACAD_REACTORS
330
2A
102
}
330
2A
100
AcDbVisualStyle
  2
Facepattern
 70
    15
 71
     2
 72
     2
 73
     0
 90
        0
 40
-0.6
 41
-30.0
 62
     5
 63
     7
 74
     1
 91
        4
 64
     7
 65
   257
 75
     1
175
     1
 42
1.0
 92
        8
 66
     7
 43
1.0
 76
     1
 77
     6
 78
     2
 67
     7
 79
     5
170
     0
171
     0
290
     0
174
     0
 93
        1
 44
0.0
173
     0
291
     1
 45
0.0
1001
ACAD
1000
AcDbSavedByObjectVersion
1070
     0
  0
VISUALSTYLE
  5
2B
102
{ACAD_REACTORS
330
2A
102
}
330
2A
100
AcDbVisualStyle
  2
Flat
 70
     0
 71
     2
 72
     1
 73
     1
 90
        2
 40
-0.6
 41
30.0
 62
     5
 63
     7
 74
     0
 91
        4
 64
     7
 65
   257
 75
     1
175
     1
 42
1.0
 92
        8
 66
     7
 43
1.0
 76
     1
 77
     6
 78
     2
 67
     7
 79
     5
170
     0
171
     0
290
     0
174
     0
 93
       13
 44
0.0
173
     0
291
     1
 45
0.0
1001
ACAD
1000
AcDbSavedByObjectVersion
1070
     0
  0
VISUALSTYLE
  5
2C
102
{ACAD_REACTORS
330
2A
102
}
330
2A
100
AcDbVisualStyle
  2
FlatWithEdges
 70
     1
 71
     2
 72
     1
 73
     1
 90
        2
 40
-0.6
 41
30.0
 62
     5
 63
     7
 74
     1
 91
        4
 64
     7
 65
   257
 75
     1
175
     1
 42
1.0
 92
        0
 66
   257
 43
1.0
 76
     1
 77
     6
 78
     2
 67
     7
 79
     5
170
     0
171
     0
290
     0
174
     0
 93
       13
 44
0.0
173
     0
291
     1
 45
0.0
1001
ACAD
1000
AcDbSavedByObjectVersion
1070
     0
  0
VISUALSTYLE
  5
2D
102
{ACAD_REACTORS
330
2A
102
}
330
2A
100
AcDbVisualStyle
  2
Gouraud
 70
     2
 71
     2
 72
     2
 73
     1
 90
        2
 40
-0.6
 41
30.0
 62
     5
 63
     7
 74
     0
 91
        4
 64
     7
 65
   257
 75
     1
175
     1
 42
1.0
 92
        0
 66
     7
 43
1.0
 76
     1
 77
     6
 78
     2
 67
     7
 79
     5
170
     0
171
     0
290
     0
174
     0
 93
       13
 44
0.0
173
     0
291
     1
 45
0.0
1001
ACAD
1000
AcDbSavedByObjectVersion
1070
     0
  0
VISUALSTYLE
  5
2E
102
{ACAD_REACTORS
330
2A
102
}
330
2A
100
AcDbVisualStyle
  2
GouraudWithEdges
 70
     3
 71
     2
 72
     2
 73
     1
 90
        2
 40
-0.6
 41
30.0
 62
     5
 63
     7
 74
     1
 91
        4
 64
     7
 65
   257
 75
     1
175
     1
 42
1.0
 92
        0
 66
   257
 43
1.0
 76
     1
 77
     6
 78
     2
 67
     7
 79
     5
170
     0
171
     0
290
     0
174
     0
 93
       13
 44
0.0
173
     0
291
     1
 45
0.0
1001
ACAD
1000
AcDbSavedByObjectVersion
1070
     0
  0
VISUALSTYLE
  5
38
102
{ACAD_REACTORS
330
2A
102
}
330
2A
100
AcDbVisualStyle
  2
Linepattern
 70
    14
 71
     2
 72
     2
 73
     0
 90
        0
 40
-0.6
 41
-30.0
 62
     5
 63
     7
 74
     1
 91
        4
 64
     7
 65
   257
 75
     7
175
     7
 42
1.0
 92
        8
 66
     7
 43
1.0
 76
     1
 77
     6
 78
     2
 67
     7
 79
     5
170
     0
171
     0
290
     0
174
     0
 93
        1
 44
0.0
173
     0
291
     1
 45
0.0
1001
ACAD
1000
AcDbSavedByObjectVersion
1070
     0
  0
VISUALSTYLE
  5
33
102
{ACAD_REACTORS
330
2A
102
}
330
2A
100
AcDbVisualStyle
  2
Realistic
 70
     8
 71
     2
 72
     2
 73
     0
 90
        0
 40
-0.6
 41
-30.0
 62
     5
 63
     7
 74
     1
 91
        0
 64
     7
 65
   257
 75
     1
175
     1
 42
1.0
 92
        8
 66
     8
 43
1.0
 76
     1
 77
     6
 78
     2
 67
     7
 79
     5
170
     0
171
     0
290
     0
174
     0
 93
       13
 44
0.0
173
     0
291
     0
 45
0.0
1001
ACAD
1000
AcDbSavedByObjectVersion
1070
     0
  0
VISUALSTYLE
  5
37
102
{ACAD_REACTORS
330
2A
102
}
330
2A
100
AcDbVisualStyle
  2
Thicken
 70
    13
 71
     2
 72
     2
 73
     0
 90
        0
 40
-0.6
 41
-30.0
 62
     5
 63
     7
 74
     1
 91
        4
 64
     7
 65
   257
 75
     1
175
     1
 42
1.0
 92
       12
 66
     7
 43
1.0
 76
     1
 77
     6
 78
     2
 67
     7
 79
     5
170
     0
171
     0
290
     0
174
     0
 93
        1
 44
0.0
173
     0
291
     1
 45
0.0
1001
ACAD
1000
AcDbSavedByObjectVersion
1070
     0
  0
XRECORD
  5
88
102
{ACAD_REACTORS
330
7F
102
}
330
7F
100
AcDbXrecord
 90
        0
  0
XRECORD
  5
9E
102
{ACAD_REACTORS
330
7F
102
}
330
7F
100
AcDbXrecord
1000
DSTYLE
1002
{
1070
   340
340
11
1002
}
  0
XRECORD
  5
89
102
{ACAD_REACTORS
330
7F
102
}
330
7F
100
AcDbXrecord
  1
{813088FF-0050-E1BF-DB1A-5E7E6C975D25}
  0
XRECORD
  5
82
102
{ACAD_REACTORS
330
7F
102
}
330
7F
100
AcDbXrecord
  1

  0
XRECORD
  5
87
102
{ACAD_REACTORS
330
7F
102
}
330
7F
100
AcDbXrecord
 90
        1
  0
XRECORD
  5
84
102
{ACAD_REACTORS
330
7F
102
}
330
7F
100
AcDbXrecord
340
1A
  0
XRECORD
  5
86
102
{ACAD_REACTORS
330
7F
102
}
330
7F
100
AcDbXrecord
 90
    10269
  0
XRECORD
  5
85
102
{ACAD_REACTORS
330
7F
102
}
330
7F
100
AcDbXrecord
340
19
  0
XRECORD
  5
8B
102
{ACAD_REACTORS
330
7F
102
}
330
7F
100
AcDbXrecord
 40
0.0
  0
XRECORD
  5
8E
102
{ACAD_REACTORS
330
7F
102
}
330
7F
100
AcDbXrecord
340
0
  0
XRECORD
  5
94
102
{ACAD_REACTORS
330
7F
102
}
330
7F
100
AcDbXrecord
 10
0.0
 20
0.0
 30
0.0
  0
XRECORD
  5
90
102
{ACAD_REACTORS
330
7F
102
}
330
7F
100
AcDbXrecord
 10
0.0
 20
0.0
 30
0.0
  0
XRECORD
  5
93
102
{ACAD_REACTORS
330
7F
102
}
330
7F
100
AcDbXrecord
 10
0.0
 20
0.0
 30
0.0
  0
XRECORD
  5
91
102
{ACAD_REACTORS
330
7F
102
}
330
7F
100
AcDbXrecord
 10
0.0
 20
0.0
 30
0.0
  0
XRECORD
  5
92
102
{ACAD_REACTORS
330
7F
102
}
330
7F
100
AcDbXrecord
 10
0.0
 20
0.0
 30
0.0
  0
XRECORD
  5
8F
102
{ACAD_REACTORS
330
7F
102
}
330
7F
100
AcDbXrecord
 10
0.0
 20
0.0
 30
0.0
  0
XRECORD
  5
8C
102
{ACAD_REACTORS
330
7F
102
}
330
7F
100
AcDbXrecord
340
0
  0
XRECORD
  5
8D
102
{ACAD_REACTORS
330
7F
102
}
330
7F
100
AcDbXrecord
 70
     0
  0
XRECORD
  5
83
102
{ACAD_REACTORS
330
7F
102
}
330
7F
100
AcDbXrecord
  1

  0
XRECORD
  5
80
102
{ACAD_REACTORS
330
7F
102
}
330
7F
100
AcDbXrecord
 90
        1
  0
XRECORD
  5
81
102
{ACAD_REACTORS
330
7F
102
}
330
7F
100
AcDbXrecord
 90
       70
  0
XRECORD
  5
97
102
{ACAD_REACTORS
330
7F
102
}
330
7F
100
AcDbXrecord
340
0
  0
XRECORD
  5
9D
102
{ACAD_REACTORS
330
7F
102
}
330
7F
100
AcDbXrecord
 10
0.0
 20
0.0
 30
0.0
  0
XRECORD
  5
99
102
{ACAD_REACTORS
330
7F
102
}
330
7F
100
AcDbXrecord
 10
0.0
 20
0.0
 30
0.0
  0
XRECORD
  5
9C
102
{ACAD_REACTORS
330
7F
102
}
330
7F
100
AcDbXrecord
 10
0.0
 20
0.0
 30
0.0
  0
XRECORD
  5
9A
102
{ACAD_REACTORS
330
7F
102
}
330
7F
100
AcDbXrecord
 10
0.0
 20
0.0
 30
0.0
  0
XRECORD
  5
9B
102
{ACAD_REACTORS
330
7F
102
}
330
7F
100
AcDbXrecord
 10
0.0
 20
0.0
 30
0.0
  0
XRECORD
  5
98
102
{ACAD_REACTORS
330
7F
102
}
330
7F
100
AcDbXrecord
 10
0.0
 20
0.0
 30
0.0
  0
XRECORD
  5
95
102
{ACAD_REACTORS
330
7F
102
}
330
7F
100
AcDbXrecord
340
0
  0
XRECORD
  5
96
102
{ACAD_REACTORS
330
7F
102
}
330
7F
100
AcDbXrecord
 70
     0
  0
XRECORD
  5
8A
102
{ACAD_REACTORS
330
7F
102
}
330
7F
100
AcDbXrecord
  1
{FAEB1C32-E019-11D5-929B-00C0DF256EC4}
  0
ENDSEC
  0
EOF
