  0
SECTION
  2
HEADER
  9
$ACADVER
  1
AC1014
  9
$ACADMAINTVER
 70
     9
  9
$DWGCODEPAGE
  3
ANSI_932
  9
$INSBASE
 10
0.0
 20
0.0
 30
0.0
  9
$EXTMIN
 10
1.000000000000000E+20
 20
1.000000000000000E+20
 30
1.000000000000000E+20
  9
$EXTMAX
 10
-1.000000000000000E+20
 20
-1.000000000000000E+20
 30
-1.000000000000000E+20
  9
$LIMMIN
 10
0.0
 20
0.0
  9
$LIMMAX
 10
12.0
 20
9.0
  9
$ORTHOMODE
 70
     0
  9
$REGENMODE
 70
     1
  9
$FILLMODE
 70
     1
  9
$QTEXTMODE
 70
     0
  9
$MIRRTEXT
 70
     1
  9
$DRAGMODE
 70
     2
  9
$LTSCALE
 40
1.0
  9
$OSMODE
 70
    37
  9
$ATTMODE
 70
     1
  9
$TEXTSIZE
 40
0.2
  9
$TRACEWID
 40
0.05
  9
$TEXTSTYLE
  7
STANDARD
  9
$CLAYER
  8
0
  9
$CELTYPE
  6
BYLAYER
  9
$CECOLOR
 62
   256
  9
$CELTSCALE
 40
1.0
  9
$DELOBJ
 70
     1
  9
$DISPSILH
 70
     0
  9
$DIMSCALE
 40
1.0
  9
$DIMASZ
 40
0.18
  9
$DIMEXO
 40
0.0625
  9
$DIMDLI
 40
0.38
  9
$DIMRND
 40
0.0
  9
$DIMDLE
 40
0.0
  9
$DIMEXE
 40
0.18
  9
$DIMTP
 40
0.0
  9
$DIMTM
 40
0.0
  9
$DIMTXT
 40
0.18
  9
$DIMCEN
 40
0.09
  9
$DIMTSZ
 40
0.0
  9
$DIMTOL
 70
     0
  9
$DIMLIM
 70
     0
  9
$DIMTIH
 70
     1
  9
$DIMTOH
 70
     1
  9
$DIMSE1
 70
     0
  9
$DIMSE2
 70
     0
  9
$DIMTAD
 70
     0
  9
$DIMZIN
 70
     0
  9
$DIMBLK
  1

  9
$DIMASO
 70
     1
  9
$DIMSHO
 70
     1
  9
$DIMPOST
  1

  9
$DIMAPOST
  1

  9
$DIMALT
 70
     0
  9
$DIMALTD
 70
     2
  9
$DIMALTF
 40
25.4
  9
$DIMLFAC
 40
1.0
  9
$DIMTOFL
 70
     0
  9
$DIMTVP
 40
0.0
  9
$DIMTIX
 70
     0
  9
$DIMSOXD
 70
     0
  9
$DIMSAH
 70
     0
  9
$DIMBLK1
  1

  9
$DIMBLK2
  1

  9
$DIMSTYLE
  2
STANDARD
  9
$DIMCLRD
 70
     0
  9
$DIMCLRE
 70
     0
  9
$DIMCLRT
 70
     0
  9
$DIMTFAC
 40
1.0
  9
$DIMGAP
 40
0.09
  9
$DIMJUST
 70
     0
  9
$DIMSD1
 70
     0
  9
$DIMSD2
 70
     0
  9
$DIMTOLJ
 70
     1
  9
$DIMTZIN
 70
     0
  9
$DIMALTZ
 70
     0
  9
$DIMALTTZ
 70
     0
  9
$DIMFIT
 70
     3
  9
$DIMUPT
 70
     0
  9
$DIMUNIT
 70
     2
  9
$DIMDEC
 70
     4
  9
$DIMTDEC
 70
     4
  9
$DIMALTU
 70
     2
  9
$DIMALTTD
 70
     2
  9
$DIMTXSTY
  7
STANDARD
  9
$DIMAUNIT
 70
     0
  9
$LUNITS
 70
     2
  9
$LUPREC
 70
     4
  9
$SKETCHINC
 40
0.1
  9
$FILLETRAD
 40
0.5
  9
$AUNITS
 70
     0
  9
$AUPREC
 70
     0
  9
$MENU
  1
.
  9
$ELEVATION
 40
0.0
  9
$PELEVATION
 40
0.0
  9
$THICKNESS
 40
0.0
  9
$LIMCHECK
 70
     0
  9
$CHAMFERA
 40
0.5
  9
$CHAMFERB
 40
0.5
  9
$CHAMFERC
 40
1.0
  9
$CHAMFERD
 40
0.0
  9
$SKPOLY
 70
     0
  9
$TDCREATE
 40
2458660.69119213
  9
$TDUPDATE
 40
2458660.691192141
  9
$TDINDWG
 40
0.0000000116
  9
$TDUSRTIMER
 40
0.0000000116
  9
$USRTIMER
 70
     1
  9
$ANGBASE
 50
0.0
  9
$ANGDIR
 70
     0
  9
$PDMODE
 70
     0
  9
$PDSIZE
 40
0.0
  9
$PLINEWID
 40
0.0
  9
$COORDS
 70
     1
  9
$SPLFRAME
 70
     0
  9
$SPLINETYPE
 70
     6
  9
$SPLINESEGS
 70
     8
  9
$ATTDIA
 70
     0
  9
$ATTREQ
 70
     1
  9
$HANDLING
 70
     1
  9
$HANDSEED
  5
A5
  9
$SURFTAB1
 70
     6
  9
$SURFTAB2
 70
     6
  9
$SURFTYPE
 70
     6
  9
$SURFU
 70
     6
  9
$SURFV
 70
     6
  9
$UCSNAME
  2

  9
$UCSORG
 10
0.0
 20
0.0
 30
0.0
  9
$UCSXDIR
 10
1.0
 20
0.0
 30
0.0
  9
$UCSYDIR
 10
0.0
 20
1.0
 30
0.0
  9
$PUCSNAME
  2

  9
$PUCSORG
 10
0.0
 20
0.0
 30
0.0
  9
$PUCSXDIR
 10
1.0
 20
0.0
 30
0.0
  9
$PUCSYDIR
 10
0.0
 20
1.0
 30
0.0
  9
$USERI1
 70
     0
  9
$USERI2
 70
     0
  9
$USERI3
 70
     0
  9
$USERI4
 70
     0
  9
$USERI5
 70
     0
  9
$USERR1
 40
0.0
  9
$USERR2
 40
0.0
  9
$USERR3
 40
0.0
  9
$USERR4
 40
0.0
  9
$USERR5
 40
0.0
  9
$WORLDVIEW
 70
     1
  9
$SHADEDGE
 70
     3
  9
$SHADEDIF
 70
    70
  9
$TILEMODE
 70
     1
  9
$MAXACTVP
 70
    64
  9
$PINSBASE
 10
0.0
 20
0.0
 30
0.0
  9
$PLIMCHECK
 70
     0
  9
$PEXTMIN
 10
1.000000000000000E+20
 20
1.000000000000000E+20
 30
1.000000000000000E+20
  9
$PEXTMAX
 10
-1.000000000000000E+20
 20
-1.000000000000000E+20
 30
-1.000000000000000E+20
  9
$PLIMMIN
 10
0.0
 20
0.0
  9
$PLIMMAX
 10
12.0
 20
9.0
  9
$UNITMODE
 70
     0
  9
$VISRETAIN
 70
     1
  9
$PLINEGEN
 70
     0
  9
$PSLTSCALE
 70
     1
  9
$TREEDEPTH
 70
  3020
  9
$PICKSTYLE
 70
     1
  9
$CMLSTYLE
  2
STANDARD
  9
$CMLJUST
 70
     0
  9
$CMLSCALE
 40
1.0
  9
$PROXYGRAPHICS
 70
     1
  9
$MEASUREMENT
 70
     0
  0
ENDSEC
  0
SECTION
  2
CLASSES
  0
CLASS
  1
ACDBDICTIONARYWDFLT
  2
AcDbDictionaryWithDefault
  3
ObjectDBX Classes
 90
        0
280
     0
281
     0
  0
CLASS
  1
VISUALSTYLE
  2
AcDbVisualStyle
  3
ObjectDBX Classes
 90
     4095
280
     0
281
     0
  0
CLASS
  1
XRECORD
  2
AcDbXrecord
  3
AutoCAD 2000
 90
        0
280
     0
281
     0
  0
CLASS
  1
LWPOLYLINE
  2
AcDbPolyline
  3
AutoCAD 2000
 90
        0
280
     0
281
     1
  0
CLASS
  1
HATCH
  2
AcDbHatch
  3
AutoCAD 2000
 90
        0
280
     0
281
     1
  0
CLASS
  1
ACDBPLACEHOLDER
  2
AcDbPlaceHolder
  3
ObjectDBX Classes
 90
        0
280
     0
281
     0
  0
CLASS
  1
LAYOUT
  2
AcDbLayout
  3
ObjectDBX Classes
 90
        0
280
     0
281
     0
  0
ENDSEC
  0
SECTION
  2
TABLES
  0
TABLE
  2
VPORT
  5
8
330
0
100
AcDbSymbolTable
 70
     1
  0
VPORT
  5
29
330
8
100
AcDbSymbolTableRecord
100
AcDbViewportTableRecord
  2
*ACTIVE
 70
     0
 10
0.0
 20
0.0
 11
1.0
 21
1.0
 12
0.0
 22
0.0
 13
0.0
 23
0.0
 14
0.5
 24
0.5
 15
0.5
 25
0.5
 16
0.0
 26
0.0
 36
1.0
 17
150.0544067007677
 27
-299.857235303725
 37
0.0
 40
599.7144706074499
 41
0.5004194964606332
 42
50.0
 43
0.0
 44
0.0
 50
0.0
 51
0.0
 71
     0
 72
   100
 73
     1
 74
     3
 75
     0
 76
     0
 77
     0
 78
     0
  0
ENDTAB
  0
TABLE
  2
LTYPE
  5
5
330
0
100
AcDbSymbolTable
 70
     1
  0
LTYPE
  5
14
330
5
100
AcDbSymbolTableRecord
100
AcDbLinetypeTableRecord
  2
BYBLOCK
 70
     0
  3

 72
    65
 73
     0
 40
0.0
  0
LTYPE
  5
15
330
5
100
AcDbSymbolTableRecord
100
AcDbLinetypeTableRecord
  2
BYLAYER
 70
     0
  3

 72
    65
 73
     0
 40
0.0
  0
LTYPE
  5
16
330
5
100
AcDbSymbolTableRecord
100
AcDbLinetypeTableRecord
  2
CONTINUOUS
 70
     0
  3
Solid line
 72
    65
 73
     0
 40
0.0
  0
ENDTAB
  0
TABLE
  2
LAYER
  5
2
330
0
100
AcDbSymbolTable
 70
     2
  0
LAYER
  5
10
330
2
100
AcDbSymbolTableRecord
100
AcDbLayerTableRecord
  2
0
 70
     0
 62
     7
  6
CONTINUOUS
  0
LAYER
  5
3B
330
2
100
AcDbSymbolTableRecord
100
AcDbLayerTableRecord
  2
LAYER_1
 70
     0
 62
     7
  6
CONTINUOUS
  0
ENDTAB
  0
TABLE
  2
STYLE
  5
3
330
0
100
AcDbSymbolTable
 70
     1
  0
STYLE
  5
11
330
3
100
AcDbSymbolTableRecord
100
AcDbTextStyleTableRecord
  2
STANDARD
 70
     0
 40
0.0
 41
1.0
 50
0.0
 71
     0
 42
0.2
  3
txt
  4

  0
ENDTAB
  0
TABLE
  2
VIEW
  5
6
330
0
100
AcDbSymbolTable
 70
     0
  0
ENDTAB
  0
TABLE
  2
UCS
  5
7
330
0
100
AcDbSymbolTable
 70
     0
  0
ENDTAB
  0
TABLE
  2
APPID
  5
9
330
0
100
AcDbSymbolTable
 70
     1
  0
APPID
  5
12
330
9
100
AcDbSymbolTableRecord
100
AcDbRegAppTableRecord
  2
ACAD
 70
     0
  0
ENDTAB
  0
TABLE
  2
DIMSTYLE
  5
A
330
0
100
AcDbSymbolTable
 70
     1
  0
DIMSTYLE
105
27
330
A
100
AcDbSymbolTableRecord
100
AcDbDimStyleTableRecord
  2
STANDARD
 70
     0
  3

  4

  5

  6

  7

 40
1.0
 41
0.18
 42
0.0625
 43
0.38
 44
0.18
 45
0.0
 46
0.0
 47
0.0
 48
0.0
140
0.18
141
0.09
142
0.0
143
25.4
144
1.0
145
0.0
146
1.0
147
0.09
 71
     0
 72
     0
 73
     1
 74
     1
 75
     0
 76
     0
 77
     0
 78
     0
170
     0
171
     2
172
     0
173
     0
174
     0
175
     0
176
     0
177
     0
178
     0
270
     2
271
     4
272
     4
273
     2
274
     2
340
11
275
     0
280
     0
281
     0
282
     0
283
     1
284
     0
285
     0
286
     0
287
     3
288
     0
  0
ENDTAB
  0
TABLE
  2
BLOCK_RECORD
  5
1
330
0
100
AcDbSymbolTable
 70
     2
  0
BLOCK_RECORD
  5
1F
330
1
100
AcDbSymbolTableRecord
100
AcDbBlockTableRecord
  2
*MODEL_SPACE
  0
BLOCK_RECORD
  5
1B
330
1
100
AcDbSymbolTableRecord
100
AcDbBlockTableRecord
  2
*PAPER_SPACE
  0
BLOCK_RECORD
  5
6C
330
1
100
AcDbSymbolTableRecord
100
AcDbBlockTableRecord
  2
BLOCK_2
  0
ENDTAB
  0
ENDSEC
  0
SECTION
  2
BLOCKS
  0
BLOCK
  5
20
330
1F
100
AcDbEntity
  8
0
100
AcDbBlockBegin
  2
*MODEL_SPACE
 70
     0
 71
     0
 10
0.0
 20
0.0
 30
0.0
  3
*MODEL_SPACE
  1

  0
ENDBLK
  5
21
330
1F
100
AcDbEntity
  8
0
100
AcDbBlockEnd
  0
BLOCK
  5
1C
330
1B
100
AcDbEntity
 67
     1
  8
0
100
AcDbBlockBegin
  2
*PAPER_SPACE
 70
     0
 71
     0
 10
0.0
 20
0.0
 30
0.0
  3
*PAPER_SPACE
  1

  0
ENDBLK
  5
1D
330
1B
100
AcDbEntity
 67
     1
  8
0
100
AcDbBlockEnd
  0
BLOCK
  5
6E
330
6C
100
AcDbEntity
  8
0
100
AcDbBlockBegin
  2
BLOCK_2
 70
     0
 71
     0
 10
0.0
 20
0.0
 30
0.0
  3
BLOCK_2
  1

  0
SPLINE
  5
70
330
6C
100
AcDbEntity
  8
LAYER_1
 62
   250
100
AcDbSpline
210
0.0
220
0.0
230
1.0
 70
     8
 71
     3
 72
    65
 73
    61
 74
     0
 42
0.0000000001
 43
0.0000000001
 40
0.0
 40
0.0
 40
0.0
 40
0.0
 40
1.0
 40
1.0
 40
1.0
 40
2.0
 40
2.0
 40
2.0
 40
3.0
 40
3.0
 40
3.0
 40
4.0
 40
4.0
 40
4.0
 40
5.0
 40
5.0
 40
5.0
 40
6.0
 40
6.0
 40
6.0
 40
7.0
 40
7.0
 40
7.0
 40
8.0
 40
8.0
 40
8.0
 40
9.0
 40
9.0
 40
9.0
 40
10.0
 40
10.0
 40
10.0
 40
11.0
 40
11.0
 40
11.0
 40
12.0
 40
12.0
 40
12.0
 40
13.0
 40
13.0
 40
13.0
 40
14.0
 40
14.0
 40
14.0
 40
15.0
 40
15.0
 40
15.0
 40
16.0
 40
16.0
 40
16.0
 40
17.0
 40
17.0
 40
17.0
 40
18.0
 40
18.0
 40
18.0
 40
19.0
 40
19.0
 40
19.0
 40
20.0
 40
20.0
 40
20.0
 40
20.0
 10
86.600570996145
 20
-139.2953735003324
 30
0.0
 10
86.600570996145
 20
-139.2953735003324
 30
0.0
 10
86.600570996145
 20
-134.5886840483841
 30
0.0
 10
86.600570996145
 20
-134.5886840483841
 30
0.0
 10
86.600570996145
 20
-129.0655069664315
 30
0.0
 10
82.12332490351432
 20
-124.5882608738009
 30
0.0
 10
76.6004923311103
 20
-124.5882608738009
 30
0.0
 10
76.6004923311103
 20
-124.5882608738009
 30
0.0
 10
36.60052218052001
 20
-124.5882608738009
 30
0.0
 10
36.60052218052001
 20
-124.5882608738009
 30
0.0
 10
31.077689608116
 20
-124.5882608738009
 30
0.0
 10
26.60078802503383
 20
-129.0655069664315
 30
0.0
 10
26.60078802503383
 20
-134.5886840483841
 30
0.0
 10
26.60078802503383
 20
-134.5886840483841
 30
0.0
 10
26.60078802503383
 20
-151.8754841742707
 30
0.0
 10
26.60078802503383
 20
-151.8754841742707
 30
0.0
 10
26.60078802503383
 20
-151.8754841742707
 30
0.0
 10
6.1010918496032
 20
-151.8754841742707
 30
0.0
 10
6.1010918496032
 20
-151.8754841742707
 30
0.0
 10
4.995905217935052
 20
-151.8754841742707
 30
0.0
 10
4.100869410867144
 20
-152.7712090004357
 30
0.0
 10
4.100869410867144
 20
-153.8757066130068
 30
0.0
 10
4.100869410867144
 20
-153.8757066130068
 30
0.0
 10
4.100869410867144
 20
-164.8758964974095
 30
0.0
 10
4.100869410867144
 20
-164.8758964974095
 30
0.0
 10
4.100869410867144
 20
-165.9803941099806
 30
0.0
 10
4.995905217935052
 20
-166.8754299170485
 30
0.0
 10
6.1010918496032
 20
-166.8754299170485
 30
0.0
 10
6.1010918496032
 20
-166.8754299170485
 30
0.0
 10
26.60078802503383
 20
-166.8754299170485
 30
0.0
 10
26.60078802503383
 20
-166.8754299170485
 30
0.0
 10
26.60078802503383
 20
-166.8754299170485
 30
0.0
 10
26.60078802503383
 20
-169.5884426116828
 30
0.0
 10
26.60078802503383
 20
-169.5884426116828
 30
0.0
 10
26.60078802503383
 20
-175.1112751840868
 30
0.0
 10
31.077689608116
 20
-179.5885212767175
 30
0.0
 10
36.60052218052001
 20
-179.5885212767175
 30
0.0
 10
36.60052218052001
 20
-179.5885212767175
 30
0.0
 10
76.6004923311103
 20
-179.5885212767175
 30
0.0
 10
76.6004923311103
 20
-179.5885212767175
 30
0.0
 10
82.12332490351432
 20
-179.5885212767175
 30
0.0
 10
86.600570996145
 20
-175.1112751840868
 30
0.0
 10
86.600570996145
 20
-169.5884426116828
 30
0.0
 10
86.600570996145
 20
-169.5884426116828
 30
0.0
 10
86.600570996145
 20
-166.8754299170485
 30
0.0
 10
86.600570996145
 20
-166.8754299170485
 30
0.0
 10
86.600570996145
 20
-166.8754299170485
 30
0.0
 10
107.1007839358984
 20
-166.8754299170485
 30
0.0
 10
107.1007839358984
 20
-166.8754299170485
 30
0.0
 10
108.2052815484695
 20
-166.8754299170485
 30
0.0
 10
109.1003173555374
 20
-165.9803941099806
 30
0.0
 10
109.1003173555374
 20
-164.8758964974095
 30
0.0
 10
109.1003173555374
 20
-164.8758964974095
 30
0.0
 10
109.1003173555374
 20
-153.8757066130068
 30
0.0
 10
109.1003173555374
 20
-153.8757066130068
 30
0.0
 10
109.1003173555374
 20
-152.7712090004357
 30
0.0
 10
108.2052815484695
 20
-151.8754841742707
 30
0.0
 10
107.1007839358984
 20
-151.8754841742707
 30
0.0
 10
107.1007839358984
 20
-151.8754841742707
 30
0.0
 10
97.72822941350198
 20
-151.8754841742707
 30
0.0
 10
97.72822941350198
 20
-151.8754841742707
 30
0.0
  0
POLYLINE
  5
71
330
6C
100
AcDbEntity
  8
LAYER_1
 62
   250
100
AcDb2dPolyline
 66
     1
 10
0.0
 20
0.0
 30
0.0
  0
VERTEX
  5
72
330
71
100
AcDbEntity
  8
LAYER_1
 62
   250
100
AcDbVertex
100
AcDb2dVertex
 10
86.600570996145
 20
-151.8754841742707
 30
0.0
  0
VERTEX
  5
83
330
71
100
AcDbEntity
  8
0
100
AcDbVertex
100
AcDb2dVertex
 10
86.600570996145
 20
-151.8754841742707
 30
0.0
  0
SEQEND
  5
73
330
71
100
AcDbEntity
  8
LAYER_1
  0
SPLINE
  5
74
330
6C
100
AcDbEntity
  8
LAYER_1
 62
   250
100
AcDbSpline
210
0.0
220
0.0
230
1.0
 70
     8
 71
     3
 72
    14
 73
    10
 74
     0
 42
0.0000000001
 43
0.0000000001
 40
0.0
 40
0.0
 40
0.0
 40
0.0
 40
1.0
 40
1.0
 40
1.0
 40
2.0
 40
2.0
 40
2.0
 40
3.0
 40
3.0
 40
3.0
 40
3.0
 10
97.72822941350198
 20
-151.8754841742707
 30
0.0
 10
97.75303410099578
 20
-151.5871296821553
 30
0.0
 10
97.76888154022792
 20
-151.2960191136517
 30
0.0
 10
97.76888154022792
 20
-151.0007744305658
 30
0.0
 10
97.76888154022792
 20
-145.4724297053854
 30
0.0
 10
93.2871568234664
 20
-139.2268161001759
 30
0.0
 10
87.758812098286
 20
-139.2268161001759
 30
0.0
 10
87.36676023206456
 20
-139.2268161001759
 30
0.0
 10
86.98090953771658
 20
-139.2519652972183
 30
0.0
 10
86.600570996145
 20
-139.2953735003324
 30
0.0
  0
ENDBLK
  5
6F
330
6C
100
AcDbEntity
  8
0
100
AcDbBlockEnd
  0
ENDSEC
  0
SECTION
  2
ENTITIES
  0
SPLINE
  5
3C
330
1F
100
AcDbEntity
  8
LAYER_1
 62
   250
100
AcDbSpline
210
0.0
220
0.0
230
1.0
 70
    11
 71
     3
 72
    29
 73
    25
 74
     0
 42
0.0000000001
 43
0.0000000001
 40
0.0
 40
0.0
 40
0.0
 40
0.0
 40
1.0
 40
1.0
 40
1.0
 40
2.0
 40
2.0
 40
2.0
 40
3.0
 40
3.0
 40
3.0
 40
4.0
 40
4.0
 40
4.0
 40
5.0
 40
5.0
 40
5.0
 40
6.0
 40
6.0
 40
6.0
 40
7.0
 40
7.0
 40
7.0
 40
8.0
 40
8.0
 40
8.0
 40
8.0
 10
68.83438583348585
 20
-83.43022187584384
 30
0.0
 10
68.83438583348585
 20
-86.24555390639
 30
0.0
 10
66.53857420211536
 20
-88.52827417491655
 30
0.0
 10
63.70601669414295
 20
-88.52827417491655
 30
0.0
 10
63.70601669414295
 20
-88.52827417491655
 30
0.0
 10
33.96244031268995
 20
-88.52827417491655
 30
0.0
 10
33.96244031268995
 20
-88.52827417491655
 30
0.0
 10
31.13022731426605
 20
-88.52827417491655
 30
0.0
 10
28.83407117334704
 20
-86.24555390639
 30
0.0
 10
28.83407117334704
 20
-83.43022187584384
 30
0.0
 10
28.83407117334704
 20
-83.43022187584384
 30
0.0
 10
28.83407117334704
 20
-41.62605521962821
 30
0.0
 10
28.83407117334704
 20
-41.62605521962821
 30
0.0
 10
28.83407117334704
 20
-38.81072318908204
 30
0.0
 10
31.13022731426605
 20
-36.5280029205555
 30
0.0
 10
33.96244031268995
 20
-36.5280029205555
 30
0.0
 10
33.96244031268995
 20
-36.5280029205555
 30
0.0
 10
63.70601669414295
 20
-36.5280029205555
 30
0.0
 10
63.70601669414295
 20
-36.5280029205555
 30
0.0
 10
66.53857420211536
 20
-36.5280029205555
 30
0.0
 10
68.83438583348585
 20
-38.81072318908204
 30
0.0
 10
68.83438583348585
 20
-41.62605521962821
 30
0.0
 10
68.83438583348585
 20
-41.62605521962821
 30
0.0
 10
68.83438583348585
 20
-83.43022187584384
 30
0.0
 10
68.83438583348585
 20
-83.43022187584384
 30
0.0
  0
SPLINE
  5
3D
330
1F
100
AcDbEntity
  8
LAYER_1
 62
   250
100
AcDbSpline
210
0.0
220
0.0
230
1.0
 70
    11
 71
     3
 72
    29
 73
    25
 74
     0
 42
0.0000000001
 43
0.0000000001
 40
0.0
 40
0.0
 40
0.0
 40
0.0
 40
1.0
 40
1.0
 40
1.0
 40
2.0
 40
2.0
 40
2.0
 40
3.0
 40
3.0
 40
3.0
 40
4.0
 40
4.0
 40
4.0
 40
5.0
 40
5.0
 40
5.0
 40
6.0
 40
6.0
 40
6.0
 40
7.0
 40
7.0
 40
7.0
 40
8.0
 40
8.0
 40
8.0
 40
8.0
 10
150.9141302791118
 20
-7.587306041939979
 30
0.0
 10
159.5775118958695
 20
-7.587306041939979
 30
0.0
 10
166.6006835520998
 20
-13.89407009201259
 30
0.0
 10
166.6006835520998
 20
-21.67499050022361
 30
0.0
 10
166.6006835520998
 20
-21.67499050022361
 30
0.0
 10
166.6006835520998
 20
-103.3818033595712
 30
0.0
 10
166.6006835520998
 20
-103.3818033595712
 30
0.0
 10
166.6006835520998
 20
-111.1613457295881
 30
0.0
 10
159.5775118958695
 20
-117.4689710535321
 30
0.0
 10
150.9141302791118
 20
-117.4689710535321
 30
0.0
 10
150.9141302791118
 20
-117.4689710535321
 30
0.0
 10
22.28701171317825
 20
-117.4689710535321
 30
0.0
 10
22.28701171317825
 20
-117.4689710535321
 30
0.0
 10
13.62363009642048
 20
-117.4689710535321
 30
0.0
 10
6.600458440190163
 20
-111.1613457295881
 30
0.0
 10
6.600458440190163
 20
-103.3818033595712
 30
0.0
 10
6.600458440190163
 20
-103.3818033595712
 30
0.0
 10
6.600458440190163
 20
-21.67499050022361
 30
0.0
 10
6.600458440190163
 20
-21.67499050022361
 30
0.0
 10
6.600458440190163
 20
-13.89407009201259
 30
0.0
 10
13.62363009642048
 20
-7.587306041939979
 30
0.0
 10
22.28701171317825
 20
-7.587306041939979
 30
0.0
 10
22.28701171317825
 20
-7.587306041939979
 30
0.0
 10
150.9141302791118
 20
-7.587306041939979
 30
0.0
 10
150.9141302791118
 20
-7.587306041939979
 30
0.0
  0
SPLINE
  5
3E
330
1F
100
AcDbEntity
  8
LAYER_1
 62
   250
100
AcDbSpline
210
0.0
220
0.0
230
1.0
 70
     8
 71
     3
 72
   257
 73
   253
 74
     0
 42
0.0000000001
 43
0.0000000001
 40
0.0
 40
0.0
 40
0.0
 40
0.0
 40
1.0
 40
1.0
 40
1.0
 40
2.0
 40
2.0
 40
2.0
 40
3.0
 40
3.0
 40
3.0
 40
4.0
 40
4.0
 40
4.0
 40
5.0
 40
5.0
 40
5.0
 40
6.0
 40
6.0
 40
6.0
 40
7.0
 40
7.0
 40
7.0
 40
8.0
 40
8.0
 40
8.0
 40
9.0
 40
9.0
 40
9.0
 40
10.0
 40
10.0
 40
10.0
 40
11.0
 40
11.0
 40
11.0
 40
12.0
 40
12.0
 40
12.0
 40
13.0
 40
13.0
 40
13.0
 40
14.0
 40
14.0
 40
14.0
 40
15.0
 40
15.0
 40
15.0
 40
16.0
 40
16.0
 40
16.0
 40
17.0
 40
17.0
 40
17.0
 40
18.0
 40
18.0
 40
18.0
 40
19.0
 40
19.0
 40
19.0
 40
20.0
 40
20.0
 40
20.0
 40
21.0
 40
21.0
 40
21.0
 40
22.0
 40
22.0
 40
22.0
 40
23.0
 40
23.0
 40
23.0
 40
24.0
 40
24.0
 40
24.0
 40
25.0
 40
25.0
 40
25.0
 40
26.0
 40
26.0
 40
26.0
 40
27.0
 40
27.0
 40
27.0
 40
28.0
 40
28.0
 40
28.0
 40
29.0
 40
29.0
 40
29.0
 40
30.0
 40
30.0
 40
30.0
 40
31.0
 40
31.0
 40
31.0
 40
32.0
 40
32.0
 40
32.0
 40
33.0
 40
33.0
 40
33.0
 40
34.0
 40
34.0
 40
34.0
 40
35.0
 40
35.0
 40
35.0
 40
36.0
 40
36.0
 40
36.0
 40
37.0
 40
37.0
 40
37.0
 40
38.0
 40
38.0
 40
38.0
 40
39.0
 40
39.0
 40
39.0
 40
40.0
 40
40.0
 40
40.0
 40
41.0
 40
41.0
 40
41.0
 40
42.0
 40
42.0
 40
42.0
 40
43.0
 40
43.0
 40
43.0
 40
44.0
 40
44.0
 40
44.0
 40
45.0
 40
45.0
 40
45.0
 40
46.0
 40
46.0
 40
46.0
 40
47.0
 40
47.0
 40
47.0
 40
48.0
 40
48.0
 40
48.0
 40
49.0
 40
49.0
 40
49.0
 40
50.0
 40
50.0
 40
50.0
 40
51.0
 40
51.0
 40
51.0
 40
52.0
 40
52.0
 40
52.0
 40
53.0
 40
53.0
 40
53.0
 40
54.0
 40
54.0
 40
54.0
 40
55.0
 40
55.0
 40
55.0
 40
56.0
 40
56.0
 40
56.0
 40
57.0
 40
57.0
 40
57.0
 40
58.0
 40
58.0
 40
58.0
 40
59.0
 40
59.0
 40
59.0
 40
60.0
 40
60.0
 40
60.0
 40
61.0
 40
61.0
 40
61.0
 40
62.0
 40
62.0
 40
62.0
 40
63.0
 40
63.0
 40
63.0
 40
64.0
 40
64.0
 40
64.0
 40
65.0
 40
65.0
 40
65.0
 40
66.0
 40
66.0
 40
66.0
 40
67.0
 40
67.0
 40
67.0
 40
68.0
 40
68.0
 40
68.0
 40
69.0
 40
69.0
 40
69.0
 40
70.0
 40
70.0
 40
70.0
 40
71.0
 40
71.0
 40
71.0
 40
72.0
 40
72.0
 40
72.0
 40
73.0
 40
73.0
 40
73.0
 40
74.0
 40
74.0
 40
74.0
 40
75.0
 40
75.0
 40
75.0
 40
76.0
 40
76.0
 40
76.0
 40
77.0
 40
77.0
 40
77.0
 40
78.0
 40
78.0
 40
78.0
 40
79.0
 40
79.0
 40
79.0
 40
80.0
 40
80.0
 40
80.0
 40
81.0
 40
81.0
 40
81.0
 40
82.0
 40
82.0
 40
82.0
 40
83.0
 40
83.0
 40
83.0
 40
84.0
 40
84.0
 40
84.0
 40
84.0
 10
63.20665010355598
 20
-154.8809854756027
 30
0.0
 10
63.20665010355598
 20
-154.8809854756027
 30
0.0
 10
63.20665010355598
 20
-154.8809854756027
 30
0.0
 10
63.20665010355598
 20
-154.8809854756027
 30
0.0
 10
63.20665010355598
 20
-154.8809854756027
 30
0.0
 10
63.20665010355598
 20
-154.8809854756027
 30
0.0
 10
63.20665010355598
 20
-154.8809854756027
 30
0.0
 10
63.20665010355598
 20
-154.8809854756027
 30
0.0
 10
70.08581676850285
 20
-154.8809854756027
 30
0.0
 10
70.08581676850285
 20
-154.8809854756027
 30
0.0
 10
70.08581676850285
 20
-154.8809854756027
 30
0.0
 10
70.08581676850285
 20
-154.8809854756027
 30
0.0
 10
70.08581676850285
 20
-154.8809854756027
 30
0.0
 10
70.08581676850285
 20
-154.8809854756027
 30
0.0
 10
70.17401121292525
 20
-155.6747354754042
 30
0.0
 10
70.17401121292525
 20
-155.6747354754042
 30
0.0
 10
70.17401121292525
 20
-155.6747354754042
 30
0.0
 10
70.35040010177005
 20
-156.5566799196282
 30
0.0
 10
70.35040010177005
 20
-156.5566799196282
 30
0.0
 10
70.35040010177005
 20
-156.5566799196282
 30
0.0
 10
70.61498343503723
 20
-157.2622354750074
 30
0.0
 10
70.61498343503723
 20
-157.2622354750074
 30
0.0
 10
70.61498343503723
 20
-157.2622354750074
 30
0.0
 10
70.87956676830441
 20
-158.0559854748089
 30
0.0
 10
70.87956676830441
 20
-158.0559854748089
 30
0.0
 10
70.87956676830441
 20
-158.0559854748089
 30
0.0
 10
71.232344545994
 20
-158.7615410301881
 30
0.0
 10
71.232344545994
 20
-158.7615410301881
 30
0.0
 10
71.232344545994
 20
-158.7615410301881
 30
0.0
 10
71.58512232368358
 20
-159.4670965855672
 30
0.0
 10
71.58512232368358
 20
-159.4670965855672
 30
0.0
 10
71.58512232368358
 20
-159.4670965855672
 30
0.0
 10
72.02609454579556
 20
-160.084457696524
 30
0.0
 10
72.02609454579556
 20
-160.084457696524
 30
0.0
 10
72.02609454579556
 20
-160.084457696524
 30
0.0
 10
72.55526121232994
 20
-160.7018188074808
 30
0.0
 10
72.55526121232994
 20
-160.7018188074808
 30
0.0
 10
72.55526121232994
 20
-160.7018188074808
 30
0.0
 10
73.08442787886432
 20
-161.3191799184376
 30
0.0
 10
73.08442787886432
 20
-161.3191799184376
 30
0.0
 10
73.08442787886432
 20
-161.3191799184376
 30
0.0
 10
73.61359454539868
 20
-161.8483465849719
 30
0.0
 10
73.61359454539868
 20
-161.8483465849719
 30
0.0
 10
73.61359454539868
 20
-161.8483465849719
 30
0.0
 10
74.23095565635546
 20
-162.2893188070839
 30
0.0
 10
74.23095565635546
 20
-162.2893188070839
 30
0.0
 10
74.23095565635546
 20
-162.2893188070839
 30
0.0
 10
74.93651121173463
 20
-162.7302910291959
 30
0.0
 10
74.93651121173463
 20
-162.7302910291959
 30
0.0
 10
74.93651121173463
 20
-162.7302910291959
 30
0.0
 10
75.55387232269139
 20
-163.1712632513079
 30
0.0
 10
75.55387232269139
 20
-163.1712632513079
 30
0.0
 10
75.55387232269139
 20
-163.1712632513079
 30
0.0
 10
76.34762232249295
 20
-163.4358465845751
 30
0.0
 10
76.34762232249295
 20
-163.4358465845751
 30
0.0
 10
76.34762232249295
 20
-163.4358465845751
 30
0.0
 10
77.05317787787213
 20
-163.7004299178423
 30
0.0
 10
77.05317787787213
 20
-163.7004299178423
 30
0.0
 10
77.05317787787213
 20
-163.7004299178423
 30
0.0
 10
77.84692787767369
 20
-163.9650132511094
 30
0.0
 10
77.84692787767369
 20
-163.9650132511094
 30
0.0
 10
77.84692787767369
 20
-163.9650132511094
 30
0.0
 10
77.84692787767369
 20
-163.9650132511094
 30
0.0
 10
77.84692787767369
 20
-163.9650132511094
 30
0.0
 10
77.84692787767369
 20
-163.9650132511094
 30
0.0
 10
79.25803898843202
 20
-164.1414021399542
 30
0.0
 10
79.25803898843202
 20
-164.1414021399542
 30
0.0
 10
79.25803898843202
 20
-164.1414021399542
 30
0.0
 10
79.25803898843202
 20
-164.1414021399542
 30
0.0
 10
79.25803898843202
 20
-164.1414021399542
 30
0.0
 10
79.25803898843202
 20
-164.1414021399542
 30
0.0
 10
80.31637232150076
 20
-164.2295965843766
 30
0.0
 10
80.31637232150076
 20
-164.2295965843766
 30
0.0
 10
80.31637232150076
 20
-164.2295965843766
 30
0.0
 10
81.02192787687994
 20
-164.1414021399542
 30
0.0
 10
81.02192787687994
 20
-164.1414021399542
 30
0.0
 10
81.02192787687994
 20
-164.1414021399542
 30
0.0
 10
81.02192787687994
 20
-164.1414021399542
 30
0.0
 10
81.02192787687994
 20
-164.1414021399542
 30
0.0
 10
81.02192787687994
 20
-164.1414021399542
 30
0.0
 10
81.99206676552629
 20
-164.0532076955319
 30
0.0
 10
81.99206676552629
 20
-164.0532076955319
 30
0.0
 10
81.99206676552629
 20
-164.0532076955319
 30
0.0
 10
82.87401120975025
 20
-163.7886243622647
 30
0.0
 10
82.87401120975025
 20
-163.7886243622647
 30
0.0
 10
82.87401120975025
 20
-163.7886243622647
 30
0.0
 10
83.75595565397421
 20
-163.5240410289975
 30
0.0
 10
83.75595565397421
 20
-163.5240410289975
 30
0.0
 10
83.75595565397421
 20
-163.5240410289975
 30
0.0
 10
84.63790009819817
 20
-163.1712632513079
 30
0.0
 10
84.63790009819817
 20
-163.1712632513079
 30
0.0
 10
84.63790009819817
 20
-163.1712632513079
 30
0.0
 10
85.43165009799974
 20
-162.7302910291959
 30
0.0
 10
85.43165009799974
 20
-162.7302910291959
 30
0.0
 10
85.43165009799974
 20
-162.7302910291959
 30
0.0
 10
86.1372056533789
 20
-162.2011243626615
 30
0.0
 10
86.1372056533789
 20
-162.2011243626615
 30
0.0
 10
86.1372056533789
 20
-162.2011243626615
 30
0.0
 10
86.84276120875806
 20
-161.5837632517048
 30
0.0
 10
86.84276120875806
 20
-161.5837632517048
 30
0.0
 10
86.84276120875806
 20
-161.5837632517048
 30
0.0
 10
87.46012231971484
 20
-160.966402140748
 30
0.0
 10
87.46012231971484
 20
-160.966402140748
 30
0.0
 10
87.46012231971484
 20
-160.966402140748
 30
0.0
 10
88.0774834306716
 20
-160.2608465853688
 30
0.0
 10
88.0774834306716
 20
-160.2608465853688
 30
0.0
 10
88.0774834306716
 20
-160.2608465853688
 30
0.0
 10
88.60665009720599
 20
-159.5552910299897
 30
0.0
 10
88.60665009720599
 20
-159.5552910299897
 30
0.0
 10
88.60665009720599
 20
-159.5552910299897
 30
0.0
 10
89.04762231931797
 20
-158.7615410301881
 30
0.0
 10
89.04762231931797
 20
-158.7615410301881
 30
0.0
 10
89.04762231931797
 20
-158.7615410301881
 30
0.0
 10
89.40040009700755
 20
-157.8795965859641
 30
0.0
 10
89.40040009700755
 20
-157.8795965859641
 30
0.0
 10
89.40040009700755
 20
-157.8795965859641
 30
0.0
 10
89.75317787469713
 20
-156.9976521417402
 30
0.0
 10
89.75317787469713
 20
-156.9976521417402
 30
0.0
 10
89.75317787469713
 20
-156.9976521417402
 30
0.0
 10
89.92956676354191
 20
-156.1157076975162
 30
0.0
 10
89.92956676354191
 20
-156.1157076975162
 30
0.0
 10
89.92956676354191
 20
-156.1157076975162
 30
0.0
 10
90.10595565238671
 20
-155.1455688088699
 30
0.0
 10
90.10595565238671
 20
-155.1455688088699
 30
0.0
 10
90.10595565238671
 20
-155.1455688088699
 30
0.0
 10
90.10595565238671
 20
-154.1754299202235
 30
0.0
 10
90.10595565238671
 20
-154.1754299202235
 30
0.0
 10
90.10595565238671
 20
-154.1754299202235
 30
0.0
 10
90.10595565238671
 20
-154.1754299202235
 30
0.0
 10
90.10595565238671
 20
-154.1754299202235
 30
0.0
 10
90.10595565238671
 20
-154.1754299202235
 30
0.0
 10
90.10595565238671
 20
-153.2052910315772
 30
0.0
 10
90.10595565238671
 20
-153.2052910315772
 30
0.0
 10
90.10595565238671
 20
-153.2052910315772
 30
0.0
 10
89.92956676354191
 20
-152.3233465873532
 30
0.0
 10
89.92956676354191
 20
-152.3233465873532
 30
0.0
 10
89.92956676354191
 20
-152.3233465873532
 30
0.0
 10
89.75317787469713
 20
-151.4414021431292
 30
0.0
 10
89.75317787469713
 20
-151.4414021431292
 30
0.0
 10
89.75317787469713
 20
-151.4414021431292
 30
0.0
 10
89.40040009700755
 20
-150.5594576989053
 30
0.0
 10
89.40040009700755
 20
-150.5594576989053
 30
0.0
 10
89.40040009700755
 20
-150.5594576989053
 30
0.0
 10
89.04762231931797
 20
-149.6775132546813
 30
0.0
 10
89.04762231931797
 20
-149.6775132546813
 30
0.0
 10
89.04762231931797
 20
-149.6775132546813
 30
0.0
 10
88.60665009720599
 20
-148.8837632548798
 30
0.0
 10
88.60665009720599
 20
-148.8837632548798
 30
0.0
 10
88.60665009720599
 20
-148.8837632548798
 30
0.0
 10
88.0774834306716
 20
-148.1782076995006
 30
0.0
 10
88.0774834306716
 20
-148.1782076995006
 30
0.0
 10
88.0774834306716
 20
-148.1782076995006
 30
0.0
 10
87.54831676413723
 20
-147.4726521441214
 30
0.0
 10
87.54831676413723
 20
-147.4726521441214
 30
0.0
 10
87.54831676413723
 20
-147.4726521441214
 30
0.0
 10
86.84276120875806
 20
-146.8552910331647
 30
0.0
 10
86.84276120875806
 20
-146.8552910331647
 30
0.0
 10
86.84276120875806
 20
-146.8552910331647
 30
0.0
 10
86.2254000978013
 20
-146.2379299222079
 30
0.0
 10
86.2254000978013
 20
-146.2379299222079
 30
0.0
 10
86.2254000978013
 20
-146.2379299222079
 30
0.0
 10
85.43165009799974
 20
-145.7087632556735
 30
0.0
 10
85.43165009799974
 20
-145.7087632556735
 30
0.0
 10
85.43165009799974
 20
-145.7087632556735
 30
0.0
 10
84.63790009819817
 20
-145.2677910335615
 30
0.0
 10
84.63790009819817
 20
-145.2677910335615
 30
0.0
 10
84.63790009819817
 20
-145.2677910335615
 30
0.0
 10
83.84415009839661
 20
-144.9150132558719
 30
0.0
 10
83.84415009839661
 20
-144.9150132558719
 30
0.0
 10
83.84415009839661
 20
-144.9150132558719
 30
0.0
 10
82.96220565417265
 20
-144.6504299226048
 30
0.0
 10
82.96220565417265
 20
-144.6504299226048
 30
0.0
 10
82.96220565417265
 20
-144.6504299226048
 30
0.0
 10
82.08026120994869
 20
-144.3858465893376
 30
0.0
 10
82.08026120994869
 20
-144.3858465893376
 30
0.0
 10
82.08026120994869
 20
-144.3858465893376
 30
0.0
 10
81.11012232130233
 20
-144.2094577004928
 30
0.0
 10
81.11012232130233
 20
-144.2094577004928
 30
0.0
 10
81.11012232130233
 20
-144.2094577004928
 30
0.0
 10
81.11012232130233
 20
-144.2094577004928
 30
0.0
 10
81.11012232130233
 20
-144.2094577004928
 30
0.0
 10
81.11012232130233
 20
-144.2094577004928
 30
0.0
 10
79.5226223216992
 20
-144.2976521449152
 30
0.0
 10
79.5226223216992
 20
-144.2976521449152
 30
0.0
 10
79.5226223216992
 20
-144.2976521449152
 30
0.0
 10
79.5226223216992
 20
-144.2976521449152
 30
0.0
 10
79.5226223216992
 20
-144.2976521449152
 30
0.0
 10
79.5226223216992
 20
-144.2976521449152
 30
0.0
 10
78.11151121094088
 20
-144.3858465893376
 30
0.0
 10
78.11151121094088
 20
-144.3858465893376
 30
0.0
 10
78.11151121094088
 20
-144.3858465893376
 30
0.0
 10
77.6705389888289
 20
-144.47404103376
 30
0.0
 10
77.6705389888289
 20
-144.47404103376
 30
0.0
 10
77.6705389888289
 20
-144.47404103376
 30
0.0
 10
77.6705389888289
 20
-144.47404103376
 30
0.0
 10
77.6705389888289
 20
-144.47404103376
 30
0.0
 10
77.6705389888289
 20
-144.47404103376
 30
0.0
 10
76.96498343344973
 20
-144.7386243670271
 30
0.0
 10
76.96498343344973
 20
-144.7386243670271
 30
0.0
 10
76.96498343344973
 20
-144.7386243670271
 30
0.0
 10
76.17123343364817
 20
-145.0032077002944
 30
0.0
 10
76.17123343364817
 20
-145.0032077002944
 30
0.0
 10
76.17123343364817
 20
-145.0032077002944
 30
0.0
 10
75.465677878269
 20
-145.3559854779839
 30
0.0
 10
75.465677878269
 20
-145.3559854779839
 30
0.0
 10
75.465677878269
 20
-145.3559854779839
 30
0.0
 10
74.84831676731223
 20
-145.7087632556735
 30
0.0
 10
74.84831676731223
 20
-145.7087632556735
 30
0.0
 10
74.84831676731223
 20
-145.7087632556735
 30
0.0
 10
74.23095565635546
 20
-146.1497354777855
 30
0.0
 10
74.23095565635546
 20
-146.1497354777855
 30
0.0
 10
74.23095565635546
 20
-146.1497354777855
 30
0.0
 10
73.61359454539868
 20
-146.5907076998975
 30
0.0
 10
73.61359454539868
 20
-146.5907076998975
 30
0.0
 10
73.61359454539868
 20
-146.5907076998975
 30
0.0
 10
72.99623343444192
 20
-147.1198743664318
 30
0.0
 10
72.99623343444192
 20
-147.1198743664318
 30
0.0
 10
72.99623343444192
 20
-147.1198743664318
 30
0.0
 10
72.46706676790754
 20
-147.7372354773886
 30
0.0
 10
72.46706676790754
 20
-147.7372354773886
 30
0.0
 10
72.46706676790754
 20
-147.7372354773886
 30
0.0
 10
72.02609454579556
 20
-148.266402143923
 30
0.0
 10
72.02609454579556
 20
-148.266402143923
 30
0.0
 10
72.02609454579556
 20
-148.266402143923
 30
0.0
 10
71.58512232368358
 20
-148.9719576993022
 30
0.0
 10
71.58512232368358
 20
-148.9719576993022
 30
0.0
 10
71.58512232368358
 20
-148.9719576993022
 30
0.0
 10
71.232344545994
 20
-149.5893188102589
 30
0.0
 10
71.232344545994
 20
-149.5893188102589
 30
0.0
 10
71.232344545994
 20
-149.5893188102589
 30
0.0
 10
70.87956676830441
 20
-150.2948743656381
 30
0.0
 10
70.87956676830441
 20
-150.2948743656381
 30
0.0
 10
70.87956676830441
 20
-150.2948743656381
 30
0.0
 10
70.61498343503723
 20
-151.0886243654396
 30
0.0
 10
70.61498343503723
 20
-151.0886243654396
 30
0.0
 10
70.61498343503723
 20
-151.0886243654396
 30
0.0
 10
70.35040010177005
 20
-151.7941799208188
 30
0.0
 10
70.35040010177005
 20
-151.7941799208188
 30
0.0
 10
70.35040010177005
 20
-151.7941799208188
 30
0.0
 10
70.26220565734765
 20
-152.5879299206204
 30
0.0
 10
70.26220565734765
 20
-152.5879299206204
 30
0.0
 10
70.26220565734765
 20
-152.5879299206204
 30
0.0
 10
70.17401121292525
 20
-153.381679920422
 30
0.0
 10
70.17401121292525
 20
-153.381679920422
 30
0.0
 10
70.17401121292525
 20
-153.381679920422
 30
0.0
 10
63.20665010355598
 20
-153.4698743648443
 30
0.0
 10
63.20665010355598
 20
-153.4698743648443
 30
0.0
 10
63.20665010355598
 20
-153.4698743648443
 30
0.0
 10
63.20665010355598
 20
-153.4698743648443
 30
0.0
 10
63.20665010355598
 20
-153.4698743648443
 30
0.0
 10
63.20665010355598
 20
-153.4698743648443
 30
0.0
 10
63.20665010355598
 20
-153.4698743648443
 30
0.0
 10
63.20665010355598
 20
-153.4698743648443
 30
0.0
  0
POLYLINE
  5
3F
330
1F
100
AcDbEntity
  8
LAYER_1
 62
   250
100
AcDb2dPolyline
 66
     1
 10
0.0
 20
0.0
 30
0.0
  0
VERTEX
  5
40
330
3F
100
AcDbEntity
  8
LAYER_1
 62
   250
100
AcDbVertex
100
AcDb2dVertex
 10
63.20665010355598
 20
-153.4698743648443
 30
0.0
  0
VERTEX
  5
41
330
3F
100
AcDbEntity
  8
LAYER_1
 62
   250
100
AcDbVertex
100
AcDb2dVertex
 10
63.20665010355598
 20
-151.0004299210173
 30
0.0
  0
VERTEX
  5
42
330
3F
100
AcDbEntity
  8
LAYER_1
 62
   250
100
AcDbVertex
100
AcDb2dVertex
 10
61.08998343741848
 20
-151.0004299210173
 30
0.0
  0
VERTEX
  5
43
330
3F
100
AcDbEntity
  8
LAYER_1
 62
   250
100
AcDbVertex
100
AcDb2dVertex
 10
61.08998343741848
 20
-151.8823743652412
 30
0.0
  0
VERTEX
  5
44
330
3F
100
AcDbEntity
  8
LAYER_1
 62
   250
100
AcDbVertex
100
AcDb2dVertex
 10
61.08998343741848
 20
-151.8823743652412
 30
0.0
  0
VERTEX
  5
45
330
3F
100
AcDbEntity
  8
LAYER_1
 62
   250
100
AcDbVertex
100
AcDb2dVertex
 10
59.85526121550494
 20
-151.8823743652412
 30
0.0
  0
VERTEX
  5
46
330
3F
100
AcDbEntity
  8
LAYER_1
 62
   250
100
AcDbVertex
100
AcDb2dVertex
 10
56.85665010514348
 20
-151.8823743652412
 30
0.0
  0
VERTEX
  5
47
330
3F
100
AcDbEntity
  8
LAYER_1
 62
   250
100
AcDbVertex
100
AcDb2dVertex
 10
56.85665010514348
 20
-151.8823743652412
 30
0.0
  0
VERTEX
  5
48
330
3F
100
AcDbEntity
  8
LAYER_1
 62
   250
100
AcDbVertex
100
AcDb2dVertex
 10
56.4156778830315
 20
-151.9705688096636
 30
0.0
  0
VERTEX
  5
49
330
3F
100
AcDbEntity
  8
LAYER_1
 62
   250
100
AcDbVertex
100
AcDb2dVertex
 10
55.97470566091952
 20
-152.058763254086
 30
0.0
  0
VERTEX
  5
4A
330
3F
100
AcDbEntity
  8
LAYER_1
 62
   250
100
AcDbVertex
100
AcDb2dVertex
 10
55.62192788322994
 20
-152.2351521429308
 30
0.0
  0
VERTEX
  5
4B
330
3F
100
AcDbEntity
  8
LAYER_1
 62
   250
100
AcDbVertex
100
AcDb2dVertex
 10
55.26915010554035
 20
-152.5879299206204
 30
0.0
  0
VERTEX
  5
4C
330
3F
100
AcDbEntity
  8
LAYER_1
 62
   250
100
AcDbVertex
100
AcDb2dVertex
 10
55.00456677227317
 20
-152.8525132538876
 30
0.0
  0
VERTEX
  5
4D
330
3F
100
AcDbEntity
  8
LAYER_1
 62
   250
100
AcDbVertex
100
AcDb2dVertex
 10
54.82817788342837
 20
-153.2934854759995
 30
0.0
  0
VERTEX
  5
4E
330
3F
100
AcDbEntity
  8
LAYER_1
 62
   250
100
AcDbVertex
100
AcDb2dVertex
 10
54.65178899458358
 20
-153.6462632536891
 30
0.0
  0
VERTEX
  5
4F
330
3F
100
AcDbEntity
  8
LAYER_1
 62
   250
100
AcDbVertex
100
AcDb2dVertex
 10
54.65178899458358
 20
-154.1754299202235
 30
0.0
  0
VERTEX
  5
50
330
3F
100
AcDbEntity
  8
LAYER_1
 62
   250
100
AcDbVertex
100
AcDb2dVertex
 10
54.65178899458358
 20
-154.1754299202235
 30
0.0
  0
VERTEX
  5
51
330
3F
100
AcDbEntity
  8
LAYER_1
 62
   250
100
AcDbVertex
100
AcDb2dVertex
 10
54.65178899458358
 20
-154.6164021423355
 30
0.0
  0
VERTEX
  5
52
330
3F
100
AcDbEntity
  8
LAYER_1
 62
   250
100
AcDbVertex
100
AcDb2dVertex
 10
54.82817788342837
 20
-155.0573743644475
 30
0.0
  0
VERTEX
  5
53
330
3F
100
AcDbEntity
  8
LAYER_1
 62
   250
100
AcDbVertex
100
AcDb2dVertex
 10
55.00456677227317
 20
-155.4101521421371
 30
0.0
  0
VERTEX
  5
54
330
3F
100
AcDbEntity
  8
LAYER_1
 62
   250
100
AcDbVertex
100
AcDb2dVertex
 10
55.26915010554035
 20
-155.7629299198266
 30
0.0
  0
VERTEX
  5
55
330
3F
100
AcDbEntity
  8
LAYER_1
 62
   250
100
AcDbVertex
100
AcDb2dVertex
 10
55.62192788322994
 20
-156.0275132530938
 30
0.0
  0
VERTEX
  5
56
330
3F
100
AcDbEntity
  8
LAYER_1
 62
   250
100
AcDbVertex
100
AcDb2dVertex
 10
55.97470566091952
 20
-156.2039021419386
 30
0.0
  0
VERTEX
  5
57
330
3F
100
AcDbEntity
  8
LAYER_1
 62
   250
100
AcDbVertex
100
AcDb2dVertex
 10
56.4156778830315
 20
-156.3802910307834
 30
0.0
  0
VERTEX
  5
58
330
3F
100
AcDbEntity
  8
LAYER_1
 62
   250
100
AcDbVertex
100
AcDb2dVertex
 10
56.85665010514348
 20
-156.3802910307834
 30
0.0
  0
VERTEX
  5
59
330
3F
100
AcDbEntity
  8
LAYER_1
 62
   250
100
AcDbVertex
100
AcDb2dVertex
 10
59.85526121550494
 20
-156.3802910307834
 30
0.0
  0
VERTEX
  5
5A
330
3F
100
AcDbEntity
  8
LAYER_1
 62
   250
100
AcDbVertex
100
AcDb2dVertex
 10
59.85526121550494
 20
-156.3802910307834
 30
0.0
  0
VERTEX
  5
5B
330
3F
100
AcDbEntity
  8
LAYER_1
 62
   250
100
AcDbVertex
100
AcDb2dVertex
 10
61.08998343741848
 20
-156.3802910307834
 30
0.0
  0
VERTEX
  5
5C
330
3F
100
AcDbEntity
  8
LAYER_1
 62
   250
100
AcDbVertex
100
AcDb2dVertex
 10
61.08998343741848
 20
-157.4386243638522
 30
0.0
  0
VERTEX
  5
5D
330
3F
100
AcDbEntity
  8
LAYER_1
 62
   250
100
AcDbVertex
100
AcDb2dVertex
 10
63.20665010355598
 20
-157.4386243638522
 30
0.0
  0
VERTEX
  5
5E
330
3F
100
AcDbEntity
  8
LAYER_1
 62
   250
100
AcDbVertex
100
AcDb2dVertex
 10
63.20665010355598
 20
-154.8809854756027
 30
0.0
  0
SEQEND
  5
5F
330
3F
100
AcDbEntity
  8
LAYER_1
  0
SPLINE
  5
60
330
1F
100
AcDbEntity
  8
LAYER_1
 62
   250
100
AcDbSpline
210
0.0
220
0.0
230
1.0
 70
    11
 71
     3
 72
    29
 73
    25
 74
     0
 42
0.0000000001
 43
0.0000000001
 40
0.0
 40
0.0
 40
0.0
 40
0.0
 40
1.0
 40
1.0
 40
1.0
 40
2.0
 40
2.0
 40
2.0
 40
3.0
 40
3.0
 40
3.0
 40
4.0
 40
4.0
 40
4.0
 40
5.0
 40
5.0
 40
5.0
 40
6.0
 40
6.0
 40
6.0
 40
7.0
 40
7.0
 40
7.0
 40
8.0
 40
8.0
 40
8.0
 40
8.0
 10
71.60062525336721
 20
-137.8629027975655
 30
0.0
 10
71.60062525336721
 20
-138.9674004101366
 30
0.0
 10
70.70490042720225
 20
-139.8631252363016
 30
0.0
 10
69.60040281463115
 20
-139.8631252363016
 30
0.0
 10
69.60040281463115
 20
-139.8631252363016
 30
0.0
 10
43.60061169699915
 20
-139.8631252363016
 30
0.0
 10
43.60061169699915
 20
-139.8631252363016
 30
0.0
 10
42.49576957487953
 20
-139.8631252363016
 30
0.0
 10
41.60073376781163
 20
-138.9674004101366
 30
0.0
 10
41.60073376781163
 20
-137.8629027975655
 30
0.0
 10
41.60073376781163
 20
-137.8629027975655
 30
0.0
 10
41.60073376781163
 20
-131.8629245004544
 30
0.0
 10
41.60073376781163
 20
-131.8629245004544
 30
0.0
 10
41.60073376781163
 20
-130.7584268878833
 30
0.0
 10
42.49576957487953
 20
-129.8627020617184
 30
0.0
 10
43.60061169699915
 20
-129.8627020617184
 30
0.0
 10
43.60061169699915
 20
-129.8627020617184
 30
0.0
 10
69.60040281463115
 20
-129.8627020617184
 30
0.0
 10
69.60040281463115
 20
-129.8627020617184
 30
0.0
 10
70.70490042720225
 20
-129.8627020617184
 30
0.0
 10
71.60062525336721
 20
-130.7584268878833
 30
0.0
 10
71.60062525336721
 20
-131.8629245004544
 30
0.0
 10
71.60062525336721
 20
-131.8629245004544
 30
0.0
 10
71.60062525336721
 20
-137.8629027975655
 30
0.0
 10
71.60062525336721
 20
-137.8629027975655
 30
0.0
  0
POLYLINE
  5
61
330
1F
100
AcDbEntity
  8
LAYER_1
 62
   250
100
AcDb2dPolyline
 66
     1
 10
0.0
 20
0.0
 30
0.0
  0
VERTEX
  5
62
330
61
100
AcDbEntity
  8
LAYER_1
 62
   250
100
AcDbVertex
100
AcDb2dVertex
 10
65.35053302402696
 20
-171.432602224937
 30
0.0
  0
VERTEX
  5
63
330
61
100
AcDbEntity
  8
LAYER_1
 62
   250
100
AcDbVertex
100
AcDb2dVertex
 10
65.35053302402696
 20
-171.432602224937
 30
0.0
  0
VERTEX
  5
64
330
61
100
AcDbEntity
  8
LAYER_1
 62
   250
100
AcDbVertex
100
AcDb2dVertex
 10
47.85082599715188
 20
-171.432602224937
 30
0.0
  0
VERTEX
  5
65
330
61
100
AcDbEntity
  8
LAYER_1
 62
   250
100
AcDbVertex
100
AcDb2dVertex
 10
47.85082599715188
 20
-171.432602224937
 30
0.0
  0
VERTEX
  5
66
330
61
100
AcDbEntity
  8
LAYER_1
 62
   250
100
AcDbVertex
100
AcDb2dVertex
 10
47.85082599715188
 20
-170.4328355151175
 30
0.0
  0
VERTEX
  5
67
330
61
100
AcDbEntity
  8
LAYER_1
 62
   250
100
AcDbVertex
100
AcDb2dVertex
 10
47.85082599715188
 20
-170.4328355151175
 30
0.0
  0
VERTEX
  5
68
330
61
100
AcDbEntity
  8
LAYER_1
 62
   250
100
AcDbVertex
100
AcDb2dVertex
 10
65.35053302402696
 20
-170.4328355151175
 30
0.0
  0
VERTEX
  5
69
330
61
100
AcDbEntity
  8
LAYER_1
 62
   250
100
AcDbVertex
100
AcDb2dVertex
 10
65.35053302402696
 20
-170.4328355151175
 30
0.0
  0
VERTEX
  5
6A
330
61
100
AcDbEntity
  8
LAYER_1
 62
   250
100
AcDbVertex
100
AcDb2dVertex
 10
65.35053302402696
 20
-171.432602224937
 30
0.0
  0
SEQEND
  5
6B
330
61
100
AcDbEntity
  8
LAYER_1
  0
INSERT
  5
6D
330
1F
100
AcDbEntity
  8
LAYER_1
100
AcDbBlockReference
  2
BLOCK_2
 10
0.0
 20
0.0
 30
0.0
  0
SPLINE
  5
75
330
1F
100
AcDbEntity
  8
LAYER_1
 62
   250
100
AcDbSpline
210
0.0
220
0.0
230
1.0
 70
    11
 71
     3
 72
    29
 73
    25
 74
     0
 42
0.0000000001
 43
0.0000000001
 40
0.0
 40
0.0
 40
0.0
 40
0.0
 40
1.0
 40
1.0
 40
1.0
 40
2.0
 40
2.0
 40
2.0
 40
3.0
 40
3.0
 40
3.0
 40
4.0
 40
4.0
 40
4.0
 40
5.0
 40
5.0
 40
5.0
 40
6.0
 40
6.0
 40
6.0
 40
7.0
 40
7.0
 40
7.0
 40
8.0
 40
8.0
 40
8.0
 40
8.0
 10
71.60062525336721
 20
-204.9499362009327
 30
0.0
 10
71.60062525336721
 20
-206.0544338135037
 30
0.0
 10
70.70490042720225
 20
-206.9501586396687
 30
0.0
 10
69.60040281463115
 20
-206.9501586396687
 30
0.0
 10
69.60040281463115
 20
-206.9501586396687
 30
0.0
 10
43.60061169699915
 20
-206.9501586396687
 30
0.0
 10
43.60061169699915
 20
-206.9501586396687
 30
0.0
 10
42.49576957487953
 20
-206.9501586396687
 30
0.0
 10
41.60073376781163
 20
-206.0544338135037
 30
0.0
 10
41.60073376781163
 20
-204.9499362009327
 30
0.0
 10
41.60073376781163
 20
-204.9499362009327
 30
0.0
 10
41.60073376781163
 20
-198.9499579038215
 30
0.0
 10
41.60073376781163
 20
-198.9499579038215
 30
0.0
 10
41.60073376781163
 20
-197.8454602912504
 30
0.0
 10
42.49576957487953
 20
-196.9497354650855
 30
0.0
 10
43.60061169699915
 20
-196.9497354650855
 30
0.0
 10
43.60061169699915
 20
-196.9497354650855
 30
0.0
 10
69.60040281463115
 20
-196.9497354650855
 30
0.0
 10
69.60040281463115
 20
-196.9497354650855
 30
0.0
 10
70.70490042720225
 20
-196.9497354650855
 30
0.0
 10
71.60062525336721
 20
-197.8454602912504
 30
0.0
 10
71.60062525336721
 20
-198.9499579038215
 30
0.0
 10
71.60062525336721
 20
-198.9499579038215
 30
0.0
 10
71.60062525336721
 20
-204.9499362009327
 30
0.0
 10
71.60062525336721
 20
-204.9499362009327
 30
0.0
  0
POLYLINE
  5
76
330
1F
100
AcDbEntity
  8
LAYER_1
 62
   250
100
AcDb2dPolyline
 66
     1
 10
0.0
 20
0.0
 30
0.0
  0
VERTEX
  5
77
330
76
100
AcDbEntity
  8
LAYER_1
 62
   250
100
AcDbVertex
100
AcDb2dVertex
 10
65.35053302402696
 20
-238.5196356283041
 30
0.0
  0
VERTEX
  5
78
330
76
100
AcDbEntity
  8
LAYER_1
 62
   250
100
AcDbVertex
100
AcDb2dVertex
 10
65.35053302402696
 20
-238.5196356283041
 30
0.0
  0
VERTEX
  5
79
330
76
100
AcDbEntity
  8
LAYER_1
 62
   250
100
AcDbVertex
100
AcDb2dVertex
 10
47.85082599715188
 20
-238.5196356283041
 30
0.0
  0
VERTEX
  5
7A
330
76
100
AcDbEntity
  8
LAYER_1
 62
   250
100
AcDbVertex
100
AcDb2dVertex
 10
47.85082599715188
 20
-238.5196356283041
 30
0.0
  0
VERTEX
  5
7B
330
76
100
AcDbEntity
  8
LAYER_1
 62
   250
100
AcDbVertex
100
AcDb2dVertex
 10
47.85082599715188
 20
-237.5198689184846
 30
0.0
  0
VERTEX
  5
7C
330
76
100
AcDbEntity
  8
LAYER_1
 62
   250
100
AcDbVertex
100
AcDb2dVertex
 10
47.85082599715188
 20
-237.5198689184846
 30
0.0
  0
VERTEX
  5
7D
330
76
100
AcDbEntity
  8
LAYER_1
 62
   250
100
AcDbVertex
100
AcDb2dVertex
 10
65.35053302402696
 20
-237.5198689184846
 30
0.0
  0
VERTEX
  5
7E
330
76
100
AcDbEntity
  8
LAYER_1
 62
   250
100
AcDbVertex
100
AcDb2dVertex
 10
65.35053302402696
 20
-237.5198689184846
 30
0.0
  0
VERTEX
  5
7F
330
76
100
AcDbEntity
  8
LAYER_1
 62
   250
100
AcDbVertex
100
AcDb2dVertex
 10
65.35053302402696
 20
-238.5196356283041
 30
0.0
  0
SEQEND
  5
80
330
76
100
AcDbEntity
  8
LAYER_1
  0
SPLINE
  5
81
330
1F
100
AcDbEntity
  8
LAYER_1
 62
   250
100
AcDbSpline
210
0.0
220
0.0
230
1.0
 70
    11
 71
     3
 72
    47
 73
    43
 74
     0
 42
0.0000000001
 43
0.0000000001
 40
0.0
 40
0.0
 40
0.0
 40
0.0
 40
1.0
 40
1.0
 40
1.0
 40
2.0
 40
2.0
 40
2.0
 40
3.0
 40
3.0
 40
3.0
 40
4.0
 40
4.0
 40
4.0
 40
5.0
 40
5.0
 40
5.0
 40
6.0
 40
6.0
 40
6.0
 40
7.0
 40
7.0
 40
7.0
 40
8.0
 40
8.0
 40
8.0
 40
9.0
 40
9.0
 40
9.0
 40
10.0
 40
10.0
 40
10.0
 40
11.0
 40
11.0
 40
11.0
 40
12.0
 40
12.0
 40
12.0
 40
13.0
 40
13.0
 40
13.0
 40
14.0
 40
14.0
 40
14.0
 40
14.0
 10
96.1372843184136
 20
-221.3065605458018
 30
0.0
 10
96.1372843184136
 20
-215.4244045142863
 30
0.0
 10
92.07344968401289
 20
-210.4937838557967
 30
0.0
 10
86.600570996145
 20
-209.1632879793932
 30
0.0
 10
86.600570996145
 20
-209.1632879793932
 30
0.0
 10
86.600570996145
 20
-208.1462957921475
 30
0.0
 10
86.600570996145
 20
-208.1462957921475
 30
0.0
 10
86.600570996145
 20
-208.1462957921475
 30
0.0
 10
86.600570996145
 20
-201.6757174517512
 30
0.0
 10
86.600570996145
 20
-201.6757174517512
 30
0.0
 10
86.600570996145
 20
-196.1525403697987
 30
0.0
 10
82.12332490351432
 20
-191.675294277168
 30
0.0
 10
76.6004923311103
 20
-191.675294277168
 30
0.0
 10
76.6004923311103
 20
-191.675294277168
 30
0.0
 10
36.60052218052001
 20
-191.675294277168
 30
0.0
 10
36.60052218052001
 20
-191.675294277168
 30
0.0
 10
31.077689608116
 20
-191.675294277168
 30
0.0
 10
26.60078802503383
 20
-196.1525403697987
 30
0.0
 10
26.60078802503383
 20
-201.6757174517512
 30
0.0
 10
26.60078802503383
 20
-201.6757174517512
 30
0.0
 10
26.60078802503383
 20
-233.9624633204157
 30
0.0
 10
26.60078802503383
 20
-233.9624633204157
 30
0.0
 10
26.60078802503383
 20
-233.9624633204157
 30
0.0
 10
26.60078802503383
 20
-236.6754760150499
 30
0.0
 10
26.60078802503383
 20
-236.6754760150499
 30
0.0
 10
26.60078802503383
 20
-242.1983085874539
 30
0.0
 10
31.077689608116
 20
-246.6755546800846
 30
0.0
 10
36.60052218052001
 20
-246.6755546800846
 30
0.0
 10
36.60052218052001
 20
-246.6755546800846
 30
0.0
 10
76.6004923311103
 20
-246.6755546800846
 30
0.0
 10
76.6004923311103
 20
-246.6755546800846
 30
0.0
 10
82.12332490351432
 20
-246.6755546800846
 30
0.0
 10
86.600570996145
 20
-242.1983085874539
 30
0.0
 10
86.600570996145
 20
-236.6754760150499
 30
0.0
 10
86.600570996145
 20
-236.6754760150499
 30
0.0
 10
86.600570996145
 20
-233.9624633204157
 30
0.0
 10
86.600570996145
 20
-233.9624633204157
 30
0.0
 10
86.600570996145
 20
-233.9624633204157
 30
0.0
 10
86.600570996145
 20
-233.450177621759
 30
0.0
 10
86.600570996145
 20
-233.450177621759
 30
0.0
 10
92.07344968401289
 20
-232.119337235807
 30
0.0
 10
96.1372843184136
 20
-227.1890610868659
 30
0.0
 10
96.1372843184136
 20
-221.3065605458018
 30
0.0
  0
SPLINE
  5
82
330
1F
100
AcDbEntity
  8
LAYER_1
 62
   250
100
AcDbSpline
210
0.0
220
0.0
230
1.0
 70
    11
 71
     3
 72
   122
 73
   118
 74
     0
 42
0.0000000001
 43
0.0000000001
 40
0.0
 40
0.0
 40
0.0
 40
0.0
 40
1.0
 40
1.0
 40
1.0
 40
2.0
 40
2.0
 40
2.0
 40
3.0
 40
3.0
 40
3.0
 40
4.0
 40
4.0
 40
4.0
 40
5.0
 40
5.0
 40
5.0
 40
6.0
 40
6.0
 40
6.0
 40
7.0
 40
7.0
 40
7.0
 40
8.0
 40
8.0
 40
8.0
 40
9.0
 40
9.0
 40
9.0
 40
10.0
 40
10.0
 40
10.0
 40
11.0
 40
11.0
 40
11.0
 40
12.0
 40
12.0
 40
12.0
 40
13.0
 40
13.0
 40
13.0
 40
14.0
 40
14.0
 40
14.0
 40
15.0
 40
15.0
 40
15.0
 40
16.0
 40
16.0
 40
16.0
 40
17.0
 40
17.0
 40
17.0
 40
18.0
 40
18.0
 40
18.0
 40
19.0
 40
19.0
 40
19.0
 40
20.0
 40
20.0
 40
20.0
 40
21.0
 40
21.0
 40
21.0
 40
22.0
 40
22.0
 40
22.0
 40
23.0
 40
23.0
 40
23.0
 40
24.0
 40
24.0
 40
24.0
 40
25.0
 40
25.0
 40
25.0
 40
26.0
 40
26.0
 40
26.0
 40
27.0
 40
27.0
 40
27.0
 40
28.0
 40
28.0
 40
28.0
 40
29.0
 40
29.0
 40
29.0
 40
30.0
 40
30.0
 40
30.0
 40
31.0
 40
31.0
 40
31.0
 40
32.0
 40
32.0
 40
32.0
 40
33.0
 40
33.0
 40
33.0
 40
34.0
 40
34.0
 40
34.0
 40
35.0
 40
35.0
 40
35.0
 40
36.0
 40
36.0
 40
36.0
 40
37.0
 40
37.0
 40
37.0
 40
38.0
 40
38.0
 40
38.0
 40
39.0
 40
39.0
 40
39.0
 40
39.0
 10
70.12956948116553
 20
-219.6287990444852
 30
0.0
 10
70.11475557057895
 20
-219.6287990444852
 30
0.0
 10
70.10063067908943
 20
-219.6329331590675
 30
0.0
 10
70.08581676850285
 20
-219.6336221781645
 30
0.0
 10
70.08581676850285
 20
-219.6336221781645
 30
0.0
 10
70.08581676850285
 20
-219.6287990444852
 30
0.0
 10
70.08581676850285
 20
-219.6287990444852
 30
0.0
 10
70.08581676850285
 20
-219.6287990444852
 30
0.0
 10
64.69596488182948
 20
-219.6287990444852
 30
0.0
 10
64.69596488182948
 20
-219.6287990444852
 30
0.0
 10
64.70285507279998
 20
-219.5736775167212
 30
0.0
 10
64.71284584970721
 20
-219.5192450080542
 30
0.0
 10
64.71284584970721
 20
-219.4624009325476
 30
0.0
 10
64.71284584970721
 20
-218.7034463971471
 30
0.0
 10
64.09720728649306
 20
-218.0874633243844
 30
0.0
 10
63.337908241544
 20
-218.0874633243844
 30
0.0
 10
63.2786525991977
 20
-218.0874633243844
 30
0.0
 10
63.22284205233665
 20
-218.0977986108401
 30
0.0
 10
63.16565346728151
 20
-218.1050333113592
 30
0.0
 10
63.16565346728151
 20
-218.1050333113592
 30
0.0
 10
63.16565346728151
 20
-218.0874633243844
 30
0.0
 10
63.16565346728151
 20
-218.0874633243844
 30
0.0
 10
63.16565346728151
 20
-218.0874633243844
 30
0.0
 10
61.08998343741848
 20
-218.0874633243844
 30
0.0
 10
61.08998343741848
 20
-218.0874633243844
 30
0.0
 10
61.08998343741848
 20
-218.0874633243844
 30
0.0
 10
61.08998343741848
 20
-218.9694077686084
 30
0.0
 10
61.08998343741848
 20
-218.9694077686084
 30
0.0
 10
61.08998343741848
 20
-218.9694077686084
 30
0.0
 10
59.85526121550494
 20
-218.9694077686084
 30
0.0
 10
59.85526121550494
 20
-218.9694077686084
 30
0.0
 10
59.85526121550494
 20
-218.9694077686084
 30
0.0
 10
56.85665010514348
 20
-218.9694077686084
 30
0.0
 10
56.85665010514348
 20
-218.9694077686084
 30
0.0
 10
56.85665010514348
 20
-218.9694077686084
 30
0.0
 10
56.4156778830315
 20
-219.0576022130307
 30
0.0
 10
56.4156778830315
 20
-219.0576022130307
 30
0.0
 10
56.4156778830315
 20
-219.0576022130307
 30
0.0
 10
55.97470566091952
 20
-219.1457966574531
 30
0.0
 10
55.97470566091952
 20
-219.1457966574531
 30
0.0
 10
55.97470566091952
 20
-219.1457966574531
 30
0.0
 10
55.62192788322994
 20
-219.3221855462979
 30
0.0
 10
55.62192788322994
 20
-219.3221855462979
 30
0.0
 10
55.62192788322994
 20
-219.3221855462979
 30
0.0
 10
55.26915010554035
 20
-219.6749633239875
 30
0.0
 10
55.26915010554035
 20
-219.6749633239875
 30
0.0
 10
55.26915010554035
 20
-219.6749633239875
 30
0.0
 10
55.00456677227317
 20
-219.9395466572547
 30
0.0
 10
55.00456677227317
 20
-219.9395466572547
 30
0.0
 10
55.00456677227317
 20
-219.9395466572547
 30
0.0
 10
54.82817788342837
 20
-220.3805188793667
 30
0.0
 10
54.82817788342837
 20
-220.3805188793667
 30
0.0
 10
54.82817788342837
 20
-220.3805188793667
 30
0.0
 10
54.65178899458358
 20
-220.7332966570563
 30
0.0
 10
54.65178899458358
 20
-220.7332966570563
 30
0.0
 10
54.65178899458358
 20
-220.7332966570563
 30
0.0
 10
54.65178899458358
 20
-221.2624633235907
 30
0.0
 10
54.65178899458358
 20
-221.2624633235907
 30
0.0
 10
54.65178899458358
 20
-221.2624633235907
 30
0.0
 10
54.65178899458358
 20
-221.7034355457026
 30
0.0
 10
54.65178899458358
 20
-221.7034355457026
 30
0.0
 10
54.65178899458358
 20
-221.7034355457026
 30
0.0
 10
54.82817788342837
 20
-222.1444077678146
 30
0.0
 10
54.82817788342837
 20
-222.1444077678146
 30
0.0
 10
54.82817788342837
 20
-222.1444077678146
 30
0.0
 10
55.00456677227317
 20
-222.4971855455042
 30
0.0
 10
55.00456677227317
 20
-222.4971855455042
 30
0.0
 10
55.00456677227317
 20
-222.4971855455042
 30
0.0
 10
55.26915010554035
 20
-222.8499633231938
 30
0.0
 10
55.26915010554035
 20
-222.8499633231938
 30
0.0
 10
55.26915010554035
 20
-222.8499633231938
 30
0.0
 10
55.62192788322994
 20
-223.114546656461
 30
0.0
 10
55.62192788322994
 20
-223.114546656461
 30
0.0
 10
55.62192788322994
 20
-223.114546656461
 30
0.0
 10
55.97470566091952
 20
-223.2909355453058
 30
0.0
 10
55.97470566091952
 20
-223.2909355453058
 30
0.0
 10
55.97470566091952
 20
-223.2909355453058
 30
0.0
 10
56.4156778830315
 20
-223.4673244341505
 30
0.0
 10
56.4156778830315
 20
-223.4673244341505
 30
0.0
 10
56.4156778830315
 20
-223.4673244341505
 30
0.0
 10
56.85665010514348
 20
-223.4673244341505
 30
0.0
 10
56.85665010514348
 20
-223.4673244341505
 30
0.0
 10
56.85665010514348
 20
-223.4673244341505
 30
0.0
 10
59.85526121550494
 20
-223.4673244341505
 30
0.0
 10
59.85526121550494
 20
-223.4673244341505
 30
0.0
 10
59.85526121550494
 20
-223.4673244341505
 30
0.0
 10
61.08998343741848
 20
-223.4673244341505
 30
0.0
 10
61.08998343741848
 20
-223.4673244341505
 30
0.0
 10
61.08998343741848
 20
-223.4673244341505
 30
0.0
 10
61.08998343741848
 20
-224.5256577672193
 30
0.0
 10
61.08998343741848
 20
-224.5256577672193
 30
0.0
 10
61.08998343741848
 20
-224.5256577672193
 30
0.0
 10
63.16565346728151
 20
-224.5256577672193
 30
0.0
 10
63.16565346728151
 20
-224.5256577672193
 30
0.0
 10
63.16565346728151
 20
-224.5256577672193
 30
0.0
 10
63.16565346728151
 20
-224.5204901239914
 30
0.0
 10
63.16565346728151
 20
-224.5204901239914
 30
0.0
 10
63.90014782473677
 20
-224.4925848505609
 30
0.0
 10
64.48822562406892
 20
-223.8924492170304
 30
0.0
 10
64.48822562406892
 20
-223.1510646686046
 30
0.0
 10
64.48822562406892
 20
-223.1228148856256
 30
0.0
 10
64.48167994264695
 20
-223.0966321599377
 30
0.0
 10
64.47995739490432
 20
-223.0690713960556
 30
0.0
 10
64.47995739490432
 20
-223.0690713960556
 30
0.0
 10
70.08581676850285
 20
-223.0690713960556
 30
0.0
 10
70.08581676850285
 20
-223.0690713960556
 30
0.0
 10
70.08581676850285
 20
-223.0690713960556
 30
0.0
 10
70.08581676850285
 20
-223.0642482623763
 30
0.0
 10
70.08581676850285
 20
-223.0642482623763
 30
0.0
 10
70.10063067908943
 20
-223.0649372814734
 30
0.0
 10
70.11475557057895
 20
-223.0690713960556
 30
0.0
 10
70.12956948116553
 20
-223.0690713960556
 30
0.0
 10
71.07972681599743
 20
-223.0690713960556
 30
0.0
 10
71.84970565695077
 20
-222.2987480455538
 30
0.0
 10
71.84970565695077
 20
-221.3489352202704
 30
0.0
 10
71.84970565695077
 20
-220.399122394987
 30
0.0
 10
71.07972681599743
 20
-219.6287990444852
 30
0.0
 10
70.12956948116553
 20
-219.6287990444852
 30
0.0
  0
ENDSEC
  0
SECTION
  2
OBJECTS
  0
DICTIONARY
  5
C
330
0
100
AcDbDictionary
  3
ACAD_GROUP
350
D
  3
ACAD_LAYOUT
350
1A
  3
ACAD_MLINESTYLE
350
17
  3
ACAD_PLOTSETTINGS
350
19
  3
ACAD_TABLESTYLE
350
A4
  3
ACAD_VISUALSTYLE
350
2A
  3
ACDBHEADERROUNDTRIPXREC
350
84
  0
DICTIONARY
  5
D
102
{ACAD_REACTORS
330
C
102
}
330
C
100
AcDbDictionary
  0
DICTIONARY
  5
1A
102
{ACAD_REACTORS
330
C
102
}
330
C
100
AcDbDictionary
  0
DICTIONARY
  5
17
102
{ACAD_REACTORS
330
C
102
}
330
C
100
AcDbDictionary
  3
STANDARD
350
18
  0
DICTIONARY
  5
19
102
{ACAD_REACTORS
330
C
102
}
330
C
100
AcDbDictionary
  0
DICTIONARY
  5
A4
102
{ACAD_REACTORS
330
C
102
}
330
C
100
AcDbDictionary
  0
DICTIONARY
  5
2A
102
{ACAD_REACTORS
330
C
102
}
330
C
100
AcDbDictionary
  3
2DWIREFRAME
350
2F
  3
3DWIREFRAME
350
30
  3
3D_HIDDEN
350
31
  3
BASIC
350
32
  3
BRIGHTEN
350
36
  3
COLORCHANGE
350
3A
  3
CONCEPTUAL
350
34
  3
DIM
350
35
  3
FACEPATTERN
350
39
  3
FLAT
350
2B
  3
FLATWITHEDGES
350
2C
  3
GOURAUD
350
2D
  3
GOURAUDWITHEDGES
350
2E
  3
LINEPATTERN
350
38
  3
REALISTIC
350
33
  3
THICKEN
350
37
  0
DICTIONARY
  5
84
102
{ACAD_REACTORS
330
C
102
}
330
C
100
AcDbDictionary
  3
CEPSNTYPE
350
8D
  3
DIMSTYLEDATA
350
A3
  3
FINGERPRINTGUID
350
8E
  3
HYPERLINKBASE
350
87
  3
INSUNITS
350
8C
  3
LAYOUTDICT
350
89
  3
LWETCUNION
350
8B
  3
PLOTSETDICT
350
8A
  3
PSVPSCALE
350
90
  3
PUCSBASE
350
93
  3
PUCSORGBACK
350
99
  3
PUCSORGBOTTOM
350
95
  3
PUCSORGFRONT
350
98
  3
PUCSORGLEFT
350
96
  3
PUCSORGRIGHT
350
97
  3
PUCSORGTOP
350
94
  3
PUCSORTHOREF
350
91
  3
PUCSORTHOVIEW
350
92
  3
STYLESHEET
350
88
  3
TSTACKALIGN
350
85
  3
TSTACKSIZE
350
86
  3
UCSBASE
350
9C
  3
UCSORGBACK
350
A2
  3
UCSORGBOTTOM
350
9E
  3
UCSORGFRONT
350
A1
  3
UCSORGLEFT
350
9F
  3
UCSORGRIGHT
350
A0
  3
UCSORGTOP
350
9D
  3
UCSORTHOREF
350
9A
  3
UCSORTHOVIEW
350
9B
  3
VERSIONGUID
350
8F
  0
MLINESTYLE
  5
18
102
{ACAD_REACTORS
330
17
102
}
330
17
100
AcDbMlineStyle
  2
Standard
 70
     0
  3

 62
   256
 51
90.0
 52
90.0
 71
     2
 49
0.5
 62
   256
  6
BYLAYER
 49
-0.5
 62
   256
  6
BYLAYER
  0
VISUALSTYLE
  5
2F
102
{ACAD_REACTORS
330
2A
102
}
330
2A
100
AcDbVisualStyle
  2
2dWireframe
 70
     4
 71
     0
 72
     2
 73
     0
 90
        0
 40
-0.6
 41
-30.0
 62
     5
 63
     7
 74
     1
 91
        4
 64
     7
 65
   257
 75
     1
175
     1
 42
1.0
 92
        0
 66
   257
 43
1.0
 76
     1
 77
     6
 78
     2
 67
     7
 79
     5
170
     0
171
     0
290
     0
174
     0
 93
        1
 44
0.0
173
     0
291
     0
 45
0.0
1001
ACAD
1000
AcDbSavedByObjectVersion
1070
     0
  0
VISUALSTYLE
  5
30
102
{ACAD_REACTORS
330
2A
102
}
330
2A
100
AcDbVisualStyle
  2
3dWireframe
 70
     5
 71
     0
 72
     2
 73
     0
 90
        0
 40
-0.6
 41
-30.0
 62
     5
 63
     7
 74
     1
 91
        4
 64
     7
 65
   257
 75
     1
175
     1
 42
1.0
 92
        0
 66
   257
 43
1.0
 76
     1
 77
     6
 78
     2
 67
     7
 79
     5
170
     0
171
     0
290
     0
174
     0
 93
        1
 44
0.0
173
     0
291
     0
 45
0.0
1001
ACAD
1000
AcDbSavedByObjectVersion
1070
     0
  0
VISUALSTYLE
  5
31
102
{ACAD_REACTORS
330
2A
102
}
330
2A
100
AcDbVisualStyle
  2
3D Hidden
 70
     6
 71
     1
 72
     2
 73
     2
 90
        0
 40
-0.6
 41
-30.0
 62
     5
 63
     7
 74
     2
 91
        2
 64
     7
 65
   257
 75
     2
175
     1
 42
40.0
 92
        0
 66
   257
 43
1.0
 76
     1
 77
     6
 78
     2
 67
     7
 79
     3
170
     0
171
     0
290
     0
174
     0
 93
        1
 44
0.0
173
     0
291
     0
 45
0.0
1001
ACAD
1000
AcDbSavedByObjectVersion
1070
     0
  0
VISUALSTYLE
  5
32
102
{ACAD_REACTORS
330
2A
102
}
330
2A
100
AcDbVisualStyle
  2
Basic
 70
     7
 71
     1
 72
     0
 73
     1
 90
        0
 40
-0.6
 41
-30.0
 62
     5
 63
     7
 74
     0
 91
        4
 64
     7
 65
   257
 75
     1
175
     1
 42
1.0
 92
        8
 66
     7
 43
1.0
 76
     1
 77
     6
 78
     2
 67
     7
 79
     5
170
     0
171
     0
290
     0
174
     0
 93
        1
 44
0.0
173
     0
291
     1
 45
0.0
1001
ACAD
1000
AcDbSavedByObjectVersion
1070
     0
  0
VISUALSTYLE
  5
36
102
{ACAD_REACTORS
330
2A
102
}
330
2A
100
AcDbVisualStyle
  2
Brighten
 70
    12
 71
     2
 72
     2
 73
     0
 90
        0
 40
-0.6
 41
-30.0
 62
     5
 63
     7
 74
     1
 91
        4
 64
     7
 65
   257
 75
     1
175
     1
 42
1.0
 92
        8
 66
     7
 43
1.0
 76
     1
 77
     6
 78
     2
 67
     7
 79
     5
170
     0
171
     0
290
     0
174
     0
 93
        1
 44
50.0
173
     0
291
     1
 45
0.0
1001
ACAD
1000
AcDbSavedByObjectVersion
1070
     0
  0
VISUALSTYLE
  5
3A
102
{ACAD_REACTORS
330
2A
102
}
330
2A
100
AcDbVisualStyle
  2
ColorChange
 70
    16
 71
     2
 72
     2
 73
     3
 90
        0
 40
-0.6
 41
-30.0
 62
     5
 63
     8
 74
     1
 91
        4
 64
     7
 65
   257
 75
     1
175
     1
 42
1.0
 92
        8
 66
     8
 43
1.0
 76
     1
 77
     6
 78
     2
 67
     7
 79
     5
170
     0
171
     0
290
     0
174
     0
 93
        1
 44
0.0
173
     0
291
     1
 45
0.0
1001
ACAD
1000
AcDbSavedByObjectVersion
1070
     0
  0
VISUALSTYLE
  5
34
102
{ACAD_REACTORS
330
2A
102
}
330
2A
100
AcDbVisualStyle
  2
Conceptual
 70
     9
 71
     3
 72
     2
 73
     0
 90
        0
 40
-0.6
 41
-30.0
 62
     5
 63
     7
 74
     2
 91
        2
 64
     7
 65
   257
 75
     1
175
     1
 42
40.0
 92
        8
 66
     7
 43
1.0
 76
     1
 77
     6
 78
     2
 67
     7
 79
     3
170
     0
171
     0
290
     0
174
     0
 93
        1
 44
0.0
173
     0
291
     0
 45
0.0
1001
ACAD
1000
AcDbSavedByObjectVersion
1070
     0
  0
VISUALSTYLE
  5
35
102
{ACAD_REACTORS
330
2A
102
}
330
2A
100
AcDbVisualStyle
  2
Dim
 70
    11
 71
     2
 72
     2
 73
     0
 90
        0
 40
-0.6
 41
-30.0
 62
     5
 63
     7
 74
     1
 91
        4
 64
     7
 65
   257
 75
     1
175
     1
 42
1.0
 92
        8
 66
     7
 43
1.0
 76
     1
 77
     6
 78
     2
 67
     7
 79
     5
170
     0
171
     0
290
     0
174
     0
 93
        1
 44
-50.0
173
     0
291
     1
 45
0.0
1001
ACAD
1000
AcDbSavedByObjectVersion
1070
     0
  0
VISUALSTYLE
  5
39
102
{ACAD_REACTORS
330
2A
102
}
330
2A
100
AcDbVisualStyle
  2
Facepattern
 70
    15
 71
     2
 72
     2
 73
     0
 90
        0
 40
-0.6
 41
-30.0
 62
     5
 63
     7
 74
     1
 91
        4
 64
     7
 65
   257
 75
     1
175
     1
 42
1.0
 92
        8
 66
     7
 43
1.0
 76
     1
 77
     6
 78
     2
 67
     7
 79
     5
170
     0
171
     0
290
     0
174
     0
 93
        1
 44
0.0
173
     0
291
     1
 45
0.0
1001
ACAD
1000
AcDbSavedByObjectVersion
1070
     0
  0
VISUALSTYLE
  5
2B
102
{ACAD_REACTORS
330
2A
102
}
330
2A
100
AcDbVisualStyle
  2
Flat
 70
     0
 71
     2
 72
     1
 73
     1
 90
        2
 40
-0.6
 41
30.0
 62
     5
 63
     7
 74
     0
 91
        4
 64
     7
 65
   257
 75
     1
175
     1
 42
1.0
 92
        8
 66
     7
 43
1.0
 76
     1
 77
     6
 78
     2
 67
     7
 79
     5
170
     0
171
     0
290
     0
174
     0
 93
       13
 44
0.0
173
     0
291
     1
 45
0.0
1001
ACAD
1000
AcDbSavedByObjectVersion
1070
     0
  0
VISUALSTYLE
  5
2C
102
{ACAD_REACTORS
330
2A
102
}
330
2A
100
AcDbVisualStyle
  2
FlatWithEdges
 70
     1
 71
     2
 72
     1
 73
     1
 90
        2
 40
-0.6
 41
30.0
 62
     5
 63
     7
 74
     1
 91
        4
 64
     7
 65
   257
 75
     1
175
     1
 42
1.0
 92
        0
 66
   257
 43
1.0
 76
     1
 77
     6
 78
     2
 67
     7
 79
     5
170
     0
171
     0
290
     0
174
     0
 93
       13
 44
0.0
173
     0
291
     1
 45
0.0
1001
ACAD
1000
AcDbSavedByObjectVersion
1070
     0
  0
VISUALSTYLE
  5
2D
102
{ACAD_REACTORS
330
2A
102
}
330
2A
100
AcDbVisualStyle
  2
Gouraud
 70
     2
 71
     2
 72
     2
 73
     1
 90
        2
 40
-0.6
 41
30.0
 62
     5
 63
     7
 74
     0
 91
        4
 64
     7
 65
   257
 75
     1
175
     1
 42
1.0
 92
        0
 66
     7
 43
1.0
 76
     1
 77
     6
 78
     2
 67
     7
 79
     5
170
     0
171
     0
290
     0
174
     0
 93
       13
 44
0.0
173
     0
291
     1
 45
0.0
1001
ACAD
1000
AcDbSavedByObjectVersion
1070
     0
  0
VISUALSTYLE
  5
2E
102
{ACAD_REACTORS
330
2A
102
}
330
2A
100
AcDbVisualStyle
  2
GouraudWithEdges
 70
     3
 71
     2
 72
     2
 73
     1
 90
        2
 40
-0.6
 41
30.0
 62
     5
 63
     7
 74
     1
 91
        4
 64
     7
 65
   257
 75
     1
175
     1
 42
1.0
 92
        0
 66
   257
 43
1.0
 76
     1
 77
     6
 78
     2
 67
     7
 79
     5
170
     0
171
     0
290
     0
174
     0
 93
       13
 44
0.0
173
     0
291
     1
 45
0.0
1001
ACAD
1000
AcDbSavedByObjectVersion
1070
     0
  0
VISUALSTYLE
  5
38
102
{ACAD_REACTORS
330
2A
102
}
330
2A
100
AcDbVisualStyle
  2
Linepattern
 70
    14
 71
     2
 72
     2
 73
     0
 90
        0
 40
-0.6
 41
-30.0
 62
     5
 63
     7
 74
     1
 91
        4
 64
     7
 65
   257
 75
     7
175
     7
 42
1.0
 92
        8
 66
     7
 43
1.0
 76
     1
 77
     6
 78
     2
 67
     7
 79
     5
170
     0
171
     0
290
     0
174
     0
 93
        1
 44
0.0
173
     0
291
     1
 45
0.0
1001
ACAD
1000
AcDbSavedByObjectVersion
1070
     0
  0
VISUALSTYLE
  5
33
102
{ACAD_REACTORS
330
2A
102
}
330
2A
100
AcDbVisualStyle
  2
Realistic
 70
     8
 71
     2
 72
     2
 73
     0
 90
        0
 40
-0.6
 41
-30.0
 62
     5
 63
     7
 74
     1
 91
        0
 64
     7
 65
   257
 75
     1
175
     1
 42
1.0
 92
        8
 66
     8
 43
1.0
 76
     1
 77
     6
 78
     2
 67
     7
 79
     5
170
     0
171
     0
290
     0
174
     0
 93
       13
 44
0.0
173
     0
291
     0
 45
0.0
1001
ACAD
1000
AcDbSavedByObjectVersion
1070
     0
  0
VISUALSTYLE
  5
37
102
{ACAD_REACTORS
330
2A
102
}
330
2A
100
AcDbVisualStyle
  2
Thicken
 70
    13
 71
     2
 72
     2
 73
     0
 90
        0
 40
-0.6
 41
-30.0
 62
     5
 63
     7
 74
     1
 91
        4
 64
     7
 65
   257
 75
     1
175
     1
 42
1.0
 92
       12
 66
     7
 43
1.0
 76
     1
 77
     6
 78
     2
 67
     7
 79
     5
170
     0
171
     0
290
     0
174
     0
 93
        1
 44
0.0
173
     0
291
     1
 45
0.0
1001
ACAD
1000
AcDbSavedByObjectVersion
1070
     0
  0
XRECORD
  5
8D
102
{ACAD_REACTORS
330
84
102
}
330
84
100
AcDbXrecord
 90
        0
  0
XRECORD
  5
A3
102
{ACAD_REACTORS
330
84
102
}
330
84
100
AcDbXrecord
1000
DSTYLE
1002
{
1070
   340
340
11
1002
}
  0
XRECORD
  5
8E
102
{ACAD_REACTORS
330
84
102
}
330
84
100
AcDbXrecord
  1
{E1569462-E699-E8EB-5723-7438D5DFA5CA}
  0
XRECORD
  5
87
102
{ACAD_REACTORS
330
84
102
}
330
84
100
AcDbXrecord
  1

  0
XRECORD
  5
8C
102
{ACAD_REACTORS
330
84
102
}
330
84
100
AcDbXrecord
 90
        1
  0
XRECORD
  5
89
102
{ACAD_REACTORS
330
84
102
}
330
84
100
AcDbXrecord
340
1A
  0
XRECORD
  5
8B
102
{ACAD_REACTORS
330
84
102
}
330
84
100
AcDbXrecord
 90
    10269
  0
XRECORD
  5
8A
102
{ACAD_REACTORS
330
84
102
}
330
84
100
AcDbXrecord
340
19
  0
XRECORD
  5
90
102
{ACAD_REACTORS
330
84
102
}
330
84
100
AcDbXrecord
 40
0.0
  0
XRECORD
  5
93
102
{ACAD_REACTORS
330
84
102
}
330
84
100
AcDbXrecord
340
0
  0
XRECORD
  5
99
102
{ACAD_REACTORS
330
84
102
}
330
84
100
AcDbXrecord
 10
0.0
 20
0.0
 30
0.0
  0
XRECORD
  5
95
102
{ACAD_REACTORS
330
84
102
}
330
84
100
AcDbXrecord
 10
0.0
 20
0.0
 30
0.0
  0
XRECORD
  5
98
102
{ACAD_REACTORS
330
84
102
}
330
84
100
AcDbXrecord
 10
0.0
 20
0.0
 30
0.0
  0
XRECORD
  5
96
102
{ACAD_REACTORS
330
84
102
}
330
84
100
AcDbXrecord
 10
0.0
 20
0.0
 30
0.0
  0
XRECORD
  5
97
102
{ACAD_REACTORS
330
84
102
}
330
84
100
AcDbXrecord
 10
0.0
 20
0.0
 30
0.0
  0
XRECORD
  5
94
102
{ACAD_REACTORS
330
84
102
}
330
84
100
AcDbXrecord
 10
0.0
 20
0.0
 30
0.0
  0
XRECORD
  5
91
102
{ACAD_REACTORS
330
84
102
}
330
84
100
AcDbXrecord
340
0
  0
XRECORD
  5
92
102
{ACAD_REACTORS
330
84
102
}
330
84
100
AcDbXrecord
 70
     0
  0
XRECORD
  5
88
102
{ACAD_REACTORS
330
84
102
}
330
84
100
AcDbXrecord
  1

  0
XRECORD
  5
85
102
{ACAD_REACTORS
330
84
102
}
330
84
100
AcDbXrecord
 90
        1
  0
XRECORD
  5
86
102
{ACAD_REACTORS
330
84
102
}
330
84
100
AcDbXrecord
 90
       70
  0
XRECORD
  5
9C
102
{ACAD_REACTORS
330
84
102
}
330
84
100
AcDbXrecord
340
0
  0
XRECORD
  5
A2
102
{ACAD_REACTORS
330
84
102
}
330
84
100
AcDbXrecord
 10
0.0
 20
0.0
 30
0.0
  0
XRECORD
  5
9E
102
{ACAD_REACTORS
330
84
102
}
330
84
100
AcDbXrecord
 10
0.0
 20
0.0
 30
0.0
  0
XRECORD
  5
A1
102
{ACAD_REACTORS
330
84
102
}
330
84
100
AcDbXrecord
 10
0.0
 20
0.0
 30
0.0
  0
XRECORD
  5
9F
102
{ACAD_REACTORS
330
84
102
}
330
84
100
AcDbXrecord
 10
0.0
 20
0.0
 30
0.0
  0
XRECORD
  5
A0
102
{ACAD_REACTORS
330
84
102
}
330
84
100
AcDbXrecord
 10
0.0
 20
0.0
 30
0.0
  0
XRECORD
  5
9D
102
{ACAD_REACTORS
330
84
102
}
330
84
100
AcDbXrecord
 10
0.0
 20
0.0
 30
0.0
  0
XRECORD
  5
9A
102
{ACAD_REACTORS
330
84
102
}
330
84
100
AcDbXrecord
340
0
  0
XRECORD
  5
9B
102
{ACAD_REACTORS
330
84
102
}
330
84
100
AcDbXrecord
 70
     0
  0
XRECORD
  5
8F
102
{ACAD_REACTORS
330
84
102
}
330
84
100
AcDbXrecord
  1
{FAEB1C32-E019-11D5-929B-00C0DF256EC4}
  0
ENDSEC
  0
EOF
