<?xml version="1.0" encoding="utf-8"?>
<!-- Generator: Adobe Illustrator 16.0.0, SVG Export Plug-In . SVG Version: 6.00 Build 0)  -->
<!DOCTYPE svg PUBLIC "-//W3C//DTD SVG 1.1//EN" "http://www.w3.org/Graphics/SVG/1.1/DTD/svg11.dtd">
<svg version="1.1" id="Layer_1" xmlns="http://www.w3.org/2000/svg" xmlns:xlink="http://www.w3.org/1999/xlink" x="0px" y="0px"
	 width="850.391px" height="850.39px" viewBox="0 0 850.391 850.39" enable-background="new 0 0 850.391 850.39"
	 xml:space="preserve">
<g id="Original" display="none">
	<polygon display="inline" fill="none" stroke="#010101" stroke-width="0.01" points="260.445,455.841 259.02,455.537 
		257.684,454.943 256.504,454.087 255.523,453.001 254.793,451.736 254.34,450.345 254.188,448.892 254.188,417.655 254.34,416.202 
		254.793,414.811 255.523,413.545 256.504,412.459 257.684,411.6 259.02,411.006 260.445,410.702 261.91,410.702 263.336,411.006 
		264.672,411.6 265.855,412.459 266.832,413.545 267.562,414.811 268.016,416.202 268.168,417.655 268.168,448.892 268.016,450.345 
		267.562,451.736 266.832,453.001 265.855,454.087 264.672,454.943 263.336,455.537 261.91,455.841 	"/>
	<polygon display="inline" fill="none" stroke="#010101" stroke-width="0.01" points="388.244,455.841 386.82,455.537 
		385.484,454.943 384.302,454.087 383.323,453.001 382.594,451.736 382.141,450.345 381.988,448.892 381.988,417.655 
		382.141,416.202 382.594,414.811 383.323,413.545 384.302,412.459 385.484,411.6 386.82,411.006 388.244,410.702 389.712,410.702 
		391.137,411.006 392.473,411.6 393.656,412.459 394.634,413.545 395.363,414.811 395.816,416.202 395.969,417.655 395.969,448.892 
		395.816,450.345 395.363,451.736 394.634,453.001 393.656,454.087 392.473,454.943 391.137,455.537 389.712,455.841 	"/>
	<rect x="353.477" y="397.772" display="inline" fill="none" stroke="#010101" stroke-width="0.01" width="71" height="8.52"/>
	<rect x="225.68" y="397.772" display="inline" fill="none" stroke="#010101" stroke-width="0.01" width="71" height="8.52"/>
	<polygon display="inline" fill="none" stroke="#010101" stroke-width="0.01" points="324.348,408.983 322.923,408.678 
		321.58,408.084 320.402,407.229 319.423,406.139 318.695,404.877 318.24,403.487 318.091,402.034 318.24,400.581 318.695,399.19 
		319.423,397.928 320.402,396.842 321.58,395.983 322.923,395.385 324.348,395.084 325.809,395.084 327.234,395.385 
		328.573,395.983 329.755,396.842 330.734,397.928 331.462,399.19 331.912,400.581 332.066,402.034 331.912,403.487 
		331.462,404.877 330.734,406.139 329.755,407.229 328.573,408.084 327.234,408.678 325.809,408.983 	"/>
	<rect x="225.68" y="369.374" display="inline" fill="none" stroke="#010101" stroke-width="0.01" width="71" height="8.52"/>
	<rect x="353.477" y="369.374" display="inline" fill="none" stroke="#010101" stroke-width="0.01" width="71" height="8.52"/>
	<polygon display="inline" fill="none" stroke="#010101" stroke-width="0.01" points="324.348,380.584 322.923,380.28 
		321.58,379.686 320.402,378.827 319.423,377.741 318.695,376.475 318.24,375.088 318.091,373.635 318.24,372.178 318.695,370.792 
		319.423,369.526 320.402,368.44 321.58,367.581 322.923,366.987 324.348,366.682 325.809,366.682 327.234,366.987 328.573,367.581 
		329.755,368.44 330.734,369.526 331.462,370.792 331.912,372.178 332.066,373.635 331.912,375.088 331.462,376.475 
		330.734,377.741 329.755,378.827 328.573,379.686 327.234,380.28 325.809,380.584 	"/>
	<polygon display="inline" fill="none" stroke="#010101" stroke-width="0.01" points="313.719,465.931 313.719,437.533 
		313.969,435.169 314.698,432.912 315.887,430.853 317.48,429.091 319.398,427.697 321.566,426.728 323.891,426.232 
		326.266,426.232 328.591,426.728 330.759,427.697 332.677,429.091 334.27,430.853 335.455,432.912 336.188,435.169 
		336.438,437.533 336.438,465.931 438.68,465.931 438.68,360.854 438.244,356.721 436.955,352.764 434.884,349.17 432.102,346.081 
		428.738,343.635 424.941,341.948 420.88,341.081 229.277,341.081 225.215,341.948 221.418,343.635 218.058,346.081 215.273,349.17 
		213.199,352.764 211.91,356.721 211.476,360.854 211.476,465.931 	"/>
	<polygon display="inline" fill="none" stroke="#010101" stroke-width="0.01" points="68.59,255.725 66.844,255.358 65.219,254.631 
		63.777,253.584 62.582,252.26 61.695,250.721 61.144,249.022 60.957,247.252 60.957,207.494 61.144,205.726 61.695,204.026 
		62.582,202.483 63.777,201.163 65.219,200.115 66.844,199.39 68.59,199.022 144.207,199.022 145.953,199.39 147.578,200.115 
		149.019,201.163 150.215,202.483 151.101,204.026 151.652,205.726 151.84,207.494 151.84,247.252 151.652,249.022 151.101,250.721 
		150.215,252.26 149.019,253.584 147.578,254.631 145.953,255.358 144.207,255.725 	"/>
	<polygon display="inline" fill="none" stroke="#010101" stroke-width="0.01" points="105.887,124.326 104.883,124.111 
		103.949,123.697 103.121,123.092 102.433,122.331 101.922,121.444 101.605,120.471 101.5,119.451 101.605,118.437 101.922,117.463 
		102.433,116.572 103.121,115.815 103.949,115.209 104.883,114.795 105.887,114.584 106.91,114.584 107.914,114.795 
		108.847,115.209 109.676,115.815 110.363,116.572 110.875,117.463 111.191,118.437 111.297,119.451 111.191,120.471 
		110.875,121.444 110.363,122.331 109.676,123.092 108.847,123.697 107.914,124.111 106.91,124.326 	"/>
	<polygon display="inline" fill="none" stroke="#010101" stroke-width="0.01" points="78,318.252 99.41,318.252 99.41,306.987 
		95.039,306.987 95.039,295.44 99.41,295.44 99.41,284.174 113.387,284.174 113.387,295.44 117.758,295.44 117.758,306.987 
		113.387,306.987 113.387,318.252 134.797,318.252 134.797,329.612 205.797,329.612 205.797,139.303 205.203,139.303 
		204.043,139.058 202.957,138.572 202,137.874 201.203,136.99 200.609,135.967 200.242,134.834 200.117,133.654 200.242,132.471 
		200.609,131.342 201.203,130.315 202,129.433 202.957,128.733 204.043,128.252 205.203,128.002 205.797,128.002 205.797,110.933 
		205.488,107.983 204.574,105.158 203.086,102.584 201.101,100.381 198.699,98.635 195.984,97.428 193.082,96.812 19.711,96.812 
		16.812,97.428 14.097,98.635 11.695,100.381 9.711,102.584 8.222,105.158 7.308,107.983 7,110.933 7,128.002 7.594,128.002 
		8.754,128.252 9.84,128.733 10.797,129.433 11.594,130.315 12.187,131.342 12.554,132.471 12.679,133.654 12.554,134.834 
		12.187,135.967 11.594,136.99 10.797,137.874 9.84,138.572 8.754,139.058 7.594,139.303 7,139.303 7,329.612 78,329.612 	"/>
	<rect x="239.879" y="315.413" display="inline" fill="none" stroke="#010101" stroke-width="0.01" width="71.001" height="8.523"/>
	<rect x="339.277" y="315.413" display="inline" fill="none" stroke="#010101" stroke-width="0.01" width="71" height="8.523"/>
	<polygon display="inline" fill="none" stroke="#010101" stroke-width="0.01" points="324.348,326.624 322.923,326.319 
		321.58,325.725 320.402,324.87 319.423,323.78 318.695,322.518 318.24,321.127 318.091,319.674 318.24,318.221 318.695,316.831 
		319.423,315.565 320.402,314.479 321.58,313.624 322.923,313.026 324.348,312.721 325.809,312.721 327.234,313.026 
		328.573,313.624 329.755,314.479 330.734,315.565 331.462,316.831 331.912,318.221 332.066,319.674 331.912,321.127 
		331.462,322.518 330.734,323.78 329.755,324.87 328.573,325.725 327.234,326.319 325.809,326.624 	"/>
	<polygon display="inline" fill="none" stroke="#010101" stroke-width="0.01" points="438.68,93.894 438.365,90.944 437.451,88.119 
		435.966,85.545 433.98,83.342 431.576,81.596 428.865,80.385 425.962,79.772 224.195,79.772 221.289,80.385 218.578,81.596 
		216.176,83.342 214.191,85.545 212.703,88.119 211.789,90.944 211.476,93.894 211.476,335.292 438.68,335.292 	"/>
	<polygon display="inline" fill="none" stroke="#010101" stroke-width="0.01" points="56.414,89.522 62.379,86.869 67.66,83.029 
		72.031,78.178 75.297,72.522 77.316,66.308 78,59.815 77.316,53.319 75.297,47.108 72.031,41.451 67.66,36.596 62.379,32.76 
		56.414,30.104 50.027,28.744 43.492,28.744 37.105,30.104 31.137,32.76 25.859,36.596 21.488,41.451 18.219,47.108 16.199,53.319 
		15.519,59.815 16.199,66.308 18.219,72.522 21.488,78.178 25.859,83.029 31.137,86.869 37.105,89.522 43.492,90.885 50.027,90.885 
			"/>
	<polygon display="inline" fill="none" stroke="#010101" stroke-width="0.01" points="176.887,64.687 175.883,64.471 
		174.949,64.058 174.121,63.451 173.433,62.694 172.922,61.808 172.605,60.831 172.5,59.815 172.605,58.795 172.922,57.819 
		173.433,56.937 174.121,56.174 174.949,55.569 175.883,55.154 176.887,54.94 177.91,54.94 178.914,55.154 179.847,55.569 
		180.676,56.174 181.363,56.937 181.875,57.819 182.191,58.795 182.297,59.815 182.191,60.831 181.875,61.808 181.363,62.694 
		180.676,63.451 179.847,64.058 178.914,64.471 177.91,64.687 	"/>
	<polygon display="inline" fill="none" stroke="#010101" stroke-width="0.01" points="187.051,89.522 193.019,86.869 
		198.301,83.029 202.672,78.178 205.937,72.522 207.957,66.308 208.637,59.815 207.957,53.319 205.937,47.108 202.672,41.451 
		198.301,36.596 193.019,32.76 187.051,30.104 180.664,28.744 174.133,28.744 167.742,30.104 161.777,32.76 156.496,36.596 
		152.125,41.451 148.859,47.108 146.84,53.319 146.16,59.815 146.84,66.308 148.859,72.522 152.125,78.178 156.496,83.029 
		161.777,86.869 167.742,89.522 174.133,90.885 180.664,90.885 	"/>
	<polygon display="inline" fill="none" stroke="#010101" stroke-width="0.01" points="121.734,89.522 127.699,86.869 132.98,83.029 
		137.351,78.178 140.617,72.522 142.637,66.308 143.316,59.815 142.637,53.319 140.617,47.108 137.351,41.451 132.98,36.596 
		127.699,32.76 121.734,30.104 115.344,28.744 108.812,28.744 102.426,30.104 96.457,32.76 91.176,36.596 86.804,41.451 
		83.539,47.108 81.519,53.319 80.84,59.815 81.519,66.308 83.539,72.522 86.804,78.178 91.176,83.029 96.457,86.869 102.426,89.522 
		108.812,90.885 115.344,90.885 	"/>
	<polygon display="inline" fill="none" stroke="#010101" stroke-width="0.01" points="260.668,23.506 259.664,23.292 258.73,22.877 
		257.898,22.272 257.215,21.51 256.703,20.627 256.388,19.651 256.281,18.635 256.388,17.615 256.703,16.64 257.215,15.756 
		257.898,14.994 258.73,14.39 259.664,13.976 260.668,13.76 261.688,13.76 262.691,13.976 263.629,14.39 264.457,14.994 
		265.141,15.756 265.656,16.64 265.973,17.615 266.078,18.635 265.973,19.651 265.656,20.627 265.141,21.51 264.457,22.272 
		263.629,22.877 262.691,23.292 261.688,23.506 	"/>
	<polygon display="inline" fill="none" stroke="#010101" stroke-width="0.01" points="388.469,23.506 387.466,23.292 
		386.531,22.877 385.698,22.272 385.016,21.51 384.505,20.627 384.188,19.651 384.08,18.635 384.188,17.615 384.505,16.64 
		385.016,15.756 385.698,14.994 386.531,14.39 387.466,13.976 388.469,13.76 389.488,13.76 390.49,13.976 391.427,14.39 
		392.259,14.994 392.941,15.756 393.451,16.64 393.77,17.615 393.876,18.635 393.77,19.651 393.451,20.627 392.941,21.51 
		392.259,22.272 391.427,22.877 390.49,23.292 389.488,23.506 	"/>
	<polygon display="inline" fill="none" stroke="#010101" stroke-width="0.01" points="310.88,62.654 318.091,62.654 318.091,51.39 
		313.719,51.39 313.719,39.842 318.091,39.842 318.091,28.572 332.066,28.572 332.066,39.842 336.438,39.842 336.438,51.39 
		332.066,51.39 332.066,62.654 339.277,62.654 339.277,71.174 410.277,71.174 410.277,62.654 438.68,62.654 438.68,20.053 
		438.365,17.101 437.451,14.276 435.966,11.706 433.98,9.499 431.576,7.756 428.865,6.549 425.962,5.933 224.195,5.933 
		221.289,6.549 218.578,7.756 216.176,9.499 214.191,11.706 212.703,14.276 211.789,17.101 211.476,20.053 211.476,62.654 
		239.879,62.654 239.879,71.174 310.88,71.174 	"/>
</g>
<polygon fill="none" stroke="#00FF00" stroke-width="0.025" points="69.553,261.788 67.808,261.42 66.183,260.693 64.74,259.646 
	63.545,258.322 62.658,256.784 62.108,255.084 61.92,253.314 61.92,213.557 62.108,211.789 62.658,210.088 63.545,208.545 
	64.74,207.226 66.183,206.178 67.808,205.453 69.553,205.084 145.17,205.084 146.916,205.453 148.541,206.178 149.983,207.226 
	151.178,208.545 152.065,210.088 152.615,211.789 152.803,213.557 152.803,253.314 152.615,255.084 152.065,256.784 
	151.178,258.322 149.983,259.646 148.541,260.693 146.916,261.42 145.17,261.788 "/>
<polygon fill="none" stroke="#00FF00" stroke-width="0.025" points="106.438,148.376 104.621,147.984 102.932,147.232 
	101.435,146.131 100.192,144.748 99.266,143.134 98.694,141.365 98.503,139.51 98.694,137.666 99.266,135.895 100.192,134.275 
	101.435,132.898 102.932,131.796 104.621,131.043 106.438,130.659 108.287,130.659 110.102,131.043 111.791,131.796 
	113.288,132.898 114.531,134.275 115.457,135.895 116.029,137.666 116.22,139.51 116.029,141.365 115.457,143.134 114.531,144.748 
	113.288,146.131 111.791,147.232 110.102,147.984 108.287,148.376 "/>
<polygon fill="none" stroke="#00FF00" stroke-width="0.025" points="78.656,324.314 98.195,324.314 98.195,316.684 91.463,316.684 
	91.463,301.502 98.195,301.502 98.195,282.195 115.908,282.195 115.908,301.502 122.644,301.502 122.644,316.684 115.908,316.684 
	115.908,324.314 135.452,324.314 135.452,335.674 206.452,335.674 206.452,145.365 205.859,145.365 204.698,145.121 
	203.613,144.635 202.656,143.937 201.859,143.053 201.265,142.029 200.898,140.896 200.773,139.716 200.898,138.534 
	201.265,137.404 201.859,136.377 202.656,135.496 203.613,134.795 204.698,134.314 205.859,134.064 206.452,134.064 
	206.452,116.996 206.143,114.045 205.23,111.221 203.741,108.646 201.757,106.443 199.355,104.697 196.64,103.49 193.738,102.875 
	20.366,102.875 17.468,103.49 14.753,104.697 12.351,106.443 10.366,108.646 8.878,111.221 7.964,114.045 7.656,116.996 
	7.656,134.064 8.25,134.064 9.409,134.314 10.495,134.795 11.452,135.496 12.25,136.377 12.843,137.404 13.21,138.534 
	13.335,139.716 13.21,140.896 12.843,142.029 12.25,143.053 11.452,143.937 10.495,144.635 9.409,145.121 8.25,145.365 
	7.656,145.365 7.656,335.674 78.656,335.674 "/>
<polygon fill="none" stroke="#00FF00" stroke-width="0.025" points="56.414,91.522 62.379,88.869 67.66,85.029 72.031,80.178 
	75.297,74.522 77.316,68.308 78,61.815 77.316,55.319 75.297,49.108 72.031,43.451 67.66,38.596 62.379,34.76 56.414,32.104 
	50.027,30.744 43.492,30.744 37.105,32.104 31.137,34.76 25.859,38.596 21.488,43.451 18.219,49.108 16.199,55.319 15.519,61.815 
	16.199,68.308 18.219,74.522 21.488,80.178 25.859,85.029 31.137,88.869 37.105,91.522 43.492,92.885 50.027,92.885 "/>
<polygon fill="none" stroke="#00FF00" stroke-width="0.025" points="176.474,70.068 174.657,69.675 172.969,68.925 171.471,67.821 
	170.228,66.445 169.303,64.835 168.731,63.059 168.54,61.212 168.731,59.358 169.303,57.584 170.228,55.981 171.471,54.594 
	172.969,53.494 174.657,52.74 176.474,52.351 178.323,52.351 180.139,52.74 181.827,53.494 183.325,54.594 184.568,55.981 
	185.493,57.584 186.066,59.358 186.257,61.212 186.066,63.059 185.493,64.835 184.568,66.445 183.325,67.821 181.827,68.925 
	180.139,69.675 178.323,70.068 "/>
<polygon fill="none" stroke="#00FF00" stroke-width="0.025" points="187.051,90.918 193.019,88.265 198.301,84.425 202.672,79.574 
	205.937,73.918 207.957,67.704 208.637,61.211 207.957,54.715 205.937,48.504 202.672,42.847 198.301,37.992 193.019,34.156 
	187.051,31.5 180.664,30.14 174.133,30.14 167.742,31.5 161.777,34.156 156.496,37.992 152.125,42.847 148.859,48.504 
	146.84,54.715 146.16,61.211 146.84,67.704 148.859,73.918 152.125,79.574 156.496,84.425 161.777,88.265 167.742,90.918 
	174.133,92.281 180.664,92.281 "/>
<polygon fill="none" stroke="#00FF00" stroke-width="0.025" points="122.422,91.418 128.386,88.765 133.668,84.925 138.039,80.074 
	141.304,74.418 143.325,68.204 144.004,61.711 143.325,55.215 141.304,49.004 138.039,43.347 133.668,38.492 128.386,34.656 
	122.422,32 116.032,30.64 109.5,30.64 103.113,32 97.144,34.656 91.863,38.492 87.492,43.347 84.226,49.004 82.207,55.215 
	81.527,61.711 82.207,68.204 84.226,74.418 87.492,80.074 91.863,84.925 97.144,88.765 103.113,91.418 109.5,92.781 116.032,92.781 
	"/>
<polygon fill="none" stroke="#00FF00" stroke-width="0.025" points="260.254,26.558 258.439,26.17 256.75,25.415 255.246,24.315 
	254.01,22.93 253.084,21.325 252.515,19.55 252.321,17.703 252.515,15.85 253.084,14.078 254.01,12.47 255.246,11.086 256.75,9.987 
	258.439,9.235 260.254,8.841 262.099,8.841 263.913,9.235 265.609,9.987 267.106,11.086 268.344,12.47 269.275,14.078 
	269.849,15.85 270.038,17.703 269.849,19.55 269.275,21.325 268.344,22.93 267.106,24.315 265.609,25.415 263.913,26.17 
	262.099,26.558 "/>
<polygon fill="none" stroke="#00FF00" stroke-width="0.025" points="388.057,26.558 386.24,26.17 384.551,25.415 383.046,24.315 
	381.811,22.93 380.885,21.325 380.313,19.55 380.118,17.703 380.313,15.85 380.885,14.078 381.811,12.47 383.046,11.086 
	384.551,9.987 386.24,9.235 388.057,8.841 389.9,8.841 391.716,9.235 393.406,9.987 394.91,11.086 396.146,12.47 397.072,14.078 
	397.646,15.85 397.837,17.703 397.646,19.55 397.072,21.325 396.146,22.93 394.91,24.315 393.406,25.415 391.716,26.17 
	389.9,26.558 "/>
<polygon fill="none" stroke="#00FF00" stroke-width="0.025" points="260.755,51.29 258.939,50.902 257.251,50.147 255.747,49.047 
	254.51,47.662 253.585,46.057 253.015,44.282 252.821,42.435 253.015,40.582 253.585,38.81 254.51,37.202 255.747,35.818 
	257.251,34.719 258.939,33.967 260.755,33.573 262.599,33.573 264.414,33.967 266.109,34.719 267.606,35.818 268.844,37.202 
	269.775,38.81 270.349,40.582 270.539,42.435 270.349,44.282 269.775,46.057 268.844,47.662 267.606,49.047 266.109,50.147 
	264.414,50.902 262.599,51.29 "/>
<polygon fill="none" stroke="#00FF00" stroke-width="0.025" points="388.557,51.29 386.74,50.902 385.052,50.147 383.547,49.047 
	382.311,47.662 381.385,46.057 380.813,44.282 380.619,42.435 380.813,40.582 381.385,38.81 382.311,37.202 383.547,35.818 
	385.052,34.719 386.74,33.967 388.557,33.573 390.4,33.573 392.217,33.967 393.906,34.719 395.411,35.818 396.646,37.202 
	397.572,38.81 398.146,40.582 398.338,42.435 398.146,44.282 397.572,46.057 396.646,47.662 395.411,49.047 393.906,50.147 
	392.217,50.902 390.4,51.29 "/>
<polygon fill="none" stroke="#00FF00" points="302.363,78.53 316.315,78.654 316.315,52.512 309.581,52.648 309.581,37.058 
	316.21,37.027 316.221,8.841 333.935,8.841 334.029,37.058 340.764,37.058 340.764,52.648 334.029,52.648 334.029,78.654 
	347.029,78.53 347.029,87.05 410.277,86.684 410.277,78.164 438.68,78.164 438.68,19.12 438.365,16.168 437.451,13.343 
	435.966,10.773 433.98,8.566 431.576,6.823 428.865,5.616 425.962,5 224.195,5 221.289,5.616 218.578,6.823 216.176,8.566 
	214.191,10.773 212.703,13.343 211.789,16.168 211.476,19.12 211.476,78.164 239.879,78.164 239.879,86.684 302.363,87.05 "/>
<g enable-background="new    ">
	<path fill="none" stroke="#3D58A7" stroke-width="0.025" d="M171.547,456.046c-0.174-0.01-0.397,0-0.64,0.039
		c-1.339,0.223-2.046,1.201-2.189,2.238h0.029c0.3-0.396,0.822-0.73,1.521-0.73c1.114,0,1.899,0.809,1.899,2.035
		c0,1.154-0.785,2.219-2.093,2.219c-1.349,0-2.229-1.045-2.229-2.684c0-1.24,0.446-2.219,1.066-2.838
		c0.521-0.514,1.221-0.834,2.015-0.932c0.252-0.039,0.465-0.049,0.62-0.049L171.547,456.046L171.547,456.046z M171.304,459.681
		c0-0.9-0.514-1.443-1.298-1.443c-0.514,0-0.988,0.318-1.221,0.773c-0.061,0.098-0.099,0.225-0.099,0.379
		c0.021,1.037,0.494,1.803,1.388,1.803C170.81,461.193,171.304,460.582,171.304,459.681z"/>
	<path fill="none" stroke="#3D58A7" stroke-width="0.025" d="M178.727,458.876c-0.048-0.912-0.104-2.006-0.097-2.82h-0.029
		c-0.223,0.768-0.494,1.58-0.823,2.48l-1.151,3.168h-0.641l-1.056-3.109c-0.31-0.92-0.572-1.764-0.756-2.539h-0.021
		c-0.02,0.814-0.066,1.908-0.126,2.889l-0.174,2.801h-0.804l0.456-6.531h1.075l1.112,3.158c0.271,0.805,0.494,1.521,0.659,2.199
		h0.029c0.165-0.658,0.396-1.375,0.688-2.199l1.163-3.158h1.076l0.407,6.531h-0.823L178.727,458.876z"/>
	<path fill="none" stroke="#3D58A7" stroke-width="0.025" d="M183.002,461.746c0.02-0.32,0.039-0.795,0.039-1.211v-5.67h0.843v2.945
		h0.02c0.302-0.521,0.845-0.861,1.601-0.861c1.163,0,1.984,0.969,1.977,2.393c0,1.678-1.056,2.51-2.103,2.51
		c-0.678,0-1.221-0.262-1.57-0.881h-0.029l-0.038,0.775H183.002L183.002,461.746z M183.884,459.865c0,0.105,0.02,0.213,0.039,0.311
		c0.165,0.592,0.659,0.998,1.279,0.998c0.891,0,1.424-0.727,1.424-1.803c0-0.939-0.484-1.744-1.396-1.744
		c-0.581,0-1.124,0.398-1.298,1.047c-0.019,0.098-0.048,0.213-0.048,0.352V459.865z"/>
	<path fill="none" stroke="#3D58A7" stroke-width="0.025" d="M192.799,459.361c0,1.734-1.201,2.49-2.335,2.49
		c-1.271,0-2.248-0.93-2.248-2.412c0-1.57,1.027-2.49,2.326-2.49C191.888,456.949,192.799,457.927,192.799,459.361z M189.078,459.41
		c0,1.027,0.591,1.803,1.424,1.803c0.812,0,1.424-0.766,1.424-1.822c0-0.795-0.397-1.801-1.405-1.801
		S189.078,458.517,189.078,459.41z"/>
	<path fill="none" stroke="#3D58A7" stroke-width="0.025" d="M193.876,454.865h0.853v6.881h-0.853V454.865z"/>
	<path fill="none" stroke="#3D58A7" stroke-width="0.025" d="M197.19,455.708v1.346h1.223v0.65h-1.223v2.527
		c0,0.582,0.165,0.908,0.642,0.908c0.223,0,0.387-0.025,0.494-0.059l0.037,0.641c-0.163,0.068-0.426,0.115-0.756,0.115
		c-0.396,0-0.717-0.125-0.92-0.355c-0.242-0.254-0.33-0.668-0.33-1.223v-2.559h-0.727v-0.648h0.727v-1.125L197.19,455.708z"/>
	<path fill="none" stroke="#3D58A7" stroke-width="0.025" d="M199.255,460.873c0.252,0.166,0.698,0.34,1.124,0.34
		c0.62,0,0.911-0.311,0.911-0.697c0-0.404-0.242-0.631-0.872-0.859c-0.843-0.305-1.24-0.77-1.24-1.328
		c0-0.756,0.61-1.375,1.618-1.375c0.475,0,0.891,0.135,1.153,0.289l-0.215,0.621c-0.184-0.117-0.521-0.271-0.959-0.271
		c-0.504,0-0.783,0.289-0.783,0.639c0,0.389,0.279,0.562,0.891,0.795c0.812,0.311,1.229,0.717,1.229,1.416
		c0,0.822-0.639,1.402-1.753,1.402c-0.514,0-0.986-0.125-1.316-0.318L199.255,460.873z"/>
</g>
<g enable-background="new    ">
	<path fill="none" stroke="#3D58A7" stroke-width="0.025" d="M78.193,442.8c0.428-0.086,1.037-0.135,1.618-0.135
		c0.901,0,1.482,0.164,1.892,0.533c0.327,0.289,0.513,0.732,0.513,1.236c0,0.863-0.542,1.438-1.23,1.666v0.029
		c0.504,0.176,0.806,0.641,0.959,1.318c0.214,0.91,0.368,1.541,0.504,1.793h-0.87c-0.107-0.186-0.253-0.746-0.438-1.561
		c-0.194-0.9-0.543-1.24-1.308-1.27h-0.794v2.828h-0.845L78.193,442.8L78.193,442.8z M79.036,445.777h0.86
		c0.901,0,1.475-0.494,1.475-1.24c0-0.844-0.61-1.211-1.502-1.221c-0.407,0-0.698,0.037-0.833,0.076V445.777z"/>
	<path fill="none" stroke="#3D58A7" stroke-width="0.025" d="M83.407,442.792c0.405-0.068,0.938-0.127,1.616-0.127
		c0.833,0,1.444,0.193,1.831,0.543c0.359,0.311,0.572,0.785,0.572,1.367c0,0.59-0.174,1.055-0.504,1.395
		c-0.445,0.477-1.172,0.717-1.996,0.717c-0.252,0-0.485-0.01-0.678-0.059v2.617h-0.844v-6.453H83.407z M84.25,445.941
		c0.184,0.049,0.417,0.066,0.695,0.066c1.02,0,1.64-0.494,1.64-1.395c0-0.863-0.61-1.279-1.541-1.279
		c-0.368,0-0.649,0.029-0.794,0.068V445.941z"/>
	<path fill="none" stroke="#3D58A7" stroke-width="0.025" d="M89.328,443.238c0.01,0.291-0.203,0.521-0.542,0.521
		c-0.302,0-0.516-0.23-0.516-0.521c0-0.301,0.225-0.533,0.533-0.533C89.125,442.705,89.328,442.937,89.328,443.238z M88.379,449.246
		v-4.689h0.853v4.689H88.379z"/>
	<path fill="none" stroke="#3D58A7" stroke-width="0.025" d="M93.573,442.714v2.732h3.159v-2.732h0.854v6.529h-0.854v-3.062h-3.159
		v3.062H92.73v-6.529H93.573z"/>
	<path fill="none" stroke="#3D58A7" stroke-width="0.025" d="M101.617,449.246l-0.068-0.592h-0.029
		c-0.261,0.369-0.765,0.697-1.434,0.697c-0.949,0-1.436-0.668-1.436-1.348c0-1.133,1.009-1.754,2.819-1.744v-0.096
		c0-0.389-0.104-1.086-1.066-1.086c-0.436,0-0.891,0.135-1.221,0.35l-0.192-0.562c0.388-0.252,0.948-0.416,1.539-0.416
		c1.436,0,1.783,0.979,1.783,1.918v1.754c0,0.408,0.021,0.805,0.078,1.125H101.617L101.617,449.246z M101.491,446.851
		c-0.932-0.02-1.986,0.146-1.986,1.057c0,0.553,0.368,0.812,0.804,0.812c0.61,0,0.998-0.387,1.134-0.783
		c0.029-0.088,0.05-0.186,0.05-0.271L101.491,446.851L101.491,446.851z"/>
	<path fill="none" stroke="#3D58A7" stroke-width="0.025" d="M107.034,449.07c-0.225,0.115-0.719,0.271-1.349,0.271
		c-1.415,0-2.335-0.959-2.335-2.393c0-1.445,0.988-2.49,2.521-2.49c0.504,0,0.948,0.125,1.182,0.242l-0.193,0.658
		c-0.204-0.117-0.521-0.227-0.987-0.227c-1.075,0-1.657,0.795-1.657,1.773c0,1.086,0.698,1.754,1.628,1.754
		c0.484,0,0.804-0.125,1.046-0.232L107.034,449.07z"/>
	<path fill="none" stroke="#3D58A7" stroke-width="0.025" d="M108.876,446.707h0.02c0.116-0.164,0.281-0.369,0.417-0.533
		l1.376-1.617h1.027l-1.812,1.93l2.064,2.762h-1.037L109.313,447l-0.436,0.484v1.764h-0.843v-6.879h0.843L108.876,446.707
		L108.876,446.707z"/>
	<path fill="none" stroke="#3D58A7" stroke-width="0.025" d="M113.605,443.208v1.346h1.223v0.65h-1.223v2.527
		c0,0.582,0.165,0.908,0.642,0.908c0.223,0,0.387-0.025,0.492-0.059l0.039,0.641c-0.165,0.068-0.426,0.115-0.756,0.115
		c-0.396,0-0.717-0.125-0.92-0.355c-0.242-0.254-0.33-0.668-0.33-1.223v-2.559h-0.727v-0.648h0.727v-1.125L113.605,443.208z"/>
	<path fill="none" stroke="#3D58A7" stroke-width="0.025" d="M116.203,447.054c0.02,1.152,0.756,1.629,1.606,1.629
		c0.61,0,0.979-0.107,1.298-0.242l0.146,0.609c-0.3,0.135-0.814,0.291-1.562,0.291c-1.442,0-2.306-0.949-2.306-2.365
		c0-1.414,0.833-2.527,2.2-2.527c1.531,0,1.938,1.348,1.938,2.209c0,0.174-0.019,0.311-0.027,0.396H116.203L116.203,447.054z
		 M118.703,446.445c0.009-0.543-0.225-1.387-1.184-1.387c-0.86,0-1.24,0.795-1.308,1.387H118.703z"/>
	<path fill="none" stroke="#3D58A7" stroke-width="0.025" d="M120.583,446.017c0-0.553-0.012-1.025-0.039-1.463h0.746l0.027,0.92
		h0.039c0.213-0.629,0.729-1.025,1.298-1.025c0.099,0,0.165,0.01,0.242,0.027v0.807c-0.087-0.021-0.174-0.029-0.291-0.029
		c-0.601,0-1.025,0.455-1.144,1.094c-0.021,0.117-0.039,0.252-0.039,0.398v2.5h-0.843v-3.229H120.583L120.583,446.017z"/>
	<path fill="none" stroke="#3D58A7" stroke-width="0.025" d="M124.74,443.238c0.01,0.291-0.203,0.521-0.544,0.521
		c-0.3,0-0.514-0.23-0.514-0.521c0-0.301,0.225-0.533,0.533-0.533C124.537,442.705,124.74,442.937,124.74,443.238z M123.791,449.246
		v-4.689h0.853v4.689H123.791z"/>
	<path fill="none" stroke="#3D58A7" stroke-width="0.025" d="M128.656,449.246l-0.066-0.592h-0.029
		c-0.262,0.369-0.765,0.697-1.434,0.697c-0.949,0-1.436-0.668-1.436-1.348c0-1.133,1.009-1.754,2.819-1.744v-0.096
		c0-0.389-0.106-1.086-1.066-1.086c-0.436,0-0.891,0.135-1.221,0.35l-0.194-0.562c0.39-0.252,0.95-0.416,1.541-0.416
		c1.436,0,1.783,0.979,1.783,1.918v1.754c0,0.408,0.021,0.805,0.078,1.125H128.656L128.656,449.246z M128.53,446.851
		c-0.93-0.02-1.984,0.146-1.984,1.057c0,0.553,0.368,0.812,0.804,0.812c0.61,0,0.998-0.387,1.134-0.783
		c0.029-0.088,0.048-0.186,0.048-0.271L128.53,446.851L128.53,446.851z"/>
	<path fill="none" stroke="#3D58A7" stroke-width="0.025" d="M138.317,446.376c-0.048-0.912-0.104-2.006-0.097-2.82h-0.029
		c-0.223,0.768-0.494,1.58-0.821,2.48l-1.153,3.168h-0.639l-1.058-3.109c-0.31-0.92-0.572-1.764-0.756-2.539h-0.02
		c-0.021,0.814-0.068,1.908-0.126,2.889l-0.176,2.801h-0.804l0.456-6.531h1.075l1.114,3.158c0.271,0.805,0.492,1.521,0.657,2.199
		h0.029c0.165-0.658,0.397-1.375,0.688-2.199l1.161-3.158h1.076l0.407,6.531h-0.823L138.317,446.376z"/>
	<path fill="none" stroke="#3D58A7" stroke-width="0.025" d="M141.642,443.238c0.01,0.291-0.203,0.521-0.542,0.521
		c-0.3,0-0.514-0.23-0.514-0.521c0-0.301,0.223-0.533,0.533-0.533C141.439,442.705,141.642,442.937,141.642,443.238z
		 M140.693,449.246v-4.689h0.854v4.689H140.693z"/>
	<path fill="none" stroke="#3D58A7" stroke-width="0.025" d="M146.303,449.07c-0.223,0.115-0.717,0.271-1.347,0.271
		c-1.415,0-2.335-0.959-2.335-2.393c0-1.445,0.986-2.49,2.519-2.49c0.504,0,0.95,0.125,1.182,0.242l-0.192,0.658
		c-0.203-0.117-0.523-0.227-0.988-0.227c-1.075,0-1.657,0.795-1.657,1.773c0,1.086,0.698,1.754,1.628,1.754
		c0.484,0,0.806-0.125,1.048-0.232L146.303,449.07z"/>
	<path fill="none" stroke="#3D58A7" stroke-width="0.025" d="M147.302,446.017c0-0.553-0.01-1.025-0.039-1.463h0.746l0.029,0.92
		h0.039c0.213-0.629,0.727-1.025,1.298-1.025c0.097,0,0.165,0.01,0.242,0.027v0.807c-0.089-0.021-0.176-0.029-0.291-0.029
		c-0.603,0-1.027,0.455-1.146,1.094c-0.019,0.117-0.039,0.252-0.039,0.398v2.5H147.3v-3.229H147.302L147.302,446.017z"/>
	<path fill="none" stroke="#3D58A7" stroke-width="0.025" d="M154.618,446.861c0,1.734-1.201,2.49-2.335,2.49
		c-1.271,0-2.248-0.93-2.248-2.412c0-1.57,1.025-2.49,2.324-2.49C153.708,444.449,154.618,445.427,154.618,446.861z M150.898,446.91
		c0,1.027,0.591,1.803,1.424,1.803c0.814,0,1.426-0.766,1.426-1.822c0-0.795-0.397-1.801-1.405-1.801
		S150.898,446.017,150.898,446.91z"/>
	<path fill="none" stroke="#3D58A7" stroke-width="0.025" d="M155.578,448.373c0.252,0.166,0.696,0.34,1.124,0.34
		c0.618,0,0.909-0.311,0.909-0.697c0-0.404-0.24-0.631-0.87-0.859c-0.845-0.305-1.24-0.77-1.24-1.328
		c0-0.756,0.608-1.375,1.618-1.375c0.475,0,0.891,0.135,1.151,0.289l-0.213,0.621c-0.184-0.117-0.521-0.271-0.959-0.271
		c-0.504,0-0.785,0.289-0.785,0.639c0,0.389,0.281,0.562,0.893,0.795c0.812,0.311,1.229,0.717,1.229,1.416
		c0,0.822-0.639,1.402-1.753,1.402c-0.514,0-0.988-0.125-1.318-0.318L155.578,448.373z"/>
	<path fill="none" stroke="#3D58A7" stroke-width="0.025" d="M162.876,449.07c-0.225,0.115-0.717,0.271-1.349,0.271
		c-1.415,0-2.335-0.959-2.335-2.393c0-1.445,0.988-2.49,2.521-2.49c0.504,0,0.95,0.125,1.182,0.242l-0.192,0.658
		c-0.203-0.117-0.523-0.227-0.988-0.227c-1.075,0-1.657,0.795-1.657,1.773c0,1.086,0.698,1.754,1.628,1.754
		c0.484,0,0.804-0.125,1.046-0.232L162.876,449.07z"/>
	<path fill="none" stroke="#3D58A7" stroke-width="0.025" d="M168.06,446.861c0,1.734-1.201,2.49-2.335,2.49
		c-1.27,0-2.248-0.93-2.248-2.412c0-1.57,1.027-2.49,2.326-2.49C167.15,444.449,168.06,445.427,168.06,446.861z M164.34,446.91
		c0,1.027,0.591,1.803,1.424,1.803c0.814,0,1.424-0.766,1.424-1.822c0-0.795-0.396-1.801-1.403-1.801
		C164.775,445.089,164.34,446.017,164.34,446.91z"/>
	<path fill="none" stroke="#3D58A7" stroke-width="0.025" d="M169.137,446.085c0-0.602-0.02-1.086-0.039-1.531h0.766l0.039,0.805
		h0.021c0.349-0.57,0.901-0.91,1.667-0.91c1.134,0,1.986,0.959,1.986,2.383c0,1.688-1.027,2.52-2.134,2.52
		c-0.618,0-1.163-0.27-1.441-0.732h-0.021v2.549h-0.843L169.137,446.085L169.137,446.085z M169.98,447.335
		c0,0.125,0.021,0.242,0.039,0.35c0.155,0.592,0.669,0.998,1.279,0.998c0.901,0,1.424-0.736,1.424-1.812
		c0-0.939-0.494-1.744-1.396-1.744c-0.581,0-1.124,0.418-1.289,1.057c-0.029,0.107-0.06,0.232-0.06,0.352L169.98,447.335
		L169.98,447.335z"/>
	<path fill="none" stroke="#3D58A7" stroke-width="0.025" d="M175.126,447.054c0.02,1.152,0.756,1.629,1.606,1.629
		c0.61,0,0.979-0.107,1.3-0.242l0.146,0.609c-0.3,0.135-0.814,0.291-1.56,0.291c-1.444,0-2.308-0.949-2.308-2.365
		c0-1.414,0.833-2.527,2.2-2.527c1.531,0,1.938,1.348,1.938,2.209c0,0.174-0.021,0.311-0.029,0.396H175.126L175.126,447.054z
		 M177.626,446.445c0.009-0.543-0.225-1.387-1.184-1.387c-0.86,0-1.238,0.795-1.308,1.387H177.626z"/>
	<path fill="none" stroke="#3D58A7" stroke-width="0.025" d="M181.474,448.216c0.378,0.232,0.93,0.428,1.512,0.428
		c0.862,0,1.366-0.455,1.366-1.113c0-0.611-0.349-0.959-1.229-1.299c-1.065-0.379-1.727-0.932-1.727-1.852
		c0-1.018,0.843-1.771,2.112-1.771c0.668,0,1.153,0.152,1.444,0.318l-0.232,0.688c-0.213-0.115-0.649-0.311-1.24-0.311
		c-0.892,0-1.229,0.533-1.229,0.98c0,0.607,0.396,0.91,1.299,1.26c1.104,0.426,1.667,0.959,1.667,1.918
		c0,1.008-0.746,1.879-2.287,1.879c-0.63,0-1.318-0.184-1.667-0.416L181.474,448.216z"/>
	<path fill="none" stroke="#3D58A7" stroke-width="0.025" d="M187.337,443.208v1.346h1.221v0.65h-1.221v2.527
		c0,0.582,0.165,0.908,0.64,0.908c0.225,0,0.387-0.025,0.494-0.059l0.039,0.641c-0.165,0.068-0.426,0.115-0.756,0.115
		c-0.397,0-0.717-0.125-0.92-0.355c-0.242-0.254-0.33-0.668-0.33-1.223v-2.559h-0.729v-0.648h0.729v-1.125L187.337,443.208z"/>
	<path fill="none" stroke="#3D58A7" stroke-width="0.025" d="M192.115,449.246l-0.068-0.592h-0.029
		c-0.262,0.369-0.765,0.697-1.434,0.697c-0.949,0-1.436-0.668-1.436-1.348c0-1.133,1.009-1.754,2.819-1.744v-0.096
		c0-0.389-0.106-1.086-1.066-1.086c-0.436,0-0.891,0.135-1.221,0.35l-0.194-0.562c0.39-0.252,0.95-0.416,1.541-0.416
		c1.436,0,1.783,0.979,1.783,1.918v1.754c0,0.408,0.021,0.805,0.078,1.125H192.115L192.115,449.246z M191.989,446.851
		c-0.93-0.02-1.984,0.146-1.984,1.057c0,0.553,0.368,0.812,0.804,0.812c0.61,0,0.998-0.387,1.134-0.783
		c0.029-0.088,0.049-0.186,0.049-0.271v-0.814H191.989z"/>
	<path fill="none" stroke="#3D58A7" stroke-width="0.025" d="M198.229,444.554c-0.019,0.34-0.039,0.719-0.039,1.289v2.723
		c0,1.076-0.213,1.734-0.668,2.143c-0.456,0.426-1.112,0.561-1.706,0.561c-0.562,0-1.182-0.135-1.56-0.387l0.213-0.646
		c0.31,0.189,0.794,0.365,1.376,0.365c0.872,0,1.511-0.453,1.511-1.639v-0.52h-0.019c-0.262,0.436-0.768,0.781-1.492,0.781
		c-1.163,0-1.996-0.984-1.996-2.283c0-1.592,1.037-2.49,2.112-2.49c0.812,0,1.26,0.426,1.463,0.811h0.02l0.039-0.707H198.229
		L198.229,444.554z M197.348,446.406c0-0.146-0.01-0.271-0.049-0.389c-0.155-0.492-0.571-0.9-1.191-0.9
		c-0.812,0-1.396,0.688-1.396,1.773c0,0.92,0.465,1.686,1.386,1.686c0.523,0,0.998-0.328,1.182-0.871
		c0.05-0.146,0.068-0.311,0.068-0.455V446.406L197.348,446.406z"/>
	<path fill="none" stroke="#3D58A7" stroke-width="0.025" d="M200.081,447.054c0.02,1.152,0.756,1.629,1.606,1.629
		c0.61,0,0.979-0.107,1.298-0.242l0.146,0.609c-0.3,0.135-0.814,0.291-1.562,0.291c-1.442,0-2.306-0.949-2.306-2.365
		c0-1.414,0.833-2.527,2.2-2.527c1.531,0,1.938,1.348,1.938,2.209c0,0.174-0.019,0.311-0.027,0.396H200.081L200.081,447.054z
		 M202.581,446.445c0.009-0.543-0.225-1.387-1.184-1.387c-0.86,0-1.238,0.795-1.308,1.387H202.581z"/>
</g>
<g enable-background="new    ">
	<path fill="none" stroke="#3D58A7" stroke-width="0.025" d="M177.351,473.375l-0.066-0.59h-0.029
		c-0.262,0.367-0.767,0.697-1.436,0.697c-0.947,0-1.434-0.67-1.434-1.348c0-1.135,1.007-1.754,2.819-1.744v-0.098
		c0-0.387-0.106-1.084-1.066-1.084c-0.436,0-0.891,0.135-1.221,0.348l-0.194-0.561c0.388-0.252,0.95-0.416,1.541-0.416
		c1.436,0,1.783,0.979,1.783,1.918v1.754c0,0.406,0.02,0.805,0.078,1.123H177.351L177.351,473.375z M177.225,470.982
		c-0.93-0.021-1.986,0.145-1.986,1.057c0,0.551,0.368,0.812,0.806,0.812c0.608,0,0.998-0.389,1.134-0.783
		c0.029-0.09,0.048-0.186,0.048-0.271L177.225,470.982L177.225,470.982z"/>
	<path fill="none" stroke="#3D58A7" stroke-width="0.025" d="M179.426,469.955c0-0.484-0.01-0.881-0.039-1.27h0.746l0.039,0.756
		h0.029c0.262-0.445,0.696-0.861,1.473-0.861c0.64,0,1.124,0.387,1.328,0.938h0.02c0.146-0.262,0.329-0.465,0.523-0.607
		c0.281-0.213,0.591-0.328,1.037-0.328c0.62,0,1.541,0.406,1.541,2.033v2.762h-0.833v-2.654c0-0.9-0.33-1.443-1.02-1.443
		c-0.482,0-0.86,0.357-1.007,0.775c-0.039,0.115-0.068,0.271-0.068,0.426v2.896h-0.831v-2.809c0-0.746-0.329-1.289-0.979-1.289
		c-0.533,0-0.92,0.426-1.056,0.852c-0.048,0.127-0.068,0.271-0.068,0.418v2.828h-0.833v-3.42h-0.002V469.955z"/>
	<path fill="none" stroke="#3D58A7" stroke-width="0.025" d="M187.983,471.185c0.021,1.152,0.756,1.627,1.608,1.627
		c0.61,0,0.979-0.105,1.298-0.242l0.146,0.611c-0.302,0.135-0.814,0.289-1.562,0.289c-1.444,0-2.306-0.949-2.306-2.363
		s0.833-2.527,2.2-2.527c1.529,0,1.938,1.346,1.938,2.209c0,0.174-0.019,0.309-0.029,0.396H187.983L187.983,471.185z
		 M190.483,470.576c0.011-0.543-0.223-1.387-1.182-1.387c-0.862,0-1.24,0.795-1.308,1.387H190.483z"/>
	<path fill="none" stroke="#3D58A7" stroke-width="0.025" d="M192.364,469.955c0-0.484-0.01-0.881-0.037-1.27h0.756l0.048,0.775
		h0.02c0.232-0.447,0.775-0.883,1.552-0.883c0.647,0,1.655,0.389,1.655,1.996v2.801h-0.853v-2.703c0-0.756-0.281-1.387-1.085-1.387
		c-0.562,0-0.998,0.395-1.145,0.873c-0.039,0.104-0.058,0.252-0.058,0.395v2.818h-0.854L192.364,469.955L192.364,469.955z"/>
	<path fill="none" stroke="#3D58A7" stroke-width="0.025" d="M201.792,466.496v5.668c0,0.416,0.01,0.893,0.039,1.211h-0.768
		l-0.039-0.812h-0.02c-0.262,0.521-0.833,0.922-1.6,0.922c-1.135,0-2.007-0.959-2.007-2.387c-0.01-1.559,0.959-2.518,2.104-2.518
		c0.717,0,1.202,0.338,1.415,0.717h0.02v-2.801H201.792L201.792,466.496z M200.939,470.593c0-0.105-0.01-0.252-0.039-0.357
		c-0.126-0.543-0.591-0.988-1.229-0.988c-0.881,0-1.405,0.773-1.405,1.811c0,0.949,0.465,1.734,1.386,1.734
		c0.572,0,1.097-0.377,1.25-1.018c0.029-0.115,0.039-0.232,0.039-0.367L200.939,470.593L200.939,470.593z"/>
</g>
<rect x="102.844" y="51.79" fill="none" stroke="#010101" stroke-width="0.025" width="19.842" height="19.842"/>
<rect x="167.478" y="51.29" fill="none" stroke="#010101" stroke-width="0.025" width="19.842" height="19.842"/>
<circle fill="none" stroke="#010101" stroke-width="0.025" cx="325.338" cy="298.916" r="8.858"/>
<rect x="240.139" y="106.454" fill="none" stroke="#00FF00" stroke-width="0.025" width="62.224" height="8.522"/>
<rect x="347.029" y="106.454" fill="none" stroke="#00FF00" stroke-width="0.025" width="63.506" height="8.522"/>
<polygon fill="none" stroke="#00FF00" stroke-width="0.025" points="327.006,94.772 330.257,95.472 333.315,96.836 336.01,98.794 
	338.242,101.294 339.903,104.19 340.933,107.381 341.283,110.715 340.933,114.045 339.903,117.233 338.242,120.139 336.01,122.63 
	333.315,124.591 330.257,125.962 327.006,126.662 323.67,126.662 320.418,125.962 317.36,124.591 314.665,122.63 312.432,120.139 
	310.771,117.233 309.738,114.045 309.393,110.715 309.738,107.381 310.771,104.19 312.432,101.294 314.665,98.794 317.36,96.836 
	320.418,95.472 323.67,94.772 "/>
<polygon fill="none" stroke="#00FF00" stroke-width="0.025" points="438.94,90.57 211.736,90.57 211.736,336.496 212.049,339.446 
	212.963,342.271 214.45,344.845 216.436,347.048 218.838,348.793 221.549,350.005 224.454,350.618 426.222,350.618 429.126,350.005 
	431.837,348.793 434.24,347.048 436.226,344.845 437.712,342.271 438.626,339.446 438.94,336.496 "/>
<circle fill="none" stroke="#00FF00" stroke-width="0.025" cx="325.36" cy="247.222" r="4.252"/>
<circle fill="none" stroke="#010101" stroke-width="0.025" cx="325.36" cy="247.222" r="8.858"/>
<circle fill="none" stroke="#010101" stroke-width="0.025" cx="325.337" cy="187.695" r="8.858"/>
<circle fill="none" stroke="#00FF00" stroke-width="0.025" cx="325.579" cy="187.695" r="4.252"/>
<path fill="none" stroke="#000000" stroke-width="0.025" d="M333.626,324.046c0.086-0.035,0.174-0.057,0.264-0.064
	c0.598-0.038,0.939-0.109,1.025-0.213c0.086-0.104,0.129-0.605,0.129-1.504l-0.006-0.617v-0.645l-0.023-0.709l0.012-0.416
	l-0.006-0.459v-0.539l-0.012-0.24l0.012-0.306c0.004-0.069,0.006-0.151,0.006-0.245c0-0.246-0.012-0.507-0.034-0.781
	c-0.017-0.055-0.037-0.106-0.064-0.158c-0.145-0.074-0.378-0.125-0.7-0.149s-0.505-0.054-0.548-0.085
	c-0.031-0.023-0.049-0.084-0.053-0.182h0.493l1.555,0.035c0.398,0,0.931-0.012,1.596-0.035c0,0.062-0.004,0.121-0.012,0.176
	c-0.078,0.02-0.209,0.041-0.393,0.064c-0.371,0.043-0.599,0.084-0.681,0.123c-0.051,0.02-0.088,0.053-0.11,0.1
	c-0.039,0.07-0.062,0.201-0.07,0.393l-0.029,0.756l0.023,2.61v1.032c-0.008,0.324-0.013,0.545-0.013,0.662
	c0,0.439,0.012,0.718,0.032,0.839c0.021,0.122,0.06,0.208,0.111,0.261s0.14,0.096,0.261,0.126c0.18,0.043,0.32,0.065,0.422,0.07
	c0.22,0.008,0.357,0.039,0.416,0.094c0.013,0.052,0.019,0.095,0.019,0.129v0.048c-0.356,0.012-0.618,0.018-0.787,0.018
	c-0.099,0-0.272-0.006-0.522-0.018l-0.81,0.012l-1.379-0.006h-0.111L333.626,324.046z"/>
<path fill="none" stroke="#000000" stroke-width="0.025" d="M337.845,324.041c0.098-0.027,0.211-0.051,0.34-0.07
	c0.246-0.035,0.395-0.076,0.442-0.123c0.049-0.045,0.073-0.153,0.073-0.32l0.012-0.211c0.004-0.077,0.006-0.176,0.006-0.297
	l-0.012-1.793c0-0.241-0.031-0.397-0.095-0.467c-0.104-0.109-0.301-0.186-0.586-0.229v-0.215c0.285-0.077,0.505-0.18,0.656-0.305
	c0.224-0.177,0.41-0.416,0.562-0.718l0.198,0.007c0.013,0.184,0.019,0.314,0.019,0.394v0.388l0.006,0.105
	c0.047-0.03,0.102-0.07,0.164-0.117c0.234-0.176,0.475-0.32,0.721-0.432c0.246-0.113,0.465-0.189,0.656-0.232
	c0.121-0.031,0.258-0.047,0.41-0.047c0.32,0,0.596,0.086,0.826,0.258c0.229,0.172,0.38,0.375,0.447,0.607
	c0.068,0.232,0.104,0.694,0.104,1.388v0.886c0,0.023-0.003,0.102-0.009,0.234c-0.006,0.134-0.01,0.285-0.01,0.459
	c0,0.273,0.013,0.447,0.035,0.521c0.021,0.051,0.07,0.102,0.152,0.153c0.375,0.051,0.594,0.11,0.656,0.183v0.047
	c0,0.039-0.013,0.088-0.035,0.146h-0.111l-0.772-0.013l-0.763,0.019c-0.28,0.009-0.541,0.007-0.778-0.006l-0.035-0.123
	c0-0.022,0.014-0.056,0.041-0.095c0.104-0.047,0.254-0.077,0.444-0.094c0.113-0.008,0.191-0.02,0.234-0.035
	c0.043-0.014,0.096-0.047,0.158-0.094c0.047-0.094,0.07-0.172,0.07-0.234c0-0.026-0.004-0.082-0.013-0.164
	c-0.012-0.18-0.02-0.629-0.022-1.344v-0.305l0.012-0.47c0-0.505-0.102-0.853-0.305-1.044s-0.476-0.288-0.814-0.288
	c-0.262,0-0.518,0.058-0.768,0.173s-0.492,0.288-0.728,0.52c-0.008,0.188-0.012,0.348-0.012,0.479l0.018,1.295
	c0,0.677,0.011,1.091,0.029,1.242c0.008,0.062,0.021,0.104,0.041,0.129c0.031,0.031,0.094,0.058,0.188,0.076
	c0.094,0.019,0.201,0.047,0.324,0.082c0.123,0.034,0.204,0.058,0.243,0.063c0.078,0.021,0.131,0.06,0.158,0.117l-0.006,0.117h-0.615
	l-1.266-0.018c-0.293,0.004-0.479,0.006-0.558,0.006h-0.146l-0.012-0.076C337.828,324.13,337.833,324.091,337.845,324.041z"/>
<path fill="none" stroke="#000000" stroke-width="0.025" d="M345.421,318.445l0.182,0.006l0.023,0.557l-0.012,0.721
	c0.073,0.004,0.12,0.006,0.141,0.006c0.102,0,0.295-0.008,0.58-0.021c0.184-0.013,0.358-0.019,0.526-0.019
	c0.078,0,0.195,0.002,0.353,0.006c0.008,0.078,0.012,0.142,0.012,0.188c0,0.051-0.012,0.131-0.035,0.239h-0.1l-0.908,0.029
	l-0.451,0.012l-0.104,0.013c-0.031,0.098-0.047,0.211-0.047,0.34l0.018,0.879l-0.012,1.547c0,0.406,0.053,0.676,0.158,0.809
	c0.102,0.137,0.254,0.205,0.457,0.205c0.102,0,0.293-0.031,0.573-0.094c0.086-0.02,0.201-0.084,0.347-0.193h0.053
	c0.035,0,0.062,0.012,0.085,0.032s0.032,0.05,0.032,0.085l-0.006,0.041c-0.168,0.184-0.36,0.316-0.577,0.4s-0.505,0.127-0.864,0.127
	c-0.254,0-0.464-0.059-0.63-0.176s-0.272-0.256-0.319-0.416s-0.069-0.51-0.069-1.049l0.022-1.318l-0.006-0.633v-0.234
	c0-0.109-0.004-0.219-0.012-0.328l-0.101-0.006l-0.479,0.018l-0.047,0.006c-0.043,0-0.075-0.01-0.098-0.029
	c-0.021-0.018-0.031-0.043-0.031-0.069c0-0.047,0.015-0.085,0.044-0.114c0.028-0.029,0.117-0.074,0.267-0.138
	c0.102-0.043,0.22-0.124,0.354-0.243c0.134-0.119,0.248-0.251,0.343-0.396c0.047-0.077,0.112-0.227,0.198-0.444
	C345.343,318.625,345.39,318.511,345.421,318.445z"/>
<path fill="none" stroke="#000000" stroke-width="0.025" d="M351.884,321.14l-2.35,0.017h-0.445c-0.18,0-0.363,0.008-0.551,0.024
	c-0.035,0.117-0.054,0.196-0.054,0.24l0.007,0.059v0.059l-0.007,0.287c0,0.238,0.075,0.529,0.227,0.876
	c0.15,0.347,0.365,0.608,0.645,0.791c0.28,0.183,0.628,0.278,1.046,0.29c0.224-0.012,0.4-0.039,0.533-0.082s0.32-0.143,0.562-0.299
	l0.422-0.346l0.035,0.233c0,0.026-0.002,0.058-0.006,0.088c-0.177,0.224-0.398,0.419-0.669,0.587
	c-0.27,0.168-0.543,0.291-0.819,0.368c-0.133,0.035-0.353,0.054-0.656,0.054c-0.277,0-0.551-0.058-0.82-0.17
	c-0.397-0.173-0.712-0.449-0.939-0.83c-0.229-0.381-0.343-0.843-0.343-1.386c0-0.172,0.031-0.394,0.097-0.661
	c0.064-0.27,0.181-0.558,0.349-0.861c0.113-0.207,0.252-0.377,0.416-0.51c0.234-0.188,0.439-0.318,0.615-0.394
	c0.254-0.104,0.549-0.158,0.885-0.158c0.363,0,0.66,0.065,0.892,0.199c0.312,0.176,0.546,0.401,0.699,0.681
	c0.154,0.277,0.231,0.53,0.231,0.762L351.884,321.14L351.884,321.14z M348.615,320.929h0.274c0.199,0,0.793-0.031,1.781-0.094
	c0.156-0.008,0.252-0.023,0.287-0.047c0.069-0.074,0.104-0.141,0.104-0.199c0-0.121-0.039-0.259-0.117-0.412
	c-0.077-0.154-0.197-0.273-0.359-0.357s-0.352-0.126-0.565-0.126c-0.453,0-0.815,0.17-1.09,0.51
	C348.72,320.46,348.615,320.703,348.615,320.929z"/>
<path fill="none" stroke="#000000" stroke-width="0.025" d="M352.482,324.251l-0.022-0.076c0-0.027,0.018-0.068,0.053-0.123
	l0.346-0.07l0.486-0.086c0.039-0.021,0.066-0.047,0.082-0.082c0.023-0.051,0.035-0.201,0.035-0.451c0-1.326-0.008-2.092-0.023-2.297
	c-0.015-0.204-0.051-0.334-0.104-0.389c-0.056-0.054-0.195-0.097-0.422-0.127c-0.134-0.021-0.238-0.045-0.316-0.076l0.023-0.18
	c0.409-0.168,0.686-0.312,0.825-0.435c0.195-0.177,0.361-0.407,0.498-0.693l0.199,0.007c0.023,0.194,0.035,0.629,0.035,1.301
	l-0.006,0.1c0,0.023,0.004,0.061,0.012,0.111c0.148-0.271,0.334-0.519,0.557-0.744l0.136-0.135c0.055-0.062,0.106-0.111,0.158-0.146
	c0.272-0.164,0.477-0.246,0.608-0.246c0.172,0,0.312,0.059,0.422,0.174c0.11,0.114,0.164,0.256,0.164,0.424
	c0,0.133-0.039,0.236-0.117,0.312c-0.104,0.099-0.227,0.146-0.362,0.146c-0.062,0-0.187-0.033-0.369-0.1
	c-0.184-0.066-0.305-0.1-0.363-0.1c-0.109,0-0.186,0.018-0.229,0.053c-0.109,0.086-0.242,0.262-0.398,0.527
	c-0.121,0.199-0.182,0.383-0.182,0.551l0.028,0.969l0.013,1.163c0.012,0.133,0.026,0.219,0.047,0.258
	c0.016,0.026,0.055,0.062,0.117,0.101c0.422,0.035,0.672,0.061,0.75,0.076c0.055,0.004,0.096,0.008,0.123,0.012
	c0.168,0.004,0.284,0.027,0.352,0.07c0.035,0.021,0.053,0.049,0.053,0.088c0,0.023-0.016,0.055-0.047,0.094l-0.65-0.012
	l-0.245-0.006l-0.357,0.006h-0.598l-0.322,0.019L352.482,324.251z"/>
<path fill="none" stroke="#000000" stroke-width="0.025" d="M356.496,321.644h0.082l0.457,0.006l0.782-0.029l0.573,0.02l0.298-0.008
	c0.276,0,0.481,0.016,0.614,0.047l0.019,0.463c-0.242,0.021-0.438,0.029-0.587,0.029c-0.137,0-0.274-0.006-0.416-0.018
	c-0.188-0.012-0.301-0.018-0.34-0.018l-0.246,0.006c-0.069,0.004-0.153,0.006-0.252,0.006c-0.487,0-0.823-0.021-1.008-0.064
	l-0.012-0.17C356.46,321.847,356.472,321.757,356.496,321.644z"/>
<path fill="none" stroke="#000000" stroke-width="0.025" d="M360.609,322.746c0.146,0.371,0.254,0.611,0.328,0.721
	c0.148,0.223,0.326,0.396,0.533,0.52s0.432,0.186,0.674,0.186c0.224,0,0.443-0.097,0.662-0.287c0.156-0.146,0.234-0.312,0.234-0.504
	c0-0.255-0.092-0.488-0.275-0.703c-0.184-0.211-0.532-0.414-1.046-0.606c-0.514-0.193-0.858-0.399-1.034-0.618
	s-0.264-0.469-0.264-0.75c0-0.266,0.072-0.5,0.217-0.703c0.146-0.203,0.344-0.355,0.598-0.46c0.255-0.104,0.488-0.155,0.703-0.155
	c0.277,0,0.526,0.021,0.747,0.064c0.222,0.043,0.411,0.109,0.571,0.199c0.031,0.199,0.057,0.492,0.076,0.879l0.012,0.188
	c-0.051,0.004-0.094,0.006-0.129,0.006h-0.082c-0.117-0.324-0.296-0.58-0.536-0.771s-0.478-0.284-0.712-0.284
	s-0.424,0.071-0.568,0.215c-0.144,0.143-0.217,0.328-0.217,0.559c0,0.177,0.06,0.332,0.176,0.47
	c0.117,0.138,0.393,0.292,0.823,0.468c0.433,0.176,0.746,0.338,0.943,0.488c0.196,0.15,0.343,0.333,0.437,0.548
	c0.095,0.215,0.142,0.42,0.142,0.616c0,0.27-0.089,0.521-0.268,0.756c-0.178,0.234-0.399,0.4-0.668,0.496
	c-0.268,0.096-0.507,0.145-0.718,0.145c-0.496,0-0.953-0.093-1.371-0.275c-0.039-0.031-0.061-0.09-0.063-0.176
	c0-0.035-0.005-0.092-0.013-0.17c-0.062-0.527-0.094-0.84-0.094-0.938c0-0.048,0.01-0.078,0.029-0.095
	C360.475,322.755,360.527,322.746,360.609,322.746z"/>
<path fill="none" stroke="#000000" stroke-width="0.025" d="M364.283,327.298c-0.005-0.045-0.007-0.084-0.007-0.121
	c0-0.027,0.004-0.062,0.013-0.102l0.59-0.117c0.094-0.047,0.171-0.104,0.229-0.169c0.021-0.069,0.029-0.142,0.029-0.211
	c0-0.601-0.016-1.747-0.047-3.437l-0.018-2.144c-0.009-0.339-0.029-0.554-0.064-0.644c-0.02-0.047-0.049-0.084-0.088-0.111
	c-0.098-0.074-0.293-0.137-0.586-0.188l0.035-0.18c0.422-0.18,0.704-0.32,0.847-0.42s0.278-0.24,0.407-0.42l0.069-0.018
	c0.027,0,0.066,0.012,0.117,0.035c-0.004,0.246-0.006,0.408-0.006,0.485l0.006,0.646c0.289-0.219,0.59-0.383,0.902-0.489
	c0.312-0.106,0.637-0.161,0.973-0.161c0.603,0,1.109,0.212,1.523,0.637c0.414,0.424,0.621,0.969,0.621,1.637
	c0,0.496-0.116,0.941-0.35,1.336c-0.232,0.396-0.554,0.689-0.962,0.886s-0.819,0.293-1.234,0.293c-0.353,0-0.756-0.097-1.208-0.287
	c-0.075-0.03-0.142-0.06-0.2-0.082c-0.008,0.313-0.012,0.591-0.012,0.833c0,1.209,0.032,1.887,0.1,2.031
	c0.035,0.078,0.145,0.125,0.33,0.141c0.313,0.023,0.521,0.068,0.625,0.135c0.059,0.035,0.098,0.105,0.118,0.211l-0.582,0.012
	l-0.528-0.012l-0.881,0.006L364.283,327.298z M365.818,320.589c-0.008,0.055-0.012,0.105-0.012,0.152
	c0,1.395,0.014,2.176,0.041,2.344c0.055,0.309,0.164,0.525,0.328,0.65c0.254,0.199,0.617,0.299,1.09,0.299
	c0.488,0,0.9-0.169,1.236-0.507c0.336-0.339,0.504-0.776,0.504-1.315c0-0.648-0.178-1.162-0.533-1.541
	c-0.354-0.379-0.824-0.568-1.406-0.568c-0.246,0-0.473,0.041-0.68,0.121S365.99,320.425,365.818,320.589z"/>
<path fill="none" stroke="#000000" stroke-width="0.025" d="M374.906,321.14l-2.351,0.017h-0.445c-0.18,0-0.362,0.008-0.551,0.024
	c-0.035,0.117-0.053,0.196-0.053,0.24l0.006,0.059v0.059l-0.006,0.287c0,0.238,0.075,0.529,0.226,0.876
	c0.151,0.347,0.365,0.608,0.646,0.791s0.628,0.278,1.046,0.29c0.223-0.012,0.4-0.039,0.533-0.082s0.319-0.143,0.562-0.299
	l0.422-0.346l0.035,0.233c0,0.026-0.002,0.058-0.006,0.088c-0.176,0.224-0.398,0.419-0.668,0.587s-0.543,0.291-0.82,0.368
	c-0.133,0.035-0.352,0.054-0.655,0.054c-0.277,0-0.552-0.058-0.82-0.17c-0.398-0.173-0.712-0.449-0.94-0.83
	c-0.228-0.381-0.343-0.843-0.343-1.386c0-0.172,0.032-0.394,0.097-0.661c0.065-0.27,0.182-0.558,0.35-0.861
	c0.113-0.207,0.252-0.377,0.416-0.51c0.233-0.188,0.438-0.318,0.615-0.394c0.254-0.104,0.549-0.158,0.885-0.158
	c0.362,0,0.66,0.065,0.891,0.199c0.312,0.176,0.546,0.401,0.7,0.681c0.154,0.277,0.23,0.53,0.23,0.762V321.14L374.906,321.14z
	 M371.636,320.929h0.275c0.198,0,0.793-0.031,1.78-0.094c0.156-0.008,0.252-0.023,0.287-0.047c0.07-0.074,0.105-0.141,0.105-0.199
	c0-0.121-0.039-0.259-0.117-0.412c-0.078-0.154-0.198-0.273-0.36-0.357s-0.351-0.126-0.564-0.126c-0.453,0-0.816,0.17-1.09,0.51
	C371.742,320.46,371.636,320.703,371.636,320.929z"/>
<path fill="none" stroke="#000000" stroke-width="0.025" d="M379.945,323.162l0.007,0.381c-0.306,0.324-0.605,0.551-0.902,0.68
	s-0.646,0.193-1.049,0.193c-0.438,0-0.832-0.113-1.185-0.343c-0.352-0.229-0.622-0.552-0.812-0.97
	c-0.19-0.418-0.284-0.828-0.284-1.23c0-0.441,0.114-0.857,0.343-1.251c0.229-0.394,0.531-0.687,0.908-0.879s0.851-0.29,1.421-0.29
	c0.547,0,0.963,0.094,1.248,0.281c0.16,0.109,0.24,0.25,0.24,0.422c0,0.125-0.041,0.229-0.123,0.311s-0.188,0.123-0.316,0.123
	c-0.194,0-0.41-0.121-0.645-0.363c-0.146-0.147-0.275-0.25-0.394-0.308c-0.117-0.057-0.248-0.085-0.393-0.085
	c-0.348,0-0.637,0.143-0.867,0.428c-0.32,0.406-0.479,0.916-0.479,1.529c0,0.633,0.164,1.137,0.491,1.512
	c0.328,0.375,0.711,0.562,1.148,0.562c0.305,0,0.575-0.051,0.812-0.148C379.352,323.617,379.628,323.431,379.945,323.162z"/>
<path fill="none" stroke="#000000" stroke-width="0.025" d="M380.601,320.074l0.006-0.174c0.254-0.073,0.392-0.117,0.41-0.129
	c0.142-0.062,0.288-0.158,0.442-0.287c0.153-0.129,0.284-0.274,0.39-0.436c0.047-0.008,0.084-0.012,0.111-0.012l0.07,0.006
	c0.016,0.188,0.022,0.324,0.022,0.41c0,0.02-0.004,0.107-0.012,0.264v0.312l0.006,1.688l-0.019,1.787
	c-0.004,0.145,0.021,0.244,0.07,0.301c0.05,0.058,0.201,0.121,0.451,0.19c0.156,0.043,0.273,0.08,0.352,0.11
	c0.013,0.027,0.019,0.052,0.019,0.07c0,0.023-0.01,0.053-0.029,0.088c-0.151-0.004-0.348-0.014-0.586-0.028
	c-0.324-0.027-0.539-0.041-0.645-0.041c-0.052,0-0.363,0.01-0.938,0.028c-0.117,0.004-0.229,0.015-0.34,0.029
	c-0.02,0-0.051-0.006-0.094-0.018c-0.021-0.027-0.029-0.051-0.029-0.07c0-0.055,0.037-0.098,0.111-0.129
	c0.016-0.008,0.215-0.053,0.598-0.135c0.125-0.023,0.207-0.062,0.246-0.117c0.066-0.082,0.1-0.213,0.1-0.393
	c0.009-0.299,0.013-1.123,0.013-2.469c0-0.269-0.013-0.437-0.035-0.503c-0.021-0.047-0.071-0.101-0.155-0.161
	C381.053,320.198,380.874,320.136,380.601,320.074z M381.093,317.033c0-0.129,0.05-0.24,0.149-0.334
	c0.099-0.094,0.22-0.141,0.359-0.141c0.146,0,0.271,0.053,0.381,0.158c0.11,0.104,0.164,0.219,0.164,0.34s-0.055,0.234-0.164,0.342
	c-0.108,0.109-0.235,0.162-0.381,0.162c-0.145,0-0.266-0.049-0.363-0.146C381.142,317.316,381.093,317.189,381.093,317.033z"/>
<path fill="none" stroke="#000000" stroke-width="0.025" d="M387.65,321.14l-2.35,0.017h-0.445c-0.18,0-0.362,0.008-0.551,0.024
	c-0.035,0.117-0.053,0.196-0.053,0.24l0.006,0.059v0.059l-0.006,0.287c0,0.238,0.075,0.529,0.226,0.876
	c0.151,0.347,0.365,0.608,0.646,0.791c0.279,0.183,0.628,0.278,1.046,0.29c0.223-0.012,0.399-0.039,0.533-0.082
	c0.133-0.043,0.319-0.143,0.562-0.299l0.422-0.346l0.035,0.233c0,0.026-0.002,0.058-0.006,0.088
	c-0.176,0.224-0.398,0.419-0.668,0.587c-0.271,0.168-0.543,0.291-0.82,0.368c-0.133,0.035-0.352,0.054-0.656,0.054
	c-0.276,0-0.551-0.058-0.819-0.17c-0.398-0.173-0.712-0.449-0.94-0.83c-0.228-0.381-0.343-0.843-0.343-1.386
	c0-0.172,0.032-0.394,0.097-0.661c0.065-0.27,0.182-0.558,0.35-0.861c0.112-0.207,0.252-0.377,0.416-0.51
	c0.233-0.188,0.438-0.318,0.614-0.394c0.254-0.104,0.55-0.158,0.886-0.158c0.362,0,0.659,0.065,0.891,0.199
	c0.312,0.176,0.546,0.401,0.7,0.681c0.153,0.277,0.23,0.53,0.23,0.762L387.65,321.14L387.65,321.14z M384.38,320.929h0.275
	c0.198,0,0.793-0.031,1.78-0.094c0.156-0.008,0.252-0.023,0.287-0.047c0.07-0.074,0.105-0.141,0.105-0.199
	c0-0.121-0.039-0.259-0.117-0.412c-0.078-0.154-0.198-0.273-0.36-0.357s-0.351-0.126-0.564-0.126c-0.453,0-0.816,0.17-1.09,0.51
	C384.486,320.46,384.38,320.703,384.38,320.929z"/>
<path fill="none" stroke="#000000" stroke-width="0.025" d="M388.851,322.746c0.146,0.371,0.254,0.611,0.328,0.721
	c0.148,0.223,0.326,0.396,0.533,0.52s0.432,0.186,0.674,0.186c0.223,0,0.443-0.097,0.662-0.287c0.156-0.146,0.234-0.312,0.234-0.504
	c0-0.255-0.093-0.488-0.275-0.703c-0.184-0.211-0.532-0.414-1.046-0.606c-0.514-0.193-0.858-0.399-1.034-0.618
	s-0.264-0.469-0.264-0.75c0-0.266,0.071-0.5,0.217-0.703c0.145-0.203,0.344-0.355,0.598-0.46s0.488-0.155,0.703-0.155
	c0.277,0,0.526,0.021,0.747,0.064s0.411,0.109,0.571,0.199c0.031,0.199,0.057,0.492,0.076,0.879l0.012,0.188
	c-0.051,0.004-0.094,0.006-0.129,0.006h-0.082c-0.117-0.324-0.296-0.58-0.536-0.771s-0.479-0.284-0.712-0.284
	c-0.234,0-0.424,0.071-0.568,0.215c-0.144,0.143-0.217,0.328-0.217,0.559c0,0.177,0.059,0.332,0.176,0.47s0.393,0.292,0.823,0.468
	c0.432,0.176,0.746,0.338,0.943,0.488c0.196,0.15,0.343,0.333,0.437,0.548s0.141,0.42,0.141,0.616c0,0.27-0.089,0.521-0.267,0.756
	s-0.4,0.4-0.668,0.496s-0.507,0.145-0.718,0.145c-0.496,0-0.953-0.093-1.371-0.275c-0.039-0.031-0.062-0.09-0.064-0.176
	c0-0.035-0.004-0.092-0.012-0.17c-0.062-0.527-0.094-0.84-0.094-0.938c0-0.048,0.01-0.078,0.029-0.095
	C388.717,322.755,388.769,322.746,388.851,322.746z"/>
<path fill="none" stroke="#000000" stroke-width="0.025" d="M403.201,317.121l0.063,0.891c0.023,0.271,0.035,0.453,0.035,0.551
	l-0.164,0.029c-0.262-0.594-0.587-1.039-0.976-1.336c-0.39-0.297-0.864-0.445-1.428-0.445c-0.688,0-1.223,0.084-1.604,0.252
	c-0.555,0.238-1.029,0.652-1.424,1.242c-0.396,0.59-0.593,1.301-0.593,2.133c0,0.48,0.072,0.912,0.218,1.295
	c0.145,0.384,0.349,0.74,0.611,1.07c0.264,0.33,0.575,0.615,0.936,0.857c0.233,0.16,0.514,0.281,0.838,0.363
	c0.184,0.043,0.457,0.064,0.82,0.064c0.233,0,0.493-0.033,0.778-0.101s0.5-0.155,0.646-0.267c0.145-0.113,0.243-0.238,0.296-0.379
	s0.079-0.414,0.079-0.82c0-0.676-0.045-1.068-0.136-1.18c-0.09-0.113-0.372-0.186-0.85-0.221l-0.234-0.018l-0.157,0.006
	c-0.023-0.004-0.056-0.01-0.095-0.018l-0.088-0.146c0-0.02,0.015-0.045,0.041-0.076c0.203-0.031,0.646-0.047,1.324-0.047
	c0.152,0,0.4,0.004,0.744,0.012l0.604,0.023l0.545-0.006c0.105,0,0.232,0.004,0.382,0.012c0.026,0.004,0.045,0.011,0.053,0.021
	c0.008,0.01,0.012,0.025,0.012,0.049c0,0.043-0.01,0.099-0.029,0.164c-0.163,0.035-0.29,0.054-0.381,0.054l-0.381-0.007
	c-0.129,0-0.231,0.045-0.311,0.136c-0.039,0.043-0.06,0.188-0.06,0.438l0.006,0.769c0,0.526-0.021,0.862-0.063,1.008
	c-0.023,0.086-0.072,0.163-0.146,0.231c-0.073,0.068-0.229,0.148-0.469,0.242c-0.34,0.137-0.647,0.229-0.926,0.275
	c-0.516,0.09-1.014,0.135-1.494,0.135c-0.772,0-1.407-0.099-1.9-0.296c-0.494-0.196-0.921-0.472-1.277-0.823
	c-0.357-0.351-0.612-0.707-0.766-1.065c-0.229-0.527-0.346-1.063-0.346-1.611c0-0.685,0.182-1.353,0.542-2.007
	c0.361-0.654,0.944-1.188,1.749-1.598c0.566-0.289,1.336-0.434,2.31-0.434c0.672,0,1.222,0.059,1.648,0.176
	S402.951,316.972,403.201,317.121z"/>
<path fill="none" stroke="#000000" stroke-width="0.025" d="M409.4,323.437c0.023,0.051,0.035,0.088,0.035,0.111
	c0,0.059-0.047,0.161-0.141,0.311c-0.121,0.195-0.256,0.338-0.404,0.428c-0.094,0.059-0.223,0.088-0.387,0.088
	c-0.281,0-0.492-0.086-0.633-0.258c-0.086-0.102-0.146-0.283-0.183-0.545l-0.655,0.457c-0.23,0.133-0.406,0.217-0.527,0.252
	c-0.195,0.051-0.43,0.076-0.703,0.076c-0.199,0-0.355-0.061-0.472-0.18s-0.173-0.271-0.173-0.459c0-0.271,0.166-0.593,0.495-0.968
	c0.331-0.375,0.78-0.683,1.349-0.92c0.398-0.168,0.644-0.274,0.733-0.321c0.009-0.129,0.013-0.271,0.013-0.422
	c0-0.496-0.069-0.832-0.208-1.009c-0.14-0.176-0.338-0.265-0.598-0.265c-0.271,0-0.522,0.105-0.758,0.316
	c-0.145,0.133-0.255,0.383-0.329,0.75c-0.022,0.102-0.067,0.211-0.135,0.328c-0.168,0.109-0.303,0.164-0.404,0.164
	c-0.086,0-0.164-0.025-0.233-0.076c-0.039-0.027-0.06-0.059-0.06-0.094c0-0.102,0.108-0.331,0.325-0.688
	c0.217-0.357,0.49-0.625,0.82-0.803c0.33-0.179,0.618-0.268,0.864-0.268c0.336,0,0.586,0.029,0.75,0.091s0.309,0.167,0.434,0.319
	s0.201,0.318,0.229,0.498c0.017,0.086,0.023,0.393,0.023,0.92l-0.018,0.932l0.006,0.68c0,0.09-0.002,0.166-0.006,0.229
	c-0.004,0.112-0.007,0.196-0.007,0.252c0,0.129,0.037,0.231,0.111,0.312c0.074,0.078,0.162,0.116,0.264,0.116
	c0.148,0,0.275-0.073,0.382-0.223l0.069-0.095C409.291,323.466,409.333,323.453,409.4,323.437z M407.683,323.267
	c0.027-0.496,0.041-0.846,0.041-1.049c0-0.105-0.006-0.248-0.018-0.429c-0.264,0.095-0.541,0.235-0.835,0.429
	c-0.294,0.191-0.527,0.412-0.7,0.662c-0.125,0.18-0.188,0.35-0.188,0.51c0,0.151,0.053,0.278,0.156,0.381
	c0.104,0.102,0.234,0.152,0.391,0.152c0.122,0,0.27-0.043,0.441-0.13C407.199,323.681,407.436,323.505,407.683,323.267z"/>
<path fill="none" stroke="#000000" stroke-width="0.025" d="M409.746,324.035c0.062-0.043,0.147-0.072,0.258-0.088
	c0.156-0.02,0.277-0.051,0.363-0.094c0.069-0.06,0.116-0.144,0.141-0.252c0.027-0.142,0.041-0.635,0.041-1.482
	c0-0.832-0.025-1.369-0.076-1.611c-0.086-0.055-0.197-0.098-0.334-0.129c-0.043-0.008-0.133-0.029-0.27-0.064v-0.195
	c0.23-0.066,0.419-0.152,0.562-0.26c0.144-0.104,0.342-0.316,0.597-0.635h0.035c0.023,0,0.062-0.002,0.112-0.006
	c0.032,0.004,0.057,0.014,0.077,0.029l-0.006,0.668c0,0.137,0.004,0.283,0.012,0.439c0.417-0.379,0.792-0.646,1.123-0.797
	c0.226-0.103,0.48-0.152,0.766-0.152c0.339,0,0.608,0.064,0.808,0.193c0.198,0.129,0.388,0.36,0.566,0.697
	c0.349-0.345,0.663-0.584,0.946-0.722s0.569-0.205,0.858-0.205c0.438,0,0.797,0.144,1.077,0.429
	c0.277,0.289,0.421,0.713,0.429,1.272v0.487l0.006,0.533l-0.006,1.373c-0.004,0.161,0.03,0.282,0.104,0.364
	c0.031,0.013,0.15,0.047,0.357,0.106c0.129,0.035,0.205,0.062,0.229,0.082c0.024,0.02,0.035,0.047,0.035,0.082
	c0,0.043-0.012,0.094-0.035,0.151h-0.041l-0.59-0.034c-0.07-0.004-0.181-0.007-0.333-0.007c-0.187,0-0.448,0.009-0.783,0.022h-0.298
	c-0.043,0-0.127,0.002-0.251,0.007c-0.004-0.035-0.006-0.065-0.006-0.095c0-0.03,0.014-0.069,0.041-0.116
	c0.105-0.048,0.25-0.085,0.434-0.114c0.185-0.029,0.299-0.082,0.344-0.158s0.066-0.381,0.066-0.912c0-1.154-0.014-1.824-0.041-2.008
	c-0.047-0.293-0.171-0.523-0.373-0.689s-0.455-0.25-0.761-0.25c-0.235,0-0.464,0.062-0.687,0.186
	c-0.224,0.123-0.442,0.309-0.658,0.555l-0.006,0.141v0.896l-0.023,0.696c0,0.711,0.007,1.114,0.021,1.213
	c0.014,0.099,0.047,0.169,0.1,0.214s0.206,0.086,0.46,0.12c0.113,0.017,0.201,0.031,0.264,0.048c0.047,0.038,0.07,0.09,0.07,0.151
	c0,0.051-0.018,0.086-0.053,0.104h-0.101l-0.293-0.006h-1.705l-0.469,0.006c-0.008-0.059-0.012-0.102-0.012-0.129l0.006-0.07
	c0.086-0.047,0.246-0.092,0.48-0.135c0.12-0.02,0.245-0.053,0.375-0.1c0.022-0.02,0.041-0.045,0.053-0.076
	c0.02-0.055,0.033-0.211,0.041-0.469l0.029-0.68l-0.013-0.769l0.006-0.428c0-0.479-0.098-0.831-0.292-1.052
	c-0.193-0.221-0.439-0.332-0.735-0.332c-0.277,0-0.556,0.068-0.833,0.205c-0.279,0.138-0.511,0.32-0.693,0.552
	c-0.004,0.108-0.006,0.209-0.006,0.299l0.023,1.97c0.004,0.43,0.027,0.674,0.072,0.734s0.146,0.104,0.303,0.126
	c0.25,0.035,0.411,0.078,0.485,0.129c0.035,0.022,0.053,0.06,0.053,0.104c0,0.031-0.002,0.068-0.006,0.111
	c-0.445-0.031-0.746-0.047-0.897-0.047c-0.157,0-0.298,0.002-0.423,0.006l-0.293,0.018h-0.183l-0.658,0.023
	c-0.008-0.027-0.012-0.05-0.012-0.068C409.722,324.132,409.73,324.093,409.746,324.035z"/>
<path fill="none" stroke="#000000" stroke-width="0.025" d="M423.404,321.14l-2.35,0.017h-0.445c-0.18,0-0.362,0.008-0.551,0.024
	c-0.035,0.117-0.053,0.196-0.053,0.24l0.006,0.059v0.059l-0.006,0.287c0,0.238,0.075,0.529,0.226,0.876
	c0.151,0.347,0.365,0.608,0.646,0.791c0.279,0.183,0.628,0.278,1.046,0.29c0.223-0.012,0.399-0.039,0.533-0.082
	c0.133-0.043,0.319-0.143,0.562-0.299l0.422-0.346l0.035,0.233c0,0.026-0.002,0.058-0.006,0.088
	c-0.176,0.224-0.398,0.419-0.668,0.587c-0.271,0.168-0.543,0.291-0.82,0.368c-0.133,0.035-0.352,0.054-0.656,0.054
	c-0.276,0-0.551-0.058-0.819-0.17c-0.398-0.173-0.712-0.449-0.94-0.83c-0.228-0.381-0.343-0.843-0.343-1.386
	c0-0.172,0.032-0.394,0.097-0.661c0.065-0.27,0.182-0.558,0.35-0.861c0.112-0.207,0.252-0.377,0.416-0.51
	c0.233-0.188,0.438-0.318,0.614-0.394c0.255-0.104,0.55-0.158,0.886-0.158c0.362,0,0.66,0.065,0.891,0.199
	c0.312,0.176,0.546,0.401,0.7,0.681c0.154,0.277,0.23,0.53,0.23,0.762L423.404,321.14L423.404,321.14z M420.134,320.929h0.275
	c0.198,0,0.793-0.031,1.78-0.094c0.156-0.008,0.252-0.023,0.287-0.047c0.07-0.074,0.105-0.141,0.105-0.199
	c0-0.121-0.039-0.259-0.117-0.412c-0.078-0.154-0.198-0.273-0.36-0.357s-0.351-0.126-0.564-0.126c-0.453,0-0.816,0.17-1.09,0.51
	C420.24,320.46,420.134,320.703,420.134,320.929z"/>
<path fill="none" stroke="#000000" stroke-width="0.025" d="M333.632,331.158c0.07-0.012,0.115-0.018,0.135-0.018
	c0.133,0,0.353,0.008,0.656,0.022c0.16,0.004,0.27,0.006,0.328,0.006c0.086,0,0.268-0.008,0.545-0.022l0.996-0.059
	c0.262-0.023,0.565-0.035,0.914-0.035c0.612,0,1.102,0.086,1.465,0.26s0.644,0.445,0.841,0.815s0.296,0.739,0.296,1.106
	c0,0.613-0.215,1.141-0.645,1.586c-0.431,0.445-1.008,0.667-1.734,0.667c-0.203,0-0.373-0.021-0.51-0.062s-0.293-0.121-0.469-0.238
	c-0.074-0.051-0.119-0.104-0.136-0.157c0.017-0.026,0.037-0.048,0.064-0.06c0.055,0,0.111,0.012,0.17,0.035
	c0.133,0.047,0.301,0.07,0.504,0.07c0.309,0,0.601-0.076,0.876-0.229c0.275-0.151,0.483-0.369,0.624-0.648
	c0.141-0.28,0.211-0.577,0.211-0.889c0-0.305-0.074-0.601-0.222-0.887c-0.148-0.285-0.343-0.516-0.585-0.688
	c-0.136-0.098-0.347-0.18-0.628-0.246c-0.282-0.066-0.502-0.1-0.658-0.1c-0.483,0-0.771,0.035-0.859,0.104l-0.006,0.082l0.019,0.661
	l-0.007,0.117c-0.008,0.104-0.012,0.268-0.012,0.486c0,0.795,0.012,1.291,0.035,1.486v0.328l0.076,2.676
	c0,0.039-0.005,0.111-0.016,0.217c-0.01,0.106-0.015,0.197-0.015,0.275c0,0.188,0.016,0.33,0.047,0.427
	c0.094,0.027,0.367,0.093,0.82,0.193c0.211,0.051,0.326,0.079,0.346,0.088c0.031,0.013,0.06,0.037,0.082,0.075
	c-0.016,0.06-0.036,0.098-0.062,0.115c-0.026,0.017-0.075,0.025-0.149,0.025c-0.047,0-0.156-0.01-0.328-0.029
	c-0.336-0.035-0.6-0.053-0.791-0.053l-1.03,0.041l-0.615-0.018c-0.039,0-0.152,0.004-0.34,0.012l-0.007-0.152l0.763-0.146
	c0.125-0.035,0.201-0.07,0.229-0.104c0.039-0.055,0.06-0.162,0.06-0.322c0-0.035,0.002-0.111,0.006-0.229
	c0.004-0.082,0.006-0.194,0.006-0.339c0-0.46-0.021-1.441-0.059-2.945c-0.017-0.703-0.023-1.416-0.023-2.143v-0.1
	c0-0.281-0.043-0.459-0.129-0.533c-0.146-0.129-0.506-0.234-1.084-0.316c-0.021-0.043-0.029-0.078-0.029-0.105
	C333.597,331.238,333.609,331.201,333.632,331.158z"/>
<path fill="none" stroke="#000000" stroke-width="0.025" d="M340.429,331.374v-0.129c0.109-0.035,0.23-0.071,0.363-0.11
	c0.195-0.062,0.486-0.158,0.872-0.287h0.276c0,0.188,0,0.295,0,0.322c0,3.209-0.01,5.123-0.028,5.741
	c-0.013,0.362-0.019,0.558-0.019,0.58c0,0.438,0.019,0.683,0.054,0.733c0.047,0.069,0.189,0.119,0.431,0.146
	s0.382,0.056,0.425,0.082c0.031,0.017,0.047,0.043,0.047,0.082c0,0.043-0.009,0.073-0.025,0.091
	c-0.018,0.018-0.051,0.025-0.098,0.025c-0.026,0-0.231-0.006-0.614-0.02l-0.769-0.027l-0.984,0.047
	c-0.062,0.005-0.108-0.008-0.141-0.035c-0.022-0.02-0.035-0.049-0.035-0.084c0-0.04,0.014-0.068,0.038-0.087
	c0.025-0.019,0.166-0.05,0.422-0.093s0.402-0.078,0.439-0.107s0.062-0.096,0.073-0.195c0.016-0.142,0.022-0.537,0.022-1.189
	l-0.006-1.348l0.018-1.396l-0.006-1.396l0.019-0.686c0-0.137-0.021-0.234-0.064-0.296s-0.135-0.12-0.274-0.179
	C340.652,331.476,340.507,331.413,340.429,331.374z"/>
<path fill="none" stroke="#000000" stroke-width="0.025" d="M347.636,337.837c0.023,0.051,0.035,0.088,0.035,0.11
	c0,0.06-0.047,0.161-0.141,0.312c-0.121,0.194-0.257,0.338-0.404,0.428c-0.094,0.059-0.224,0.088-0.387,0.088
	c-0.281,0-0.492-0.086-0.634-0.258c-0.086-0.103-0.146-0.283-0.182-0.545l-0.656,0.457c-0.229,0.133-0.406,0.217-0.526,0.252
	c-0.195,0.051-0.431,0.076-0.703,0.076c-0.199,0-0.356-0.061-0.473-0.18c-0.115-0.119-0.173-0.271-0.173-0.46
	c0-0.271,0.166-0.593,0.496-0.968c0.331-0.375,0.78-0.682,1.348-0.92c0.399-0.168,0.645-0.274,0.734-0.321
	c0.008-0.129,0.012-0.271,0.012-0.422c0-0.496-0.068-0.832-0.208-1.009c-0.139-0.176-0.338-0.264-0.597-0.264
	c-0.271,0-0.522,0.105-0.758,0.316c-0.146,0.133-0.255,0.383-0.329,0.75c-0.023,0.102-0.068,0.211-0.135,0.328
	c-0.168,0.109-0.304,0.164-0.404,0.164c-0.086,0-0.164-0.025-0.234-0.076c-0.039-0.027-0.059-0.059-0.059-0.094
	c0-0.103,0.108-0.332,0.325-0.688s0.49-0.625,0.819-0.803c0.33-0.179,0.618-0.267,0.864-0.267c0.336,0,0.586,0.029,0.75,0.09
	c0.164,0.062,0.31,0.168,0.435,0.32c0.125,0.151,0.2,0.317,0.229,0.497c0.017,0.087,0.023,0.394,0.023,0.921l-0.019,0.932
	l0.006,0.68c0,0.09-0.002,0.166-0.006,0.229c-0.004,0.113-0.006,0.197-0.006,0.252c0,0.129,0.037,0.232,0.111,0.312
	s0.162,0.116,0.264,0.116c0.148,0,0.275-0.073,0.381-0.223l0.07-0.094C347.527,337.867,347.57,337.853,347.636,337.837z
	 M345.919,337.667c0.026-0.495,0.041-0.846,0.041-1.049c0-0.104-0.006-0.248-0.019-0.429c-0.263,0.095-0.541,0.236-0.835,0.429
	s-0.526,0.412-0.699,0.662c-0.125,0.18-0.188,0.351-0.188,0.51c0,0.151,0.052,0.279,0.156,0.382
	c0.104,0.102,0.233,0.151,0.391,0.151c0.122,0,0.27-0.043,0.441-0.129C345.435,338.081,345.672,337.906,345.919,337.667z"/>
<path fill="none" stroke="#000000" stroke-width="0.025" d="M349.423,332.845l0.182,0.006l0.023,0.557l-0.012,0.721
	c0.073,0.004,0.121,0.006,0.141,0.006c0.102,0,0.295-0.008,0.58-0.022c0.184-0.013,0.359-0.019,0.527-0.019
	c0.077,0,0.194,0.002,0.352,0.006c0.008,0.078,0.012,0.142,0.012,0.188c0,0.052-0.012,0.131-0.035,0.24h-0.1l-0.908,0.028
	l-0.451,0.013l-0.104,0.012c-0.031,0.099-0.047,0.211-0.047,0.341l0.018,0.879l-0.012,1.547c0,0.405,0.053,0.676,0.158,0.809
	c0.102,0.137,0.254,0.205,0.457,0.205c0.102,0,0.293-0.031,0.573-0.094c0.086-0.021,0.201-0.084,0.347-0.193h0.053
	c0.035,0,0.063,0.011,0.085,0.031c0.022,0.021,0.032,0.051,0.032,0.086l-0.006,0.041c-0.168,0.184-0.36,0.316-0.577,0.4
	s-0.505,0.127-0.864,0.127c-0.254,0-0.464-0.06-0.63-0.177c-0.166-0.116-0.272-0.256-0.319-0.416
	c-0.047-0.159-0.069-0.51-0.069-1.049l0.022-1.317l-0.006-0.634v-0.233c0-0.109-0.004-0.219-0.012-0.328l-0.101-0.006l-0.479,0.018
	l-0.047,0.006c-0.043,0-0.075-0.01-0.098-0.029c-0.021-0.019-0.031-0.043-0.031-0.07c0-0.047,0.015-0.084,0.044-0.113
	c0.028-0.029,0.117-0.075,0.267-0.139c0.103-0.043,0.22-0.123,0.354-0.242c0.134-0.119,0.249-0.252,0.343-0.396
	c0.047-0.078,0.112-0.227,0.199-0.445C349.345,333.025,349.392,332.911,349.423,332.845z"/>
<path fill="none" stroke="#000000" stroke-width="0.025" d="M353.402,334.07c0.974,0.023,1.49,0.035,1.554,0.035
	c0.008,0.086,0.012,0.15,0.012,0.193c0,0.051-0.006,0.127-0.018,0.229c-0.099,0.016-0.197,0.023-0.3,0.023h-0.223
	c-0.484,0-0.82,0.018-1.008,0.053c-0.008,0.09-0.012,0.158-0.012,0.205c0,0.02,0.002,0.049,0.006,0.088
	c0.02,0.613,0.028,0.984,0.028,1.113l-0.012,1.506c0,0.223,0.037,0.408,0.111,0.557c0.043,0.086,0.123,0.154,0.239,0.205
	c0.074,0.035,0.255,0.07,0.539,0.105c0.216,0.03,0.359,0.053,0.435,0.063c0,0.082-0.006,0.146-0.019,0.188l-0.082,0.006
	c-0.188-0.012-0.432-0.021-0.731-0.029l-0.435-0.018l-1.477,0.047h-0.193l-0.006-0.183c0.06-0.012,0.103-0.021,0.129-0.028
	c0.336-0.062,0.554-0.133,0.65-0.211c0.039-0.031,0.066-0.088,0.082-0.17c0.008-0.048,0.012-0.267,0.012-0.656
	c0-1.113-0.01-2.002-0.029-2.666c-0.102-0.031-0.258-0.051-0.469-0.06c-0.078,0-0.201-0.008-0.369-0.022l-0.012-0.065
	c0-0.048,0.021-0.087,0.06-0.119c0.016-0.016,0.18-0.097,0.491-0.245c0.121-0.054,0.207-0.121,0.259-0.203
	c0.026-0.043,0.043-0.134,0.047-0.271c0.004-0.062,0.016-0.17,0.034-0.323c0.048-0.402,0.085-0.652,0.111-0.746
	c0.07-0.262,0.188-0.523,0.354-0.783c0.166-0.262,0.365-0.488,0.601-0.685c0.172-0.142,0.366-0.247,0.583-0.317
	s0.464-0.104,0.741-0.104c0.371,0,0.643,0.06,0.813,0.181c0.117,0.081,0.177,0.186,0.177,0.314c0,0.109-0.041,0.201-0.123,0.279
	s-0.185,0.117-0.306,0.117c-0.147,0-0.309-0.037-0.479-0.111c-0.324-0.129-0.508-0.199-0.551-0.211
	c-0.074-0.021-0.15-0.029-0.229-0.029c-0.215,0-0.411,0.068-0.589,0.206c-0.178,0.137-0.29,0.306-0.337,0.506
	s-0.07,0.649-0.07,1.349C353.396,333.632,353.398,333.862,353.402,334.07z"/>
<path fill="none" stroke="#000000" stroke-width="0.025" d="M355.546,336.279c0-0.266,0.056-0.551,0.167-0.854
	s0.28-0.574,0.507-0.813c0.227-0.24,0.467-0.419,0.721-0.536c0.355-0.164,0.789-0.246,1.302-0.246c0.729,0,1.341,0.25,1.831,0.75
	c0.489,0.5,0.734,1.102,0.734,1.805c0,0.625-0.257,1.184-0.771,1.674c-0.515,0.49-1.163,0.734-1.948,0.734
	c-0.484,0-0.941-0.127-1.371-0.381c-0.32-0.191-0.596-0.475-0.826-0.85C355.662,337.187,355.546,336.759,355.546,336.279z
	 M358.139,338.564c0.297,0,0.584-0.08,0.86-0.24c0.275-0.16,0.496-0.417,0.66-0.771c0.164-0.354,0.246-0.763,0.246-1.228
	c0-0.306-0.062-0.658-0.19-1.062c-0.127-0.401-0.323-0.703-0.587-0.904c-0.265-0.201-0.574-0.303-0.93-0.303
	c-0.259,0-0.521,0.062-0.79,0.183c-0.27,0.121-0.495,0.354-0.682,0.696c-0.186,0.344-0.278,0.832-0.278,1.465
	c0,0.712,0.161,1.25,0.483,1.615S357.658,338.564,358.139,338.564z"/>
<path fill="none" stroke="#000000" stroke-width="0.025" d="M361.482,338.652l-0.022-0.076c0-0.027,0.018-0.068,0.053-0.123
	l0.346-0.07l0.486-0.086c0.039-0.021,0.066-0.048,0.082-0.082c0.023-0.052,0.035-0.201,0.035-0.451c0-1.326-0.008-2.092-0.023-2.297
	c-0.015-0.205-0.051-0.334-0.104-0.389c-0.056-0.055-0.195-0.098-0.422-0.128c-0.134-0.021-0.238-0.045-0.316-0.076l0.023-0.179
	c0.409-0.168,0.686-0.312,0.825-0.436c0.195-0.176,0.361-0.406,0.498-0.693l0.199,0.007c0.023,0.194,0.035,0.629,0.035,1.301
	l-0.006,0.101c0,0.022,0.004,0.061,0.012,0.11c0.148-0.271,0.334-0.519,0.557-0.743l0.136-0.136c0.055-0.062,0.106-0.11,0.158-0.146
	c0.272-0.164,0.477-0.246,0.608-0.246c0.172,0,0.312,0.058,0.422,0.173c0.11,0.114,0.164,0.257,0.164,0.425
	c0,0.133-0.039,0.236-0.117,0.311c-0.104,0.099-0.227,0.146-0.362,0.146c-0.062,0-0.187-0.033-0.369-0.1
	c-0.184-0.067-0.305-0.101-0.363-0.101c-0.109,0-0.186,0.019-0.229,0.054c-0.109,0.086-0.242,0.262-0.398,0.526
	c-0.121,0.199-0.182,0.384-0.182,0.552l0.028,0.969l0.013,1.162c0.012,0.133,0.026,0.219,0.047,0.258
	c0.016,0.027,0.055,0.062,0.117,0.101c0.422,0.035,0.672,0.062,0.75,0.077c0.055,0.004,0.096,0.008,0.123,0.012
	c0.168,0.004,0.284,0.027,0.352,0.07c0.035,0.02,0.053,0.049,0.053,0.088c0,0.023-0.016,0.055-0.047,0.094l-0.65-0.012l-0.245-0.006
	l-0.357,0.006h-0.598l-0.322,0.018L361.482,338.652z"/>
<path fill="none" stroke="#000000" stroke-width="0.025" d="M365.923,338.435c0.062-0.043,0.148-0.072,0.258-0.088
	c0.156-0.021,0.277-0.051,0.363-0.095c0.07-0.059,0.117-0.144,0.141-0.252c0.027-0.142,0.041-0.635,0.041-1.481
	c0-0.832-0.024-1.369-0.076-1.611c-0.086-0.055-0.196-0.098-0.334-0.129c-0.043-0.008-0.133-0.029-0.27-0.064v-0.195
	c0.23-0.066,0.419-0.153,0.562-0.26c0.144-0.104,0.343-0.316,0.598-0.635h0.035c0.022,0,0.061-0.002,0.111-0.006
	c0.032,0.004,0.058,0.014,0.077,0.029l-0.006,0.668c0,0.137,0.004,0.283,0.012,0.439c0.417-0.38,0.792-0.646,1.123-0.798
	c0.227-0.103,0.481-0.151,0.766-0.151c0.34,0,0.608,0.063,0.808,0.192s0.388,0.36,0.566,0.697c0.349-0.345,0.663-0.584,0.946-0.722
	c0.283-0.137,0.569-0.205,0.858-0.205c0.438,0,0.797,0.144,1.078,0.429c0.276,0.29,0.42,0.714,0.428,1.272v0.487l0.006,0.534
	l-0.006,1.373c-0.004,0.16,0.031,0.281,0.104,0.363c0.031,0.013,0.15,0.047,0.357,0.106c0.129,0.035,0.205,0.062,0.229,0.082
	c0.023,0.021,0.034,0.048,0.034,0.082c0,0.043-0.012,0.095-0.034,0.151h-0.041l-0.591-0.034c-0.069-0.004-0.181-0.007-0.333-0.007
	c-0.187,0-0.447,0.009-0.782,0.023h-0.299c-0.043,0-0.127,0.002-0.251,0.006c-0.004-0.035-0.006-0.065-0.006-0.094
	c0-0.031,0.015-0.07,0.041-0.117c0.105-0.047,0.25-0.084,0.435-0.113c0.184-0.029,0.298-0.082,0.343-0.159
	c0.045-0.076,0.066-0.38,0.066-0.912c0-1.153-0.014-1.823-0.04-2.007c-0.048-0.293-0.172-0.523-0.373-0.689
	c-0.202-0.166-0.455-0.25-0.762-0.25c-0.234,0-0.464,0.062-0.687,0.186c-0.224,0.123-0.442,0.308-0.658,0.554l-0.006,0.142v0.896
	l-0.023,0.696c0,0.711,0.007,1.115,0.021,1.213c0.014,0.099,0.047,0.17,0.1,0.215c0.054,0.045,0.206,0.085,0.46,0.119
	c0.113,0.017,0.201,0.031,0.265,0.048c0.047,0.039,0.069,0.09,0.069,0.151c0,0.051-0.018,0.086-0.053,0.105h-0.1l-0.293-0.006
	h-1.705l-0.47,0.006c-0.008-0.059-0.012-0.102-0.012-0.129l0.006-0.07c0.086-0.047,0.246-0.092,0.48-0.135
	c0.121-0.02,0.246-0.053,0.375-0.1c0.022-0.021,0.041-0.045,0.053-0.076c0.021-0.055,0.033-0.211,0.041-0.469l0.029-0.68
	l-0.013-0.769l0.007-0.429c0-0.479-0.099-0.83-0.292-1.051c-0.194-0.222-0.44-0.332-0.736-0.332c-0.277,0-0.555,0.068-0.833,0.205
	c-0.279,0.137-0.51,0.32-0.693,0.551c-0.004,0.109-0.006,0.209-0.006,0.299l0.023,1.97c0.004,0.431,0.027,0.675,0.073,0.735
	c0.045,0.06,0.146,0.103,0.302,0.125c0.25,0.035,0.412,0.078,0.485,0.129c0.035,0.023,0.054,0.06,0.054,0.105
	c0,0.031-0.002,0.068-0.006,0.111c-0.446-0.031-0.746-0.047-0.898-0.047c-0.157,0-0.298,0.002-0.423,0.006l-0.293,0.018h-0.183
	l-0.657,0.023c-0.009-0.027-0.013-0.051-0.013-0.068C365.9,338.532,365.908,338.494,365.923,338.435z"/>
<path fill="none" stroke="#000000" stroke-width="0.025" d="M377.876,333.976c0.434,0.004,0.812,0.02,1.137,0.047
	c0.23,0,0.398-0.004,0.504-0.012c0.074-0.004,0.121-0.006,0.142-0.006l0.655,0.006c0.09,0.016,0.162,0.024,0.217,0.028
	c0.023,0.009,0.046,0.029,0.064,0.063c0,0.039-0.012,0.08-0.035,0.123c-0.065,0.021-0.135,0.031-0.205,0.035
	c-0.293,0.031-0.539,0.076-0.737,0.133c-0.027,0.02-0.041,0.039-0.041,0.059c0,0.039,0.02,0.098,0.059,0.18
	c0.008,0.02,0.025,0.065,0.053,0.141l0.587,1.408c0.263,0.646,0.506,1.188,0.729,1.631c0.152-0.289,0.292-0.588,0.421-0.897
	c0.128-0.31,0.317-0.796,0.567-1.461c0.069-0.188,0.136-0.419,0.198-0.694c0.013-0.056,0.019-0.102,0.019-0.141
	c0-0.046-0.026-0.098-0.079-0.154s-0.143-0.102-0.268-0.137c-0.026-0.004-0.204-0.033-0.532-0.087
	c-0.027-0.017-0.054-0.037-0.076-0.063v-0.047c0-0.021,0.002-0.046,0.006-0.076c0.094-0.013,0.162-0.019,0.205-0.019l0.691,0.006
	c0.047,0,0.157-0.006,0.334-0.019c0.62,0,0.993,0.007,1.118,0.019c0.023,0.009,0.045,0.031,0.064,0.07
	c0,0.034-0.012,0.073-0.035,0.116l-0.182,0.047c-0.047,0.004-0.084,0.008-0.111,0.012c-0.336,0.031-0.543,0.078-0.621,0.141
	c-0.059,0.041-0.151,0.242-0.274,0.6c-0.06,0.176-0.146,0.398-0.258,0.669l-0.304,0.739c-0.043,0.104-0.09,0.221-0.14,0.346
	l-0.906,2.1h-0.181c-0.035-0.094-0.078-0.191-0.129-0.293l-0.445-0.943l-1.048-2.459c-0.211-0.478-0.338-0.734-0.381-0.773
	s-0.293-0.122-0.75-0.247c-0.023-0.062-0.035-0.106-0.035-0.135L377.876,333.976z"/>
<path fill="none" stroke="#000000" stroke-width="0.025" d="M387.82,338.622h-2.684c-0.004-0.034-0.006-0.063-0.006-0.088
	c0-0.065,0.014-0.112,0.041-0.138c0.026-0.026,0.113-0.053,0.258-0.08c0.227-0.047,0.41-0.104,0.551-0.17
	c0.039-0.086,0.06-0.166,0.06-0.239v-0.363c0-0.043,0.006-0.239,0.018-0.592c0.004-0.133,0.008-0.707,0.012-1.724l0.013-1.377
	l-0.013-0.803c0-0.117,0.004-0.486,0.013-1.107c-0.888,0.634-1.373,0.949-1.459,0.949c-0.031,0-0.064-0.017-0.101-0.049
	c-0.036-0.033-0.053-0.066-0.053-0.098c0-0.039,0.014-0.07,0.041-0.094c0.055-0.051,0.186-0.135,0.393-0.252
	c0.031-0.016,0.166-0.121,0.404-0.316c0.379-0.316,0.656-0.564,0.832-0.744s0.283-0.281,0.322-0.305
	c0.078-0.004,0.139-0.006,0.182-0.006c0.103,0,0.165,0.017,0.19,0.05c0.024,0.032,0.038,0.153,0.038,0.36l-0.041,5.226v0.517
	c0,0.125-0.002,0.252-0.007,0.379c-0.004,0.127-0.006,0.22-0.006,0.277c0,0.141,0.019,0.233,0.054,0.276
	c0.022,0.026,0.096,0.062,0.217,0.104l0.397,0.082c0.172,0.043,0.267,0.072,0.281,0.088c0.039,0.035,0.059,0.088,0.059,0.16
	L387.82,338.622z"/>
<path fill="none" stroke="#000000" stroke-width="0.025" d="M389.894,338.16c0-0.172,0.063-0.322,0.191-0.451
	c0.127-0.129,0.274-0.193,0.443-0.193c0.165,0,0.305,0.062,0.418,0.183c0.114,0.121,0.172,0.272,0.172,0.457
	s-0.061,0.338-0.181,0.463s-0.264,0.188-0.433,0.188c-0.165,0-0.309-0.063-0.43-0.19
	C389.955,338.487,389.894,338.334,389.894,338.16z"/>
<path fill="none" stroke="#000000" stroke-width="0.025" d="M397.066,334.937c0,0.402-0.028,0.76-0.088,1.072
	c-0.104,0.539-0.252,0.989-0.438,1.354c-0.188,0.363-0.41,0.67-0.668,0.92c-0.188,0.184-0.388,0.316-0.599,0.4
	s-0.426,0.127-0.645,0.127c-0.387,0-0.753-0.129-1.1-0.387c-0.346-0.259-0.646-0.685-0.904-1.277
	c-0.258-0.594-0.388-1.293-0.388-2.098c0-0.63,0.078-1.232,0.234-1.812s0.362-1.026,0.618-1.345c0.256-0.319,0.51-0.549,0.762-0.688
	s0.526-0.211,0.823-0.211c0.418,0,0.823,0.164,1.216,0.491c0.394,0.328,0.706,0.839,0.94,1.529
	C396.988,333.48,397.066,334.12,397.066,334.937z M396.187,334.744c-0.004-0.961-0.039-1.613-0.104-1.957
	c-0.109-0.566-0.288-0.963-0.535-1.189c-0.247-0.226-0.537-0.34-0.868-0.34c-0.277,0-0.539,0.09-0.787,0.271
	c-0.248,0.18-0.418,0.461-0.512,0.844c-0.16,0.621-0.24,1.562-0.24,2.824c0,1.25,0.124,2.124,0.371,2.622
	c0.248,0.498,0.619,0.746,1.114,0.746c0.339,0,0.633-0.104,0.88-0.315s0.425-0.603,0.532-1.175c0.106-0.572,0.159-1.215,0.154-1.926
	L396.187,334.744z"/>
<circle fill="none" stroke="#010101" stroke-width="0.025" cx="325.338" cy="110.715" r="8.858"/>
</svg>
