<?xml version="1.0" encoding="utf-8"?>
<!-- Generator: Adobe Illustrator 16.0.0, SVG Export Plug-In . SVG Version: 6.00 Build 0)  -->
<!DOCTYPE svg PUBLIC "-//W3C//DTD SVG 1.1//EN" "http://www.w3.org/Graphics/SVG/1.1/DTD/svg11.dtd">
<svg version="1.1" id="Layer_1" xmlns="http://www.w3.org/2000/svg" xmlns:xlink="http://www.w3.org/1999/xlink" x="0px" y="0px"
	 width="595.28px" height="841.89px" viewBox="0 0 595.28 841.89" enable-background="new 0 0 595.28 841.89" xml:space="preserve">
<polygon fill="none" stroke="#6ABD45" stroke-width="0.025" points="209.46,482.217 207.654,481.912 205.961,481.318 
	204.465,480.463 203.222,479.377 202.297,478.111 201.722,476.721 201.53,475.268 201.53,444.029 201.722,442.577 202.297,441.186 
	203.222,439.92 204.465,438.834 205.961,437.975 207.654,437.381 209.46,437.077 211.316,437.077 213.123,437.381 214.816,437.975 
	216.316,438.834 217.554,439.92 218.479,441.186 219.055,442.577 219.247,444.029 219.247,475.268 219.055,476.721 218.479,478.111 
	217.554,479.377 216.316,480.463 214.816,481.318 213.123,481.912 211.316,482.217 "/>
<polygon fill="none" stroke="#6ABD45" stroke-width="0.025" points="337.261,482.217 335.453,481.912 333.762,481.318 
	332.263,480.463 331.023,479.377 330.1,478.111 329.525,476.721 329.33,475.268 329.33,444.029 329.525,442.577 330.1,441.186 
	331.023,439.92 332.263,438.834 333.762,437.975 335.453,437.381 337.261,437.077 339.117,437.077 340.925,437.381 342.617,437.975 
	344.116,438.834 345.354,439.92 346.279,441.186 346.854,442.577 347.048,444.029 347.048,475.268 346.854,476.721 346.279,478.111 
	345.354,479.377 344.116,480.463 342.617,481.318 340.925,481.912 339.117,482.217 "/>
<rect x="302.688" y="265.533" fill="none" stroke="#6ABD45" stroke-width="0.025" width="71" height="8.52"/>
<rect x="174.891" y="265.533" fill="none" stroke="#6ABD45" stroke-width="0.025" width="71" height="8.52"/>
<polygon fill="none" stroke="#6ABD45" stroke-width="0.025" points="273.363,278.653 271.556,278.264 269.856,277.507 
	268.36,276.417 267.119,275.028 266.197,273.419 265.622,271.646 265.431,269.796 265.622,267.943 266.197,266.17 267.119,264.562 
	268.36,263.177 269.856,262.082 271.556,261.32 273.363,260.936 275.216,260.936 277.021,261.32 278.721,262.082 280.218,263.177 
	281.458,264.562 282.381,266.17 282.953,267.943 283.147,269.796 282.953,271.646 282.381,273.419 281.458,275.028 280.218,276.417 
	278.721,277.507 277.021,278.264 275.216,278.653 "/>
<rect x="302.688" y="300.48" fill="none" stroke="#6ABD45" stroke-width="0.025" width="71" height="8.52"/>
<rect x="174.891" y="300.48" fill="none" stroke="#6ABD45" stroke-width="0.025" width="71" height="8.52"/>
<polygon fill="none" stroke="#6ABD45" stroke-width="0.025" points="273.363,313.601 271.556,313.211 269.856,312.454 
	268.36,311.364 267.119,309.976 266.197,308.366 265.622,306.594 265.431,304.743 265.622,302.89 266.197,301.117 267.119,299.509 
	268.36,298.124 269.856,297.029 271.556,296.267 273.363,295.883 275.216,295.883 277.021,296.267 278.721,297.029 280.218,298.124 
	281.458,299.509 282.381,301.117 282.953,302.89 283.147,304.743 282.953,306.594 282.381,308.366 281.458,309.976 280.218,311.364 
	278.721,312.454 277.021,313.211 275.216,313.601 "/>
<rect x="302.688" y="332.98" fill="none" stroke="#6ABD45" stroke-width="0.025" width="71" height="8.52"/>
<rect x="174.891" y="332.98" fill="none" stroke="#6ABD45" stroke-width="0.025" width="71" height="8.52"/>
<polygon fill="none" stroke="#6ABD45" stroke-width="0.025" points="273.363,346.101 271.556,345.711 269.856,344.954 
	268.36,343.864 267.119,342.476 266.197,340.866 265.622,339.094 265.431,337.243 265.622,335.39 266.197,333.617 267.119,332.009 
	268.36,330.624 269.856,329.529 271.556,328.767 273.363,328.383 275.216,328.383 277.021,328.767 278.721,329.529 280.218,330.624 
	281.458,332.009 282.381,333.617 282.953,335.39 283.147,337.243 282.953,339.094 282.381,340.866 281.458,342.476 280.218,343.864 
	278.721,344.954 277.021,345.711 275.216,346.101 "/>
<rect x="302.688" y="364.98" fill="none" stroke="#6ABD45" stroke-width="0.025" width="71" height="8.52"/>
<rect x="174.891" y="364.98" fill="none" stroke="#6ABD45" stroke-width="0.025" width="71" height="8.52"/>
<polygon fill="none" stroke="#6ABD45" stroke-width="0.025" points="273.363,378.101 271.556,377.711 269.856,376.954 
	268.36,375.864 267.119,374.476 266.197,372.866 265.622,371.094 265.431,369.243 265.622,367.39 266.197,365.617 267.119,364.009 
	268.36,362.624 269.856,361.529 271.556,360.767 273.363,360.383 275.216,360.383 277.021,360.767 278.721,361.529 280.218,362.624 
	281.458,364.009 282.381,365.617 282.953,367.39 283.147,369.243 282.953,371.094 282.381,372.866 281.458,374.476 280.218,375.864 
	278.721,376.954 277.021,377.711 275.216,378.101 "/>
<rect x="302.688" y="394.98" fill="none" stroke="#6ABD45" stroke-width="0.025" width="71" height="8.52"/>
<rect x="174.891" y="394.98" fill="none" stroke="#6ABD45" stroke-width="0.025" width="71" height="8.52"/>
<rect x="302.688" y="420.48" fill="none" stroke="#6ABD45" stroke-width="0.025" width="71" height="8.52"/>
<rect x="174.891" y="420.48" fill="none" stroke="#6ABD45" stroke-width="0.025" width="71" height="8.52"/>
<rect x="174.891" y="229.135" fill="none" stroke="#6ABD45" stroke-width="0.025" width="71" height="8.52"/>
<rect x="302.688" y="229.135" fill="none" stroke="#6ABD45" stroke-width="0.025" width="71" height="8.52"/>
<polygon fill="none" stroke="#6ABD45" stroke-width="0.025" points="273.363,242.252 271.556,241.865 269.856,241.108 
	268.36,240.013 267.119,238.63 266.197,237.016 265.622,235.248 265.431,233.396 265.622,231.54 266.197,229.773 267.119,228.16 
	268.36,226.776 269.856,225.681 271.556,224.924 273.363,224.536 275.216,224.536 277.021,224.924 278.721,225.681 280.218,226.776 
	281.458,228.16 282.381,229.773 282.953,231.54 283.147,233.396 282.953,235.248 282.381,237.016 281.458,238.63 280.218,240.013 
	278.721,241.108 277.021,241.865 275.216,242.252 "/>
<polygon fill="none" stroke="#6ABD45" stroke-width="0.025" points="262.93,492.307 262.93,412.794 263.18,410.431 263.909,408.173 
	265.098,406.114 266.69,404.353 268.608,402.958 270.776,401.989 273.102,401.493 275.477,401.493 277.802,401.989 279.97,402.958 
	281.888,404.353 283.48,406.114 284.667,408.173 285.398,410.431 285.648,412.794 285.648,492.307 387.891,492.307 387.891,228.615 
	387.456,224.482 386.167,220.525 384.095,216.931 381.312,213.842 377.948,211.396 374.151,209.709 370.091,208.842 
	178.487,208.842 174.426,209.709 170.629,211.396 167.269,213.842 164.483,216.931 162.41,220.525 161.121,224.482 160.687,228.615 
	160.687,492.307 "/>
</svg>
